Source-HROTn_VROTn_SLENx_SANGx.ufo
<glyph name="exclam" format="2">
  <advance width="185"/>
  <unicode hex="0021"/>
  <outline>
    <contour>
      <point x="346" y="453" type="curve" smooth="yes"/>
      <point x="333" y="405"/>
      <point x="315" y="373"/>
      <point x="296" y="346" type="curve" smooth="yes"/>
      <point x="268" y="306"/>
      <point x="238" y="264"/>
      <point x="208" y="222" type="curve" smooth="yes"/>
      <point x="189" y="196"/>
      <point x="168" y="177"/>
      <point x="148" y="167" type="curve" smooth="yes"/>
      <point x="88" y="137"/>
      <point x="48" y="217"/>
      <point x="108" y="247" type="curve" smooth="yes"/>
      <point x="115" y="251"/>
      <point x="127" y="265"/>
      <point x="134" y="274" type="curve" smooth="yes"/>
      <point x="162" y="314"/>
      <point x="192" y="356"/>
      <point x="222" y="398" type="curve" smooth="yes"/>
      <point x="237" y="419"/>
      <point x="249" y="441"/>
      <point x="260" y="477" type="curve" smooth="yes"/>
      <point x="278" y="542"/>
      <point x="365" y="518"/>
    </contour>
    <contour>
      <point x="7" y="-25" type="curve" smooth="yes"/>
      <point x="-63" y="-13"/>
      <point x="-54" y="85"/>
      <point x="32" y="95" type="curve" smooth="yes"/>
      <point x="99" y="102"/>
      <point x="109" y="13"/>
      <point x="42" y="5" type="curve" smooth="yes"/>
      <point x="40" y="5"/>
      <point x="21" y="64"/>
      <point x="23" y="63" type="curve" smooth="yes"/>
      <point x="89" y="51"/>
      <point x="73" y="-37"/>
    </contour>
  </outline>
</glyph>
<glyph name="numbersign" format="2">
  <advance width="494"/>
  <unicode hex="0023"/>
  <outline>
    <contour>
      <point x="410" y="498" type="curve" smooth="yes"/>
      <point x="76" y="74" type="line" smooth="yes"/>
      <point x="35" y="21"/>
      <point x="-36" y="77"/>
      <point x="6" y="130" type="curve" smooth="yes"/>
      <point x="340" y="554" type="line" smooth="yes"/>
      <point x="381" y="607"/>
      <point x="452" y="551"/>
    </contour>
    <contour>
      <point x="578" y="498" type="curve" smooth="yes"/>
      <point x="244" y="74" type="line" smooth="yes"/>
      <point x="203" y="21"/>
      <point x="132" y="77"/>
      <point x="174" y="130" type="curve" smooth="yes"/>
      <point x="508" y="554" type="line" smooth="yes"/>
      <point x="549" y="607"/>
      <point x="620" y="551"/>
    </contour>
    <contour>
      <point x="540" y="355" type="curve" smooth="yes"/>
      <point x="166" y="355" type="line" smooth="yes"/>
      <point x="99" y="355"/>
      <point x="99" y="445"/>
      <point x="166" y="445" type="curve" smooth="yes"/>
      <point x="540" y="445" type="line" smooth="yes"/>
      <point x="608" y="445"/>
      <point x="608" y="355"/>
    </contour>
    <contour>
      <point x="418" y="182" type="curve" smooth="yes"/>
      <point x="44" y="182" type="line" smooth="yes"/>
      <point x="-24" y="182"/>
      <point x="-23" y="272"/>
      <point x="44" y="272" type="curve" smooth="yes"/>
      <point x="418" y="272" type="line" smooth="yes"/>
      <point x="486" y="272"/>
      <point x="486" y="182"/>
    </contour>
  </outline>
</glyph>
<glyph name="asterisk" format="2">
  <advance width="434"/>
  <unicode hex="002A"/>
  <outline>
    <contour>
      <point x="167" y="446" type="curve" smooth="yes"/>
      <point x="201" y="446"/>
      <point x="216" y="446"/>
      <point x="239" y="446" type="curve" smooth="yes"/>
      <point x="312" y="446"/>
      <point x="359" y="386"/>
      <point x="351" y="327" type="curve" smooth="yes"/>
      <point x="348" y="302"/>
      <point x="347" y="291"/>
      <point x="342" y="264" type="curve" smooth="yes"/>
      <point x="332" y="197"/>
      <point x="243" y="211"/>
      <point x="254" y="278" type="curve" smooth="yes"/>
      <point x="257" y="303"/>
      <point x="258" y="314"/>
      <point x="261" y="339" type="curve" smooth="yes"/>
      <point x="263" y="349"/>
      <point x="251" y="356"/>
      <point x="239" y="356" type="curve" smooth="yes"/>
      <point x="205" y="356"/>
      <point x="190" y="356"/>
      <point x="167" y="356" type="curve" smooth="yes"/>
      <point x="100" y="356"/>
      <point x="100" y="446"/>
    </contour>
    <contour>
      <point x="535" y="412" type="curve" smooth="yes"/>
      <point x="502" y="386"/>
      <point x="488" y="375"/>
      <point x="456" y="349" type="curve" smooth="yes"/>
      <point x="402" y="307"/>
      <point x="315" y="271"/>
      <point x="264" y="271" type="curve" smooth="yes"/>
      <point x="230" y="271"/>
      <point x="215" y="271"/>
      <point x="192" y="271" type="curve" smooth="yes"/>
      <point x="125" y="271"/>
      <point x="125" y="361"/>
      <point x="192" y="361" type="curve" smooth="yes"/>
      <point x="226" y="361"/>
      <point x="241" y="361"/>
      <point x="264" y="361" type="curve" smooth="yes"/>
      <point x="296" y="361"/>
      <point x="366" y="393"/>
      <point x="400" y="419" type="curve" smooth="yes"/>
      <point x="432" y="445"/>
      <point x="446" y="456"/>
      <point x="479" y="482" type="curve" smooth="yes"/>
      <point x="532" y="524"/>
      <point x="588" y="453"/>
    </contour>
    <contour>
      <point x="463" y="356" type="curve" smooth="yes"/>
      <point x="429" y="356"/>
      <point x="414" y="356"/>
      <point x="391" y="356" type="curve" smooth="yes"/>
      <point x="319" y="356"/>
      <point x="271" y="417"/>
      <point x="279" y="476" type="curve" smooth="yes"/>
      <point x="283" y="501"/>
      <point x="284" y="513"/>
      <point x="289" y="538" type="curve" smooth="yes"/>
      <point x="299" y="605"/>
      <point x="388" y="591"/>
      <point x="377" y="524" type="curve" smooth="yes"/>
      <point x="374" y="499"/>
      <point x="373" y="489"/>
      <point x="369" y="462" type="curve" smooth="yes"/>
      <point x="367" y="454"/>
      <point x="380" y="446"/>
      <point x="391" y="446" type="curve" smooth="yes"/>
      <point x="425" y="446"/>
      <point x="440" y="446"/>
      <point x="463" y="446" type="curve" smooth="yes"/>
      <point x="531" y="446"/>
      <point x="531" y="356"/>
    </contour>
    <contour>
      <point x="145" y="221" type="curve" smooth="yes"/>
      <point x="179" y="248"/>
      <point x="197" y="260"/>
      <point x="229" y="286" type="curve" smooth="yes"/>
      <point x="283" y="328"/>
      <point x="365" y="361"/>
      <point x="416" y="361" type="curve" smooth="yes"/>
      <point x="450" y="361"/>
      <point x="465" y="361"/>
      <point x="488" y="361" type="curve" smooth="yes"/>
      <point x="556" y="361"/>
      <point x="556" y="271"/>
      <point x="488" y="271" type="curve" smooth="yes"/>
      <point x="454" y="271"/>
      <point x="439" y="271"/>
      <point x="416" y="271" type="curve" smooth="yes"/>
      <point x="383" y="271"/>
      <point x="319" y="242"/>
      <point x="285" y="216" type="curve" smooth="yes"/>
      <point x="253" y="190"/>
      <point x="233" y="176"/>
      <point x="201" y="151" type="curve" smooth="yes"/>
      <point x="148" y="109"/>
      <point x="92" y="180"/>
    </contour>
    <contour>
      <point x="402" y="439" type="curve" smooth="yes"/>
      <point x="399" y="414"/>
      <point x="397" y="403"/>
      <point x="394" y="379" type="curve" smooth="yes"/>
      <point x="388" y="341"/>
      <point x="380" y="276"/>
      <point x="376" y="241" type="curve" smooth="yes"/>
      <point x="373" y="216"/>
      <point x="371" y="205"/>
      <point x="368" y="181" type="curve" smooth="yes"/>
      <point x="360" y="114"/>
      <point x="270" y="124"/>
      <point x="278" y="191" type="curve" smooth="yes"/>
      <point x="281" y="217"/>
      <point x="283" y="228"/>
      <point x="286" y="253" type="curve" smooth="yes"/>
      <point x="292" y="290"/>
      <point x="300" y="355"/>
      <point x="304" y="389" type="curve" smooth="yes"/>
      <point x="307" y="415"/>
      <point x="309" y="426"/>
      <point x="314" y="453" type="curve" smooth="yes"/>
      <point x="324" y="520"/>
      <point x="413" y="506"/>
    </contour>
  </outline>
</glyph>
<glyph name="plus" format="2">
  <advance width="382"/>
  <unicode hex="002B"/>
  <outline>
    <contour>
      <point x="366" y="311" type="curve" smooth="yes"/>
      <point x="297" y="261"/>
      <point x="235" y="171"/>
      <point x="185" y="53" type="curve" smooth="yes"/>
      <point x="159" y="-9"/>
      <point x="76" y="26"/>
      <point x="103" y="89" type="curve" smooth="yes"/>
      <point x="161" y="225"/>
      <point x="233" y="325"/>
      <point x="312" y="383" type="curve" smooth="yes"/>
      <point x="367" y="423"/>
      <point x="420" y="350"/>
    </contour>
    <contour>
      <point x="394" y="168" type="curve" smooth="yes"/>
      <point x="306" y="128"/>
      <point x="202" y="126"/>
      <point x="91" y="167" type="curve" smooth="yes"/>
      <point x="27" y="190"/>
      <point x="58" y="274"/>
      <point x="121" y="251" type="curve" smooth="yes"/>
      <point x="208" y="220"/>
      <point x="288" y="218"/>
      <point x="356" y="250" type="curve" smooth="yes"/>
      <point x="417" y="278"/>
      <point x="455" y="196"/>
    </contour>
  </outline>
</glyph>
<glyph name="comma" format="2">
  <advance width="191"/>
  <unicode hex="002C"/>
  <outline>
    <contour>
      <point x="-102" y="-43" type="curve" smooth="yes"/>
      <point x="-66" y="-28"/>
      <point x="-11" y="13"/>
      <point x="-20" y="38" type="curve" smooth="yes"/>
      <point x="-42" y="102"/>
      <point x="43" y="132"/>
      <point x="66" y="68" type="curve" smooth="yes"/>
      <point x="90" y="-2"/>
      <point x="33" y="-85"/>
      <point x="-68" y="-127" type="curve" smooth="yes"/>
      <point x="-130" y="-152"/>
      <point x="-165" y="-69"/>
    </contour>
  </outline>
</glyph>
<glyph name="period" format="2">
  <advance width="184"/>
  <unicode hex="002E"/>
  <outline>
    <contour>
      <point x="-6" y="60" type="curve" smooth="yes"/>
      <point x="-6" y="60"/>
      <point x="-9" y="66"/>
      <point x="-8" y="68" type="curve" smooth="yes"/>
      <point x="11" y="132"/>
      <point x="97" y="107"/>
      <point x="78" y="42" type="curve" smooth="yes"/>
      <point x="67" y="5"/>
      <point x="42" y="-19"/>
      <point x="22" y="-26" type="curve" smooth="yes"/>
      <point x="-42" y="-47"/>
      <point x="-70" y="38"/>
    </contour>
  </outline>
</glyph>
<glyph name="one" format="2">
  <advance width="244"/>
  <unicode hex="0031"/>
  <outline>
    <contour>
      <point x="218" y="521" type="curve" smooth="yes"/>
      <point x="268" y="524"/>
      <point x="317" y="522"/>
      <point x="350" y="503" type="curve" smooth="yes"/>
      <point x="393" y="477"/>
      <point x="420" y="425"/>
      <point x="327" y="295" type="curve" smooth="yes"/>
      <point x="266" y="208"/>
      <point x="230" y="157"/>
      <point x="175" y="79" type="curve" smooth="yes"/>
      <point x="141" y="32"/>
      <point x="114" y="7"/>
      <point x="84" y="-4" type="curve" smooth="yes"/>
      <point x="21" y="-27"/>
      <point x="-10" y="57"/>
      <point x="54" y="80" type="curve" smooth="yes"/>
      <point x="66" y="85"/>
      <point x="87" y="111"/>
      <point x="101" y="131" type="curve" smooth="yes"/>
      <point x="156" y="209"/>
      <point x="192" y="260"/>
      <point x="253" y="347" type="curve" smooth="yes"/>
      <point x="258" y="354"/>
      <point x="306" y="424"/>
      <point x="304" y="425" type="curve" smooth="yes"/>
      <point x="290" y="433"/>
      <point x="244" y="432"/>
      <point x="222" y="431" type="curve" smooth="yes"/>
      <point x="155" y="427"/>
      <point x="150" y="517"/>
    </contour>
  </outline>
</glyph>
<glyph name="two" format="2">
  <advance width="357"/>
  <unicode hex="0032"/>
  <outline>
    <contour>
      <point x="270" y="487" type="curve" smooth="yes"/>
      <point x="324" y="488"/>
      <point x="362" y="494"/>
      <point x="417" y="488" type="curve" smooth="yes"/>
      <point x="488" y="480"/>
      <point x="548" y="414"/>
      <point x="479" y="317" type="curve" smooth="yes"/>
      <point x="439" y="261"/>
      <point x="383" y="224"/>
      <point x="276" y="157" type="curve" smooth="yes"/>
      <point x="198" y="109"/>
      <point x="155" y="70"/>
      <point x="92" y="36" type="curve" smooth="yes"/>
      <point x="-150" y="-94"/>
      <point x="3" y="107"/>
      <point x="16" y="107" type="curve" smooth="yes"/>
      <point x="80" y="107"/>
      <point x="120" y="65"/>
      <point x="160" y="65" type="curve" smooth="yes"/>
      <point x="172" y="65"/>
      <point x="185" y="67"/>
      <point x="191" y="71" type="curve" smooth="yes"/>
      <point x="247" y="109"/>
      <point x="298" y="35"/>
      <point x="243" y="-3" type="curve" smooth="yes"/>
      <point x="223" y="-16"/>
      <point x="197" y="-25"/>
      <point x="160" y="-25" type="curve" smooth="yes"/>
      <point x="93" y="-25"/>
      <point x="54" y="17"/>
      <point x="16" y="17" type="curve" smooth="yes"/>
      <point x="-176" y="17"/>
      <point x="34" y="107"/>
      <point x="50" y="116" type="curve" smooth="yes"/>
      <point x="107" y="146"/>
      <point x="144" y="181"/>
      <point x="228" y="233" type="curve" smooth="yes"/>
      <point x="314" y="287"/>
      <point x="373" y="324"/>
      <point x="405" y="369" type="curve" smooth="yes"/>
      <point x="420" y="390"/>
      <point x="422" y="397"/>
      <point x="407" y="398" type="curve" smooth="yes"/>
      <point x="362" y="404"/>
      <point x="316" y="398"/>
      <point x="272" y="397" type="curve" smooth="yes"/>
      <point x="204" y="396"/>
      <point x="203" y="486"/>
    </contour>
  </outline>
</glyph>
<glyph name="three" format="2">
  <advance width="346"/>
  <unicode hex="0033"/>
  <outline>
    <contour>
      <point x="19" y="89" type="curve" smooth="yes"/>
      <point x="35" y="75"/>
      <point x="59" y="66"/>
      <point x="85" y="64" type="curve" smooth="yes"/>
      <point x="138" y="60"/>
      <point x="216" y="88"/>
      <point x="246" y="153" type="curve" smooth="yes"/>
      <point x="273" y="208"/>
      <point x="254" y="246"/>
      <point x="230" y="252" type="curve" smooth="yes"/>
      <point x="209.53846153846155" y="257.38461538461536"/>
      <point x="218.0" y="257.0"/>
      <point x="190" y="257" type="curve" smooth="yes"/>
      <point x="189" y="257"/>
      <point x="245" y="322"/>
      <point x="253" y="325" type="curve" smooth="yes"/>
      <point x="280" y="335"/>
      <point x="294" y="344"/>
      <point x="318" y="359" type="curve" smooth="yes"/>
      <point x="340" y="373"/>
      <point x="365" y="394"/>
      <point x="401" y="433" type="curve" smooth="yes"/>
      <point x="405" y="438"/>
      <point x="439" y="445"/>
      <point x="435" y="444" type="curve" smooth="yes"/>
      <point x="383" y="428"/>
      <point x="330" y="392"/>
      <point x="282" y="392" type="curve" smooth="yes"/>
      <point x="215" y="392"/>
      <point x="215" y="482"/>
      <point x="282" y="482" type="curve" smooth="yes"/>
      <point x="311" y="482"/>
      <point x="324" y="504"/>
      <point x="409" y="530" type="curve" smooth="yes"/>
      <point x="503" y="558"/>
      <point x="571" y="488"/>
      <point x="467" y="373" type="curve" smooth="yes"/>
      <point x="425" y="326"/>
      <point x="394" y="301"/>
      <point x="366" y="283" type="curve" smooth="yes"/>
      <point x="336" y="264"/>
      <point x="318" y="253"/>
      <point x="285" y="241" type="curve" smooth="yes"/>
      <point x="60" y="158"/>
      <point x="141" y="351"/>
      <point x="194" y="347" type="curve"/>
      <point x="213" y="347"/>
      <point x="224" y="347"/>
      <point x="252" y="340" type="curve" smooth="yes"/>
      <point x="309" y="326"/>
      <point x="390" y="244"/>
      <point x="328" y="113" type="curve" smooth="yes"/>
      <point x="278" y="12"/>
      <point x="164" y="-32"/>
      <point x="77" y="-26" type="curve" smooth="yes"/>
      <point x="31" y="-22"/>
      <point x="-9" y="-5"/>
      <point x="-39" y="19" type="curve" smooth="yes"/>
      <point x="-91" y="62"/>
      <point x="-33" y="132"/>
    </contour>
  </outline>
</glyph>
<glyph name="five" format="2">
  <advance width="355"/>
  <unicode hex="0035"/>
  <outline>
    <contour>
      <point x="469" y="477" type="curve" smooth="yes"/>
      <point x="293" y="477" type="line"/>
      <point x="328" y="494" type="line"/>
      <point x="169" y="297" type="line"/>
      <point x="125" y="369" type="line"/>
      <point x="315" y="408"/>
      <point x="409" y="329"/>
      <point x="313" y="192" type="curve" smooth="yes"/>
      <point x="217" y="58"/>
      <point x="56" y="24"/>
      <point x="-46" y="78" type="curve" smooth="yes"/>
      <point x="-106" y="110"/>
      <point x="-64" y="189"/>
      <point x="-4" y="158" type="curve" smooth="yes"/>
      <point x="64" y="122"/>
      <point x="175" y="154"/>
      <point x="239" y="244" type="curve" smooth="yes"/>
      <point x="281" y="304"/>
      <point x="227" y="298"/>
      <point x="143" y="281" type="curve" smooth="yes"/>
      <point x="102" y="273"/>
      <point x="73" y="320"/>
      <point x="99" y="353" type="curve" smooth="yes"/>
      <point x="258" y="550" type="line" smooth="yes"/>
      <point x="267" y="561"/>
      <point x="279" y="567"/>
      <point x="293" y="567" type="curve" smooth="yes"/>
      <point x="469" y="567" type="line" smooth="yes"/>
      <point x="537" y="567"/>
      <point x="537" y="477"/>
    </contour>
  </outline>
</glyph>
<glyph name="six" format="2">
  <advance width="378"/>
  <unicode hex="0036"/>
  <outline>
    <contour>
      <point x="124" y="329" type="curve" smooth="yes"/>
      <point x="179" y="342"/>
      <point x="238" y="356"/>
      <point x="293" y="348" type="curve" smooth="yes"/>
      <point x="397" y="332"/>
      <point x="442" y="221"/>
      <point x="370" y="119" type="curve" smooth="yes"/>
      <point x="307" y="31"/>
      <point x="206" y="-30"/>
      <point x="114" y="-30" type="curve" smooth="yes"/>
      <point x="21" y="-30"/>
      <point x="-54" y="46"/>
      <point x="80" y="236" type="curve" smooth="yes"/>
      <point x="209" y="418"/>
      <point x="353" y="480"/>
      <point x="440" y="487" type="curve" smooth="yes"/>
      <point x="464" y="489"/>
      <point x="483" y="492"/>
      <point x="494" y="493" type="curve" smooth="yes"/>
      <point x="561" y="499"/>
      <point x="570" y="410"/>
      <point x="502" y="403" type="curve" smooth="yes"/>
      <point x="493" y="402"/>
      <point x="474" y="399"/>
      <point x="446" y="397" type="curve" smooth="yes"/>
      <point x="376" y="392"/>
      <point x="259" y="332"/>
      <point x="154" y="184" type="curve" smooth="yes"/>
      <point x="104" y="113"/>
      <point x="79" y="60"/>
      <point x="114" y="60" type="curve" smooth="yes"/>
      <point x="178" y="60"/>
      <point x="253" y="109"/>
      <point x="296" y="171" type="curve" smooth="yes"/>
      <point x="325" y="212"/>
      <point x="322" y="252"/>
      <point x="281" y="258" type="curve" smooth="yes"/>
      <point x="240" y="264"/>
      <point x="184" y="250"/>
      <point x="144" y="241" type="curve" smooth="yes"/>
      <point x="78" y="226"/>
      <point x="58" y="314"/>
    </contour>
  </outline>
</glyph>
<glyph name="seven" format="2">
  <advance width="341"/>
  <unicode hex="0037"/>
  <outline>
    <contour>
      <point x="283" y="499" type="curve" smooth="yes"/>
      <point x="299" y="490"/>
      <point x="313" y="485"/>
      <point x="331" y="485" type="curve" smooth="yes"/>
      <point x="381" y="485"/>
      <point x="397" y="485"/>
      <point x="429" y="485" type="curve" smooth="yes"/>
      <point x="515" y="485"/>
      <point x="560" y="531"/>
      <point x="435" y="361" type="curve" smooth="yes"/>
      <point x="354" y="247"/>
      <point x="258" y="152"/>
      <point x="152" y="59" type="curve" smooth="yes"/>
      <point x="118" y="30"/>
      <point x="83" y="10"/>
      <point x="46" y="-3" type="curve" smooth="yes"/>
      <point x="-18" y="-24"/>
      <point x="-47" y="61"/>
      <point x="16" y="83" type="curve" smooth="yes"/>
      <point x="43" y="92"/>
      <point x="68" y="106"/>
      <point x="92" y="127" type="curve" smooth="yes"/>
      <point x="194" y="216"/>
      <point x="284" y="305"/>
      <point x="363" y="415" type="curve" smooth="yes"/>
      <point x="369" y="423"/>
      <point x="433" y="395"/>
      <point x="429" y="395" type="curve" smooth="yes"/>
      <point x="381" y="395"/>
      <point x="365" y="395"/>
      <point x="331" y="395" type="curve" smooth="yes"/>
      <point x="297" y="395"/>
      <point x="267" y="404"/>
      <point x="237" y="423" type="curve" smooth="yes"/>
      <point x="179" y="458"/>
      <point x="226" y="535"/>
    </contour>
  </outline>
</glyph>
<glyph name="eight" format="2">
  <advance width="379"/>
  <unicode hex="0038"/>
  <outline>
    <contour>
      <point x="49" y="-38" type="curve" smooth="yes"/>
      <point x="-16" y="9"/>
      <point x="-28" y="77"/>
      <point x="25" y="162" type="curve" smooth="yes"/>
      <point x="86" y="262"/>
      <point x="162" y="351"/>
      <point x="251" y="351" type="curve" smooth="yes"/>
      <point x="298" y="351"/>
      <point x="383" y="347"/>
      <point x="416" y="379" type="curve" smooth="yes"/>
      <point x="431" y="393"/>
      <point x="433" y="399"/>
      <point x="412" y="399" type="curve" smooth="yes"/>
      <point x="361" y="399"/>
      <point x="298" y="365"/>
      <point x="265" y="314" type="curve" smooth="yes"/>
      <point x="244" y="283"/>
      <point x="245" y="266"/>
      <point x="275" y="266" type="curve" smooth="yes"/>
      <point x="382" y="266"/>
      <point x="429" y="210"/>
      <point x="352" y="104" type="curve" smooth="yes"/>
      <point x="307" y="44"/>
      <point x="241" y="-3"/>
      <point x="181" y="-41" type="curve" smooth="yes"/>
      <point x="124" y="-77"/>
      <point x="76" y="-1"/>
      <point x="133" y="35" type="curve" smooth="yes"/>
      <point x="183" y="67"/>
      <point x="243" y="108"/>
      <point x="280" y="158" type="curve" smooth="yes"/>
      <point x="294" y="178"/>
      <point x="295" y="176"/>
      <point x="275" y="176" type="curve" smooth="yes"/>
      <point x="179" y="176"/>
      <point x="123" y="265"/>
      <point x="189" y="364" type="curve" smooth="yes"/>
      <point x="240" y="441"/>
      <point x="333" y="489"/>
      <point x="412" y="489" type="curve" smooth="yes"/>
      <point x="517" y="489"/>
      <point x="556" y="390"/>
      <point x="478" y="313" type="curve" smooth="yes"/>
      <point x="420" y="258"/>
      <point x="332" y="261"/>
      <point x="251" y="261" type="curve" smooth="yes"/>
      <point x="200" y="261"/>
      <point x="137" y="172"/>
      <point x="101" y="114" type="curve" smooth="yes"/>
      <point x="77" y="76"/>
      <point x="73" y="56"/>
      <point x="103" y="34" type="curve" smooth="yes"/>
      <point x="157" y="-5"/>
      <point x="104" y="-78"/>
    </contour>
  </outline>
</glyph>
<glyph name="nine" format="2">
  <advance width="378"/>
  <unicode hex="0039"/>
  <outline>
    <contour>
      <point x="373" y="289" type="curve" smooth="yes"/>
      <point x="327" y="230"/>
      <point x="266" y="191"/>
      <point x="213" y="183" type="curve" smooth="yes"/>
      <point x="110" y="166"/>
      <point x="63" y="229"/>
      <point x="143" y="341" type="curve" smooth="yes"/>
      <point x="206" y="429"/>
      <point x="307" y="490"/>
      <point x="399" y="490" type="curve" smooth="yes"/>
      <point x="492" y="490"/>
      <point x="567" y="413"/>
      <point x="433" y="223" type="curve" smooth="yes"/>
      <point x="300" y="36"/>
      <point x="161" y="-35"/>
      <point x="67" y="-28" type="curve" smooth="yes"/>
      <point x="27" y="-25"/>
      <point x="-9" y="-4"/>
      <point x="-37" y="35" type="curve" smooth="yes"/>
      <point x="-76" y="90"/>
      <point x="-2" y="142"/>
      <point x="37" y="87" type="curve" smooth="yes"/>
      <point x="47" y="72"/>
      <point x="59" y="63"/>
      <point x="73" y="62" type="curve" smooth="yes"/>
      <point x="145" y="57"/>
      <point x="259" y="133"/>
      <point x="359" y="275" type="curve" smooth="yes"/>
      <point x="410" y="346"/>
      <point x="434" y="400"/>
      <point x="399" y="400" type="curve" smooth="yes"/>
      <point x="335" y="400"/>
      <point x="260" y="351"/>
      <point x="217" y="289" type="curve" smooth="yes"/>
      <point x="213" y="283"/>
      <point x="194" y="271"/>
      <point x="199" y="271" type="curve" smooth="yes"/>
      <point x="232" y="277"/>
      <point x="273" y="307"/>
      <point x="301" y="343" type="curve" smooth="yes"/>
      <point x="343" y="397"/>
      <point x="414" y="342"/>
    </contour>
  </outline>
</glyph>
<glyph name="greater" format="2">
  <advance width="317"/>
  <unicode hex="003E"/>
  <outline>
    <contour>
      <point x="17" y="149" type="curve" smooth="yes"/>
      <point x="78" y="160"/>
      <point x="140" y="176"/>
      <point x="205" y="214" type="curve" smooth="yes"/>
      <point x="244" y="235"/>
      <point x="247" y="235"/>
      <point x="229" y="257" type="curve" smooth="yes"/>
      <point x="207" y="284"/>
      <point x="202" y="256"/>
      <point x="164" y="296" type="curve" smooth="yes"/>
      <point x="117" y="344"/>
      <point x="182" y="407"/>
      <point x="228" y="358" type="curve" smooth="yes"/>
      <point x="245" y="341"/>
      <point x="249" y="375"/>
      <point x="297" y="315" type="curve" smooth="yes"/>
      <point x="349" y="253"/>
      <point x="358" y="196"/>
      <point x="251" y="136" type="curve" smooth="yes"/>
      <point x="174" y="92"/>
      <point x="102" y="72"/>
      <point x="33" y="61" type="curve" smooth="yes"/>
      <point x="-34" y="49"/>
      <point x="-49" y="138"/>
    </contour>
  </outline>
</glyph>
<glyph name="at" format="2">
  <advance width="676"/>
  <unicode hex="0040"/>
  <outline>
    <contour>
      <point x="596" y="265" type="curve" smooth="yes"/>
      <point x="574" y="234"/>
      <point x="542" y="188"/>
      <point x="514" y="149" type="curve" smooth="yes"/>
      <point x="456" y="67"/>
      <point x="365" y="15"/>
      <point x="292" y="15" type="curve" smooth="yes"/>
      <point x="197" y="15"/>
      <point x="159" y="99"/>
      <point x="232" y="203" type="curve" smooth="yes"/>
      <point x="287" y="282"/>
      <point x="375" y="340"/>
      <point x="437" y="358" type="curve" smooth="yes"/>
      <point x="531" y="385"/>
      <point x="577" y="339"/>
      <point x="497" y="224" type="curve" smooth="yes"/>
      <point x="468" y="184"/>
      <point x="467" y="142"/>
      <point x="490" y="135" type="curve" smooth="yes"/>
      <point x="529" y="121"/>
      <point x="591" y="177"/>
      <point x="632" y="235" type="curve" smooth="yes"/>
      <point x="706" y="340"/>
      <point x="693" y="399"/>
      <point x="575" y="399" type="curve" smooth="yes"/>
      <point x="429" y="399"/>
      <point x="247" y="289"/>
      <point x="146" y="146" type="curve" smooth="yes"/>
      <point x="59" y="23"/>
      <point x="72" y="-44"/>
      <point x="190" y="-44" type="curve" smooth="yes"/>
      <point x="223" y="-44"/>
      <point x="261" y="-38"/>
      <point x="300" y="-4" type="curve" smooth="yes"/>
      <point x="350" y="42"/>
      <point x="410" y="-25"/>
      <point x="360" y="-70" type="curve" smooth="yes"/>
      <point x="301" y="-124"/>
      <point x="239" y="-134"/>
      <point x="190" y="-134" type="curve" smooth="yes"/>
      <point x="4" y="-134"/>
      <point x="-64" y="4"/>
      <point x="72" y="198" type="curve" smooth="yes"/>
      <point x="193" y="367"/>
      <point x="403" y="489"/>
      <point x="575" y="489" type="curve" smooth="yes"/>
      <point x="766" y="489"/>
      <point x="825" y="353"/>
      <point x="706" y="183" type="curve" smooth="yes"/>
      <point x="627" y="72"/>
      <point x="536" y="24"/>
      <point x="460" y="49" type="curve" smooth="yes"/>
      <point x="397" y="71"/>
      <point x="344" y="165"/>
      <point x="423" y="276" type="curve" smooth="yes"/>
      <point x="427" y="281"/>
      <point x="467" y="273"/>
      <point x="463" y="272" type="curve" smooth="yes"/>
      <point x="417" y="258"/>
      <point x="347" y="210"/>
      <point x="306" y="151" type="curve" smooth="yes"/>
      <point x="293" y="133"/>
      <point x="275" y="105"/>
      <point x="292" y="105" type="curve" smooth="yes"/>
      <point x="339" y="105"/>
      <point x="403" y="148"/>
      <point x="440" y="201" type="curve" smooth="yes"/>
      <point x="468" y="240"/>
      <point x="500" y="286"/>
      <point x="522" y="317" type="curve" smooth="yes"/>
      <point x="561" y="372"/>
      <point x="635" y="320"/>
    </contour>
  </outline>
</glyph>
<glyph name="A" format="2">
  <advance width="461"/>
  <unicode hex="0041"/>
  <outline>
    <contour>
      <point x="-41" y="69" type="curve" smooth="yes"/>
      <point x="-10" y="81"/>
      <point x="10" y="93"/>
      <point x="37" y="115" type="curve" smooth="yes"/>
      <point x="86" y="156"/>
      <point x="110" y="182"/>
      <point x="162" y="183" type="curve" smooth="yes"/>
      <point x="203" y="183"/>
      <point x="222" y="183"/>
      <point x="252" y="183" type="curve" smooth="yes"/>
      <point x="256" y="183"/>
      <point x="230" y="182"/>
      <point x="226" y="182" type="curve" smooth="yes"/>
      <point x="194" y="182"/>
      <point x="184" y="182"/>
      <point x="172" y="182" type="curve" smooth="yes"/>
      <point x="60" y="182"/>
      <point x="62" y="225"/>
      <point x="186" y="297" type="curve" smooth="yes"/>
      <point x="238" y="326"/>
      <point x="278" y="406"/>
      <point x="339" y="464" type="curve" smooth="yes"/>
      <point x="445" y="566"/>
      <point x="536" y="484"/>
      <point x="499" y="383" type="curve" smooth="yes"/>
      <point x="466" y="294"/>
      <point x="419" y="162"/>
      <point x="391" y="85" type="curve" smooth="yes"/>
      <point x="379" y="51"/>
      <point x="370" y="18"/>
      <point x="350" y="-4" type="curve" smooth="yes"/>
      <point x="304" y="-53"/>
      <point x="238" y="8"/>
      <point x="284" y="58" type="curve" smooth="yes"/>
      <point x="288" y="62"/>
      <point x="304" y="109"/>
      <point x="307" y="115" type="curve" smooth="yes"/>
      <point x="335" y="192"/>
      <point x="382" y="326"/>
      <point x="415" y="413" type="curve" smooth="yes"/>
      <point x="416" y="418"/>
      <point x="406" y="404"/>
      <point x="401" y="400" type="curve" smooth="yes"/>
      <point x="355" y="355"/>
      <point x="299" y="258"/>
      <point x="232" y="219" type="curve" smooth="yes"/>
      <point x="227" y="216"/>
      <point x="168" y="272"/>
      <point x="172" y="272" type="curve" smooth="yes"/>
      <point x="190" y="272"/>
      <point x="205" y="272"/>
      <point x="226" y="272" type="curve" smooth="yes"/>
      <point x="335" y="272"/>
      <point x="369" y="93"/>
      <point x="252" y="93" type="curve" smooth="yes"/>
      <point x="207" y="93"/>
      <point x="190" y="93"/>
      <point x="164" y="93" type="curve" smooth="yes"/>
      <point x="143" y="92"/>
      <point x="115" y="63"/>
      <point x="95" y="47" type="curve" smooth="yes"/>
      <point x="60" y="17"/>
      <point x="32" y="1"/>
      <point x="-7" y="-15" type="curve" smooth="yes"/>
      <point x="-70" y="-40"/>
      <point x="-103" y="44"/>
    </contour>
  </outline>
</glyph>
<glyph name="D" format="2">
  <advance width="466"/>
  <unicode hex="0044"/>
  <outline>
    <contour>
      <point x="-16" y="86" type="curve" smooth="yes"/>
      <point x="-3" y="91"/>
      <point x="15" y="113"/>
      <point x="45" y="156" type="curve" smooth="yes"/>
      <point x="93" y="224"/>
      <point x="144" y="295"/>
      <point x="195" y="368" type="curve" smooth="yes"/>
      <point x="220" y="402"/>
      <point x="262" y="525"/>
      <point x="323" y="525" type="curve" smooth="yes"/>
      <point x="367" y="525"/>
      <point x="405" y="498"/>
      <point x="448" y="482" type="curve" smooth="yes"/>
      <point x="614" y="422"/>
      <point x="611" y="350"/>
      <point x="507" y="202" type="curve" smooth="yes"/>
      <point x="409" y="65"/>
      <point x="261" y="-35"/>
      <point x="127" y="-22" type="curve" smooth="yes"/>
      <point x="103" y="-19"/>
      <point x="78" y="-11"/>
      <point x="49" y="4" type="curve" smooth="yes"/>
      <point x="-10" y="37"/>
      <point x="33" y="116"/>
      <point x="93" y="84" type="curve" smooth="yes"/>
      <point x="108" y="75"/>
      <point x="123" y="69"/>
      <point x="137" y="68" type="curve" smooth="yes"/>
      <point x="239" y="57"/>
      <point x="359" y="149"/>
      <point x="433" y="254" type="curve" smooth="yes"/>
      <point x="496" y="344"/>
      <point x="519" y="361"/>
      <point x="418" y="398" type="curve" smooth="yes"/>
      <point x="341" y="425"/>
      <point x="348" y="435"/>
      <point x="323" y="435" type="curve" smooth="yes"/>
      <point x="317" y="435"/>
      <point x="495" y="636"/>
      <point x="269" y="316" type="curve" smooth="yes"/>
      <point x="221" y="248"/>
      <point x="170" y="177"/>
      <point x="119" y="104" type="curve" smooth="yes"/>
      <point x="62" y="22"/>
      <point x="39" y="10"/>
      <point x="16" y="2" type="curve" smooth="yes"/>
      <point x="-48" y="-22"/>
      <point x="-79" y="63"/>
    </contour>
  </outline>
</glyph>
<glyph name="E" format="2">
  <advance width="369"/>
  <unicode hex="0045"/>
  <outline>
    <contour>
      <point x="537" y="423" type="curve" smooth="yes"/>
      <point x="499" y="394"/>
      <point x="465" y="392"/>
      <point x="425" y="392" type="curve" smooth="yes"/>
      <point x="393" y="392"/>
      <point x="384" y="392"/>
      <point x="363" y="392" type="curve" smooth="yes"/>
      <point x="331" y="392"/>
      <point x="319" y="379"/>
      <point x="297" y="347" type="curve" smooth="yes"/>
      <point x="264" y="301"/>
      <point x="230" y="280"/>
      <point x="202" y="274" type="curve" smooth="yes"/>
      <point x="104" y="253"/>
      <point x="92" y="366"/>
      <point x="183" y="366" type="curve" smooth="yes"/>
      <point x="221" y="366"/>
      <point x="260" y="366"/>
      <point x="289" y="366" type="curve" smooth="yes"/>
      <point x="409" y="366"/>
      <point x="434" y="191"/>
      <point x="314" y="191" type="curve" smooth="yes"/>
      <point x="276" y="191"/>
      <point x="239" y="191"/>
      <point x="209" y="191" type="curve" smooth="yes"/>
      <point x="190" y="191"/>
      <point x="184" y="188"/>
      <point x="173" y="172" type="curve" smooth="yes"/>
      <point x="144" y="131"/>
      <point x="104" y="75"/>
      <point x="86" y="49" type="curve" smooth="yes"/>
      <point x="83" y="45"/>
      <point x="63" y="65"/>
      <point x="66" y="65" type="curve" smooth="yes"/>
      <point x="92" y="65"/>
      <point x="101" y="65"/>
      <point x="126" y="65" type="curve" smooth="yes"/>
      <point x="145" y="65"/>
      <point x="167" y="64"/>
      <point x="191" y="79" type="curve" smooth="yes"/>
      <point x="249" y="115"/>
      <point x="296" y="38"/>
      <point x="239" y="3" type="curve" smooth="yes"/>
      <point x="196" y="-24"/>
      <point x="159" y="-25"/>
      <point x="126" y="-25" type="curve" smooth="yes"/>
      <point x="89" y="-25"/>
      <point x="83" y="-25"/>
      <point x="66" y="-25" type="curve" smooth="yes"/>
      <point x="-5" y="-25"/>
      <point x="-44" y="23"/>
      <point x="12" y="101" type="curve" smooth="yes"/>
      <point x="30" y="127"/>
      <point x="70" y="183"/>
      <point x="99" y="224" type="curve" smooth="yes"/>
      <point x="128" y="264"/>
      <point x="160" y="281"/>
      <point x="209" y="281" type="curve" smooth="yes"/>
      <point x="254" y="281"/>
      <point x="289" y="281"/>
      <point x="314" y="281" type="curve" smooth="yes"/>
      <point x="319" y="281"/>
      <point x="294" y="276"/>
      <point x="289" y="276" type="curve" smooth="yes"/>
      <point x="246" y="276"/>
      <point x="208" y="276"/>
      <point x="183" y="276" type="curve" smooth="yes"/>
      <point x="181" y="276"/>
      <point x="181" y="362"/>
      <point x="184" y="362" type="curve" smooth="yes"/>
      <point x="194" y="364"/>
      <point x="212" y="384"/>
      <point x="223" y="399" type="curve" smooth="yes"/>
      <point x="265" y="458"/>
      <point x="302" y="482"/>
      <point x="363" y="482" type="curve" smooth="yes"/>
      <point x="395" y="482"/>
      <point x="404" y="482"/>
      <point x="425" y="482" type="curve" smooth="yes"/>
      <point x="445" y="482"/>
      <point x="464" y="481"/>
      <point x="483" y="495" type="curve" smooth="yes"/>
      <point x="537" y="536"/>
      <point x="591" y="464"/>
    </contour>
  </outline>
</glyph>
<glyph name="F" format="2">
  <advance width="355"/>
  <unicode hex="0046"/>
  <outline>
    <contour>
      <point x="331" y="222" type="curve" smooth="yes"/>
      <point x="281" y="222"/>
      <point x="230" y="248"/>
      <point x="166" y="266" type="curve" smooth="yes"/>
      <point x="149" y="271"/>
      <point x="120" y="226"/>
      <point x="107" y="207" type="curve" smooth="yes"/>
      <point x="86" y="178"/>
      <point x="81" y="170"/>
      <point x="51" y="128" type="curve" smooth="yes"/>
      <point x="47" y="123"/>
      <point x="1" y="94"/>
      <point x="5" y="99" type="curve" smooth="yes"/>
      <point x="88" y="216"/>
      <point x="180" y="335"/>
      <point x="220" y="403" type="curve" smooth="yes"/>
      <point x="261" y="472"/>
      <point x="283" y="513"/>
      <point x="353" y="513" type="curve" smooth="yes"/>
      <point x="389" y="513"/>
      <point x="471" y="485"/>
      <point x="512" y="485" type="curve" smooth="yes"/>
      <point x="580" y="485"/>
      <point x="580" y="395"/>
      <point x="512" y="395" type="curve" smooth="yes"/>
      <point x="452" y="395"/>
      <point x="378" y="423"/>
      <point x="353" y="423" type="curve" smooth="yes"/>
      <point x="329" y="423"/>
      <point x="312" y="381"/>
      <point x="298" y="357" type="curve" smooth="yes"/>
      <point x="255" y="285"/>
      <point x="166" y="170"/>
      <point x="79" y="47" type="curve" smooth="yes"/>
      <point x="-8" y="-76"/>
      <point x="-108" y="58"/>
      <point x="-23" y="180" type="curve" smooth="yes"/>
      <point x="7" y="222"/>
      <point x="12" y="230"/>
      <point x="33" y="259" type="curve" smooth="yes"/>
      <point x="87" y="335"/>
      <point x="126" y="371"/>
      <point x="190" y="352" type="curve" smooth="yes"/>
      <point x="225" y="343"/>
      <point x="304" y="312"/>
      <point x="331" y="312" type="curve" smooth="yes"/>
      <point x="399" y="312"/>
      <point x="399" y="222"/>
    </contour>
  </outline>
</glyph>
<glyph name="G" format="2">
  <advance width="461"/>
  <unicode hex="0047"/>
  <outline>
    <contour>
      <point x="574" y="389" type="curve" smooth="yes"/>
      <point x="552" y="392"/>
      <point x="513" y="400"/>
      <point x="483" y="400" type="curve" smooth="yes"/>
      <point x="375" y="399"/>
      <point x="245" y="310"/>
      <point x="171" y="203" type="curve" smooth="yes"/>
      <point x="113" y="122"/>
      <point x="92" y="58"/>
      <point x="172" y="58" type="curve" smooth="yes"/>
      <point x="223" y="58"/>
      <point x="276" y="101"/>
      <point x="294" y="129" type="curve" smooth="yes"/>
      <point x="320" y="168"/>
      <point x="334" y="197"/>
      <point x="371" y="240" type="curve" smooth="yes"/>
      <point x="373" y="242"/>
      <point x="413" y="191"/>
      <point x="411" y="191" type="curve" smooth="yes"/>
      <point x="377" y="191"/>
      <point x="343" y="191"/>
      <point x="327" y="191" type="curve" smooth="yes"/>
      <point x="260" y="191"/>
      <point x="260" y="281"/>
      <point x="327" y="281" type="curve" smooth="yes"/>
      <point x="351" y="281"/>
      <point x="388" y="281"/>
      <point x="411" y="281" type="curve" smooth="yes"/>
      <point x="470" y="281"/>
      <point x="507" y="259"/>
      <point x="439" y="180" type="curve" smooth="yes"/>
      <point x="408" y="145"/>
      <point x="392" y="113"/>
      <point x="370" y="79" type="curve" smooth="yes"/>
      <point x="338" y="31"/>
      <point x="259" y="-32"/>
      <point x="172" y="-32" type="curve" smooth="yes"/>
      <point x="16" y="-32"/>
      <point x="-14" y="100"/>
      <point x="97" y="255" type="curve" smooth="yes"/>
      <point x="191" y="388"/>
      <point x="347" y="489"/>
      <point x="483" y="490" type="curve" smooth="yes"/>
      <point x="524" y="490"/>
      <point x="554" y="482"/>
      <point x="584" y="479" type="curve" smooth="yes"/>
      <point x="651" y="471"/>
      <point x="641" y="382"/>
    </contour>
  </outline>
</glyph>
<glyph name="H" format="2">
  <advance width="486"/>
  <unicode hex="0048"/>
  <outline>
    <contour>
      <point x="341" y="453" type="curve" smooth="yes"/>
      <point x="327" y="398"/>
      <point x="305" y="367"/>
      <point x="283" y="335" type="curve" smooth="yes"/>
      <point x="234" y="265"/>
      <point x="152" y="149"/>
      <point x="86" y="57" type="curve" smooth="yes"/>
      <point x="-17" y="-90"/>
      <point x="-104" y="65"/>
      <point x="-14" y="192" type="curve" smooth="yes"/>
      <point x="14" y="231"/>
      <point x="37" y="262"/>
      <point x="55" y="288" type="curve" smooth="yes"/>
      <point x="97" y="347"/>
      <point x="156" y="371"/>
      <point x="200" y="371" type="curve" smooth="yes"/>
      <point x="274" y="371"/>
      <point x="333" y="371"/>
      <point x="383" y="371" type="curve" smooth="yes"/>
      <point x="413" y="371"/>
      <point x="435" y="388"/>
      <point x="454" y="415" type="curve" smooth="yes"/>
      <point x="473" y="440"/>
      <point x="490" y="466"/>
      <point x="507" y="490" type="curve" smooth="yes"/>
      <point x="604" y="627"/>
      <point x="702" y="489"/>
      <point x="606" y="354" type="curve" smooth="yes"/>
      <point x="541" y="261"/>
      <point x="433" y="108"/>
      <point x="410" y="76" type="curve" smooth="yes"/>
      <point x="380" y="35"/>
      <point x="358" y="7"/>
      <point x="320" y="-3" type="curve" smooth="yes"/>
      <point x="255" y="-21"/>
      <point x="231" y="66"/>
      <point x="296" y="83" type="curve" smooth="yes"/>
      <point x="307" y="86"/>
      <point x="328" y="116"/>
      <point x="336" y="128" type="curve" smooth="yes"/>
      <point x="359" y="160"/>
      <point x="467" y="313"/>
      <point x="532" y="406" type="curve" smooth="yes"/>
      <point x="537" y="412"/>
      <point x="585" y="445"/>
      <point x="581" y="440" type="curve" smooth="yes"/>
      <point x="564" y="414"/>
      <point x="545" y="388"/>
      <point x="528" y="365" type="curve" smooth="yes"/>
      <point x="491" y="310"/>
      <point x="441" y="281"/>
      <point x="383" y="281" type="curve" smooth="yes"/>
      <point x="309" y="281"/>
      <point x="250" y="281"/>
      <point x="200" y="281" type="curve" smooth="yes"/>
      <point x="178" y="281"/>
      <point x="149" y="265"/>
      <point x="129" y="236" type="curve" smooth="yes"/>
      <point x="101" y="197"/>
      <point x="78" y="166"/>
      <point x="60" y="140" type="curve" smooth="yes"/>
      <point x="56" y="134"/>
      <point x="7" y="102"/>
      <point x="12" y="109" type="curve" smooth="yes"/>
      <point x="78" y="201"/>
      <point x="160" y="317"/>
      <point x="209" y="387" type="curve" smooth="yes"/>
      <point x="227" y="411"/>
      <point x="243" y="434"/>
      <point x="255" y="477" type="curve" smooth="yes"/>
      <point x="272" y="542"/>
      <point x="359" y="519"/>
    </contour>
  </outline>
</glyph>
<glyph name="J" format="2">
  <advance width="316"/>
  <unicode hex="004A"/>
  <outline>
    <contour>
      <point x="11" y="83" type="curve" smooth="yes"/>
      <point x="25" y="69"/>
      <point x="38.0" y="62.0"/>
      <point x="53" y="62" type="curve" smooth="yes"/>
      <point x="103" y="60"/>
      <point x="158" y="101"/>
      <point x="199" y="159" type="curve" smooth="yes"/>
      <point x="248" y="227"/>
      <point x="282" y="275"/>
      <point x="330" y="344" type="curve" smooth="yes"/>
      <point x="357" y="382"/>
      <point x="387" y="430"/>
      <point x="406" y="478" type="curve" smooth="yes"/>
      <point x="430" y="541"/>
      <point x="514" y="509"/>
      <point x="490" y="446" type="curve" smooth="yes"/>
      <point x="469" y="390"/>
      <point x="435" y="336"/>
      <point x="404" y="292" type="curve" smooth="yes"/>
      <point x="356" y="223"/>
      <point x="322" y="175"/>
      <point x="273" y="107" type="curve" smooth="yes"/>
      <point x="210" y="18"/>
      <point x="128" y="-30"/>
      <point x="52" y="-28" type="curve"/>
      <point x="17" y="-28"/>
      <point x="-19" y="-15"/>
      <point x="-53" y="21" type="curve" smooth="yes"/>
      <point x="-100" y="70"/>
      <point x="-35" y="132"/>
    </contour>
  </outline>
</glyph>
<glyph name="K" format="2">
  <advance width="417"/>
  <unicode hex="004B"/>
  <outline>
    <contour>
      <point x="346" y="438" type="curve" smooth="yes"/>
      <point x="326" y="389"/>
      <point x="303" y="356"/>
      <point x="279" y="322" type="curve" smooth="yes"/>
      <point x="218" y="236"/>
      <point x="158" y="151"/>
      <point x="98" y="66" type="curve" smooth="yes"/>
      <point x="72" y="30"/>
      <point x="47" y="4"/>
      <point x="20" y="-7" type="curve" smooth="yes"/>
      <point x="-42" y="-34"/>
      <point x="-77" y="49"/>
      <point x="-14" y="75" type="curve" smooth="yes"/>
      <point x="-5" y="79"/>
      <point x="16" y="106"/>
      <point x="24" y="118" type="curve" smooth="yes"/>
      <point x="84" y="203"/>
      <point x="144" y="288"/>
      <point x="205" y="374" type="curve" smooth="yes"/>
      <point x="225" y="402"/>
      <point x="246" y="431"/>
      <point x="262" y="472" type="curve" smooth="yes"/>
      <point x="287" y="534"/>
      <point x="371" y="501"/>
    </contour>
    <contour>
      <point x="605" y="422" type="curve" smooth="yes"/>
      <point x="557" y="378"/>
      <point x="508" y="346"/>
      <point x="455" y="321" type="curve" smooth="yes"/>
      <point x="410" y="300"/>
      <point x="317" y="262"/>
      <point x="268" y="257" type="curve" smooth="yes"/>
      <point x="242" y="255"/>
      <point x="248" y="255"/>
      <point x="255" y="235" type="curve" smooth="yes"/>
      <point x="275" y="180"/>
      <point x="309" y="83"/>
      <point x="325" y="30" type="curve" smooth="yes"/>
      <point x="345" y="-34"/>
      <point x="259" y="-61"/>
      <point x="239" y="4" type="curve" smooth="yes"/>
      <point x="223" y="55"/>
      <point x="189" y="152"/>
      <point x="171" y="205" type="curve" smooth="yes"/>
      <point x="139" y="291"/>
      <point x="146" y="337"/>
      <point x="260" y="347" type="curve" smooth="yes"/>
      <point x="295" y="350"/>
      <point x="384" y="388"/>
      <point x="417" y="403" type="curve" smooth="yes"/>
      <point x="462" y="424"/>
      <point x="503" y="450"/>
      <point x="543" y="488" type="curve" smooth="yes"/>
      <point x="593" y="534"/>
      <point x="654" y="468"/>
    </contour>
  </outline>
</glyph>
<glyph name="L" format="2">
  <advance width="352"/>
  <unicode hex="004C"/>
  <outline>
    <contour>
      <point x="210" y="-22" type="curve" smooth="yes"/>
      <point x="158" y="-22"/>
      <point x="104" y="13"/>
      <point x="63" y="13" type="curve" smooth="yes"/>
      <point x="-46" y="13"/>
      <point x="-51" y="21"/>
      <point x="48" y="160" type="curve" smooth="yes"/>
      <point x="113" y="251"/>
      <point x="164" y="324"/>
      <point x="207" y="385" type="curve" smooth="yes"/>
      <point x="225" y="410"/>
      <point x="244" y="435"/>
      <point x="258" y="474" type="curve" smooth="yes"/>
      <point x="281" y="537"/>
      <point x="366" y="506"/>
      <point x="342" y="442" type="curve" smooth="yes"/>
      <point x="324" y="395"/>
      <point x="303" y="364"/>
      <point x="281" y="333" type="curve" smooth="yes"/>
      <point x="216" y="242"/>
      <point x="165" y="169"/>
      <point x="122" y="108" type="curve" smooth="yes"/>
      <point x="117" y="101"/>
      <point x="58" y="103"/>
      <point x="63" y="103" type="curve" smooth="yes"/>
      <point x="127" y="103"/>
      <point x="177" y="68"/>
      <point x="210" y="68" type="curve" smooth="yes"/>
      <point x="278" y="68"/>
      <point x="278" y="-22"/>
    </contour>
  </outline>
</glyph>
<glyph name="M" format="2">
  <advance width="572"/>
  <unicode hex="004D"/>
  <outline>
    <contour>
      <point x="376" y="78" type="curve" smooth="yes"/>
      <point x="391" y="86"/>
      <point x="411" y="116"/>
      <point x="424" y="133" type="curve" smooth="yes"/>
      <point x="451" y="172"/>
      <point x="476" y="245"/>
      <point x="499" y="305" type="curve" smooth="yes"/>
      <point x="522" y="364"/>
      <point x="543" y="401"/>
      <point x="583" y="470" type="curve" smooth="yes"/>
      <point x="695" y="659"/>
      <point x="798" y="500"/>
      <point x="610" y="328" type="curve" smooth="yes"/>
      <point x="566" y="288"/>
      <point x="520" y="244"/>
      <point x="474" y="201" type="curve" smooth="yes"/>
      <point x="420" y="152"/>
      <point x="366" y="111"/>
      <point x="315" y="72" type="curve" smooth="yes"/>
      <point x="181" y="-31"/>
      <point x="126" y="40"/>
      <point x="165" y="176" type="curve" smooth="yes"/>
      <point x="179" y="228"/>
      <point x="194" y="280"/>
      <point x="210" y="331" type="curve" smooth="yes"/>
      <point x="224" y="375"/>
      <point x="238" y="420"/>
      <point x="251" y="461" type="curve" smooth="yes"/>
      <point x="263" y="497"/>
      <point x="513" y="652"/>
      <point x="289" y="334" type="curve" smooth="yes"/>
      <point x="260" y="293"/>
      <point x="230" y="250"/>
      <point x="200" y="208" type="curve" smooth="yes"/>
      <point x="167" y="161"/>
      <point x="134" y="115"/>
      <point x="102" y="70" type="curve" smooth="yes"/>
      <point x="78" y="37"/>
      <point x="52" y="12"/>
      <point x="25" y="-4" type="curve" smooth="yes"/>
      <point x="-35" y="-36"/>
      <point x="-78" y="43"/>
      <point x="-19" y="76" type="curve" smooth="yes"/>
      <point x="-2" y="84"/>
      <point x="15" y="103"/>
      <point x="28" y="122" type="curve" smooth="yes"/>
      <point x="60" y="167"/>
      <point x="93" y="213"/>
      <point x="126" y="260" type="curve" smooth="yes"/>
      <point x="157" y="303"/>
      <point x="187" y="346"/>
      <point x="215" y="386" type="curve" smooth="yes"/>
      <point x="244" y="427"/>
      <point x="430" y="713"/>
      <point x="337" y="433" type="curve" smooth="yes"/>
      <point x="324" y="392"/>
      <point x="310" y="349"/>
      <point x="296" y="303" type="curve" smooth="yes"/>
      <point x="280" y="254"/>
      <point x="265" y="202"/>
      <point x="251" y="152" type="curve" smooth="yes"/>
      <point x="246" y="133"/>
      <point x="242" y="130"/>
      <point x="261" y="144" type="curve" smooth="yes"/>
      <point x="310" y="181"/>
      <point x="362" y="220"/>
      <point x="412" y="267" type="curve" smooth="yes"/>
      <point x="458" y="310"/>
      <point x="506" y="354"/>
      <point x="550" y="394" type="curve" smooth="yes"/>
      <point x="559" y="403"/>
      <point x="666" y="434"/>
      <point x="661" y="424" type="curve" smooth="yes"/>
      <point x="623" y="361"/>
      <point x="604" y="326"/>
      <point x="583" y="273" type="curve" smooth="yes"/>
      <point x="554" y="199"/>
      <point x="531" y="130"/>
      <point x="496" y="79" type="curve" smooth="yes"/>
      <point x="470" y="44"/>
      <point x="450" y="16"/>
      <point x="418" y="-2" type="curve" smooth="yes"/>
      <point x="359" y="-34"/>
      <point x="316" y="45"/>
    </contour>
  </outline>
</glyph>
<glyph name="N" format="2">
  <advance width="486"/>
  <unicode hex="004E"/>
  <outline>
    <contour>
      <point x="-25" y="74" type="curve" smooth="yes"/>
      <point x="-6" y="86"/>
      <point x="13" y="111"/>
      <point x="30" y="133" type="curve" smooth="yes"/>
      <point x="66" y="186"/>
      <point x="119" y="260"/>
      <point x="166" y="327" type="curve" smooth="yes"/>
      <point x="186" y="355"/>
      <point x="205" y="382"/>
      <point x="221" y="405" type="curve" smooth="yes"/>
      <point x="235" y="424"/>
      <point x="328" y="676"/>
      <point x="331" y="477" type="curve" smooth="yes"/>
      <point x="332" y="459"/>
      <point x="332" y="438"/>
      <point x="332" y="414" type="curve"/>
      <point x="331" y="354"/>
      <point x="329" y="281"/>
      <point x="329" y="221" type="curve" smooth="yes"/>
      <point x="329" y="198"/>
      <point x="328" y="177"/>
      <point x="328" y="161" type="curve" smooth="yes"/>
      <point x="328" y="157"/>
      <point x="323" y="111"/>
      <point x="327" y="117" type="curve" smooth="yes"/>
      <point x="338" y="132"/>
      <point x="352" y="152"/>
      <point x="369" y="177" type="curve" smooth="yes"/>
      <point x="415" y="242"/>
      <point x="476" y="328"/>
      <point x="514" y="382" type="curve" smooth="yes"/>
      <point x="533" y="408"/>
      <point x="551" y="437"/>
      <point x="566" y="476" type="curve" smooth="yes"/>
      <point x="589" y="539"/>
      <point x="674" y="508"/>
      <point x="650" y="444" type="curve" smooth="yes"/>
      <point x="633" y="397"/>
      <point x="611" y="361"/>
      <point x="588" y="330" type="curve" smooth="yes"/>
      <point x="550" y="276"/>
      <point x="489" y="190"/>
      <point x="443" y="125" type="curve" smooth="yes"/>
      <point x="426" y="102"/>
      <point x="412" y="80"/>
      <point x="401" y="65" type="curve" smooth="yes"/>
      <point x="310" y="-62"/>
      <point x="240" y="62"/>
      <point x="238" y="161" type="curve" smooth="yes"/>
      <point x="238" y="179"/>
      <point x="239" y="200"/>
      <point x="239" y="221" type="curve" smooth="yes"/>
      <point x="239" y="281"/>
      <point x="241" y="354"/>
      <point x="242" y="414" type="curve"/>
      <point x="242" y="436"/>
      <point x="242" y="457"/>
      <point x="241" y="475" type="curve" smooth="yes"/>
      <point x="241" y="490"/>
      <point x="473" y="607"/>
      <point x="295" y="353" type="curve" smooth="yes"/>
      <point x="279" y="330"/>
      <point x="260" y="303"/>
      <point x="240" y="275" type="curve" smooth="yes"/>
      <point x="194" y="210"/>
      <point x="141" y="136"/>
      <point x="102" y="81" type="curve" smooth="yes"/>
      <point x="77" y="45"/>
      <point x="52" y="16"/>
      <point x="23" y="-2" type="curve" smooth="yes"/>
      <point x="-34" y="-38"/>
      <point x="-82" y="38"/>
    </contour>
  </outline>
</glyph>
<glyph name="O" format="2">
  <advance width="518"/>
  <unicode hex="004F"/>
  <outline>
    <contour>
      <point x="148" y="-3" type="curve" smooth="yes"/>
      <point x="108" y="-17"/>
      <point x="79" y="-8"/>
      <point x="57" y="16" type="curve" smooth="yes"/>
      <point x="20" y="57"/>
      <point x="19" y="145"/>
      <point x="97" y="255" type="curve" smooth="yes"/>
      <point x="196" y="395"/>
      <point x="355" y="489"/>
      <point x="483" y="489" type="curve" smooth="yes"/>
      <point x="630" y="489"/>
      <point x="676" y="366"/>
      <point x="562" y="203" type="curve" smooth="yes"/>
      <point x="500" y="117"/>
      <point x="419" y="40"/>
      <point x="332" y="7" type="curve" smooth="yes"/>
      <point x="288" y="-9"/>
      <point x="249" y="-14"/>
      <point x="208" y="-5" type="curve" smooth="yes"/>
      <point x="142" y="9"/>
      <point x="160" y="97"/>
      <point x="226" y="83" type="curve" smooth="yes"/>
      <point x="251" y="78"/>
      <point x="274" y="81"/>
      <point x="300" y="91" type="curve" smooth="yes"/>
      <point x="371" y="118"/>
      <point x="438" y="186"/>
      <point x="488" y="255" type="curve" smooth="yes"/>
      <point x="548" y="340"/>
      <point x="560" y="399"/>
      <point x="483" y="399" type="curve" smooth="yes"/>
      <point x="381" y="399"/>
      <point x="250" y="315"/>
      <point x="171" y="203" type="curve" smooth="yes"/>
      <point x="143" y="164"/>
      <point x="111" y="90"/>
      <point x="123" y="76" type="curve" smooth="yes"/>
      <point x="124" y="76"/>
      <point x="117" y="81"/>
      <point x="118" y="81" type="curve" smooth="yes"/>
      <point x="182" y="104"/>
      <point x="212" y="19"/>
    </contour>
  </outline>
</glyph>
<glyph name="P" format="2">
  <advance width="393"/>
  <unicode hex="0050"/>
  <outline>
    <contour>
      <point x="217" y="258" type="curve" smooth="yes"/>
      <point x="231" y="252"/>
      <point x="246" y="248"/>
      <point x="266" y="247" type="curve" smooth="yes"/>
      <point x="322" y="240"/>
      <point x="386" y="295"/>
      <point x="422" y="357" type="curve" smooth="yes"/>
      <point x="450" y="406"/>
      <point x="452" y="433"/>
      <point x="402" y="440" type="curve" smooth="yes"/>
      <point x="382" y="443"/>
      <point x="364" y="444"/>
      <point x="345" y="444" type="curve" smooth="yes"/>
      <point x="341" y="444"/>
      <point x="298" y="357"/>
      <point x="296" y="354" type="curve" smooth="yes"/>
      <point x="234" y="266"/>
      <point x="166" y="170"/>
      <point x="110" y="91" type="curve" smooth="yes"/>
      <point x="83" y="52"/>
      <point x="58" y="19"/>
      <point x="26" y="-4" type="curve" smooth="yes"/>
      <point x="-29" y="-43"/>
      <point x="-81" y="31"/>
      <point x="-26" y="70" type="curve" smooth="yes"/>
      <point x="-4" y="85"/>
      <point x="18" y="116"/>
      <point x="36" y="143" type="curve" smooth="yes"/>
      <point x="92" y="222"/>
      <point x="160" y="318"/>
      <point x="222" y="406" type="curve" smooth="yes"/>
      <point x="280" y="486"/>
      <point x="263" y="534"/>
      <point x="345" y="534" type="curve" smooth="yes"/>
      <point x="368" y="534"/>
      <point x="390" y="533"/>
      <point x="416" y="530" type="curve" smooth="yes"/>
      <point x="527" y="513"/>
      <point x="563" y="424"/>
      <point x="500" y="313" type="curve" smooth="yes"/>
      <point x="442" y="211"/>
      <point x="345" y="146"/>
      <point x="258" y="157" type="curve" smooth="yes"/>
      <point x="228" y="160"/>
      <point x="203" y="166"/>
      <point x="181" y="176" type="curve" smooth="yes"/>
      <point x="119" y="203"/>
      <point x="156" y="286"/>
    </contour>
  </outline>
</glyph>
<glyph name="R" format="2">
  <advance width="421"/>
  <unicode hex="0052"/>
  <outline>
    <contour>
      <point x="-14" y="83" type="curve" smooth="yes"/>
      <point x="-4" y="86"/>
      <point x="23" y="123"/>
      <point x="28" y="131" type="curve" smooth="yes"/>
      <point x="64" y="182"/>
      <point x="146" y="298"/>
      <point x="205" y="381" type="curve" smooth="yes"/>
      <point x="269" y="471"/>
      <point x="273" y="513"/>
      <point x="344" y="513" type="curve" smooth="yes"/>
      <point x="366" y="513"/>
      <point x="385" y="513"/>
      <point x="403" y="513" type="curve" smooth="yes"/>
      <point x="514" y="513"/>
      <point x="560" y="401"/>
      <point x="492" y="302" type="curve" smooth="yes"/>
      <point x="437" y="219"/>
      <point x="342" y="171"/>
      <point x="261" y="171" type="curve" smooth="yes"/>
      <point x="235" y="171" type="line" smooth="yes"/>
      <point x="110" y="171"/>
      <point x="87" y="346"/>
      <point x="210" y="346" type="curve" smooth="yes"/>
      <point x="282" y="346"/>
      <point x="310" y="300"/>
      <point x="321" y="221" type="curve" smooth="yes"/>
      <point x="333" y="120"/>
      <point x="335" y="46"/>
      <point x="320" y="14" type="curve" smooth="yes"/>
      <point x="292" y="-47"/>
      <point x="210" y="-10"/>
      <point x="238" y="52" type="curve" smooth="yes"/>
      <point x="245" y="66"/>
      <point x="237" y="165"/>
      <point x="231" y="209" type="curve" smooth="yes"/>
      <point x="229" y="229"/>
      <point x="228" y="256"/>
      <point x="210" y="256" type="curve" smooth="yes"/>
      <point x="205" y="256"/>
      <point x="230" y="261"/>
      <point x="235" y="261" type="curve" smooth="yes"/>
      <point x="261" y="261" type="line" smooth="yes"/>
      <point x="314" y="261"/>
      <point x="381" y="297"/>
      <point x="418" y="352" type="curve" smooth="yes"/>
      <point x="442" y="387"/>
      <point x="442" y="423"/>
      <point x="403" y="423" type="curve" smooth="yes"/>
      <point x="376" y="423"/>
      <point x="359" y="423"/>
      <point x="344" y="423" type="curve" smooth="yes"/>
      <point x="334" y="423"/>
      <point x="287" y="341"/>
      <point x="279" y="329" type="curve" smooth="yes"/>
      <point x="220" y="246"/>
      <point x="138" y="130"/>
      <point x="102" y="79" type="curve" smooth="yes"/>
      <point x="79" y="47"/>
      <point x="50" y="7"/>
      <point x="10" y="-3" type="curve" smooth="yes"/>
      <point x="-55" y="-21"/>
      <point x="-79" y="66"/>
    </contour>
  </outline>
</glyph>
<glyph name="T" format="2">
  <advance width="352"/>
  <unicode hex="0054"/>
  <outline>
    <contour>
      <point x="516" y="392" type="curve" smooth="yes"/>
      <point x="438" y="392"/>
      <point x="371" y="392"/>
      <point x="319" y="392" type="curve" smooth="yes"/>
      <point x="178" y="392"/>
      <point x="159" y="569"/>
      <point x="287" y="569" type="curve" smooth="yes"/>
      <point x="368" y="569"/>
      <point x="416" y="465"/>
      <point x="364" y="344" type="curve" smooth="yes"/>
      <point x="326" y="258"/>
      <point x="253" y="160"/>
      <point x="214" y="104" type="curve" smooth="yes"/>
      <point x="163" y="33"/>
      <point x="138" y="6"/>
      <point x="115" y="-7" type="curve" smooth="yes"/>
      <point x="58" y="-43"/>
      <point x="11" y="34"/>
      <point x="69" y="69" type="curve" smooth="yes"/>
      <point x="81" y="77"/>
      <point x="111" y="116"/>
      <point x="140" y="156" type="curve" smooth="yes"/>
      <point x="175" y="206"/>
      <point x="248" y="304"/>
      <point x="282" y="380" type="curve" smooth="yes"/>
      <point x="292" y="405"/>
      <point x="304" y="479"/>
      <point x="287" y="479" type="curve" smooth="yes"/>
      <point x="282" y="479"/>
      <point x="313" y="482"/>
      <point x="319" y="482" type="curve" smooth="yes"/>
      <point x="397" y="482"/>
      <point x="464" y="482"/>
      <point x="516" y="482" type="curve" smooth="yes"/>
      <point x="584" y="482"/>
      <point x="584" y="392"/>
    </contour>
  </outline>
</glyph>
<glyph name="U" format="2">
  <advance width="472"/>
  <unicode hex="0055"/>
  <outline>
    <contour>
      <point x="339" y="451" type="curve" smooth="yes"/>
      <point x="325" y="397"/>
      <point x="290" y="349"/>
      <point x="270" y="320" type="curve" smooth="yes"/>
      <point x="225" y="256"/>
      <point x="196" y="215"/>
      <point x="152" y="152" type="curve" smooth="yes"/>
      <point x="115" y="101"/>
      <point x="100" y="59"/>
      <point x="147" y="65" type="curve" smooth="yes"/>
      <point x="226" y="74"/>
      <point x="329" y="120"/>
      <point x="388" y="204" type="curve" smooth="yes"/>
      <point x="432" y="267"/>
      <point x="461" y="308"/>
      <point x="506" y="371" type="curve" smooth="yes"/>
      <point x="520" y="391"/>
      <point x="551" y="434"/>
      <point x="560" y="472" type="curve" smooth="yes"/>
      <point x="576" y="538"/>
      <point x="663" y="517"/>
      <point x="648" y="452" type="curve" smooth="yes"/>
      <point x="635" y="398"/>
      <point x="600" y="349"/>
      <point x="580" y="319" type="curve" smooth="yes"/>
      <point x="535" y="256"/>
      <point x="506" y="215"/>
      <point x="462" y="152" type="curve" smooth="yes"/>
      <point x="385" y="44"/>
      <point x="258" y="-12"/>
      <point x="157" y="-25" type="curve" smooth="yes"/>
      <point x="35" y="-39"/>
      <point x="-17" y="69"/>
      <point x="78" y="204" type="curve" smooth="yes"/>
      <point x="122" y="267"/>
      <point x="151" y="308"/>
      <point x="196" y="370" type="curve" smooth="yes"/>
      <point x="210" y="391"/>
      <point x="241" y="435"/>
      <point x="251" y="473" type="curve" smooth="yes"/>
      <point x="268" y="539"/>
      <point x="356" y="516"/>
    </contour>
  </outline>
</glyph>
<glyph name="Y" format="2">
  <advance width="412"/>
  <unicode hex="0059"/>
  <outline>
    <contour>
      <point x="607" y="428" type="curve" smooth="yes"/>
      <point x="574" y="385"/>
      <point x="540" y="357"/>
      <point x="503" y="326" type="curve" smooth="yes"/>
      <point x="439" y="271"/>
      <point x="391" y="238"/>
      <point x="327" y="186" type="curve" smooth="yes"/>
      <point x="295" y="160"/>
      <point x="261" y="130"/>
      <point x="237" y="95" type="curve" smooth="yes"/>
      <point x="225" y="80"/>
      <point x="217" y="68"/>
      <point x="197" y="40" type="curve" smooth="yes"/>
      <point x="115" y="-78"/>
      <point x="14" y="57"/>
      <point x="102" y="181" type="curve" smooth="yes"/>
      <point x="119" y="204"/>
      <point x="128" y="218"/>
      <point x="140" y="234" type="curve" smooth="yes"/>
      <point x="169" y="275"/>
      <point x="192" y="291"/>
      <point x="200" y="317" type="curve" smooth="yes"/>
      <point x="210" y="351"/>
      <point x="217" y="396"/>
      <point x="229" y="463" type="curve" smooth="yes"/>
      <point x="241" y="529"/>
      <point x="329" y="513"/>
      <point x="317" y="447" type="curve" smooth="yes"/>
      <point x="303" y="370"/>
      <point x="298" y="331"/>
      <point x="286" y="291" type="curve" smooth="yes"/>
      <point x="266" y="224"/>
      <point x="290" y="289"/>
      <point x="212" y="180" type="curve" smooth="yes"/>
      <point x="200" y="164"/>
      <point x="191" y="152"/>
      <point x="176" y="129" type="curve" smooth="yes"/>
      <point x="172" y="124"/>
      <point x="121" y="88"/>
      <point x="125" y="94" type="curve" smooth="yes"/>
      <point x="144" y="120"/>
      <point x="153" y="132"/>
      <point x="163" y="147" type="curve" smooth="yes"/>
      <point x="193" y="190"/>
      <point x="231" y="224"/>
      <point x="271" y="256" type="curve" smooth="yes"/>
      <point x="335" y="308"/>
      <point x="381" y="341"/>
      <point x="445" y="394" type="curve" smooth="yes"/>
      <point x="476" y="421"/>
      <point x="508" y="447"/>
      <point x="535" y="482" type="curve" smooth="yes"/>
      <point x="576" y="536"/>
      <point x="648" y="481"/>
    </contour>
  </outline>
</glyph>
<glyph name="Z" format="2">
  <advance width="421"/>
  <unicode hex="005A"/>
  <outline>
    <contour>
      <point x="300" y="495" type="curve" smooth="yes"/>
      <point x="333" y="487"/>
      <point x="404" y="482"/>
      <point x="446" y="482" type="curve" smooth="yes"/>
      <point x="469" y="482"/>
      <point x="478" y="483"/>
      <point x="503" y="485" type="curve" smooth="yes"/>
      <point x="507" y="485"/>
      <point x="503" y="432"/>
      <point x="497" y="427" type="curve" smooth="yes"/>
      <point x="458" y="401"/>
      <point x="442" y="390"/>
      <point x="410" y="368" type="curve" smooth="yes"/>
      <point x="364" y="335"/>
      <point x="204" y="223"/>
      <point x="158" y="190" type="curve" smooth="yes"/>
      <point x="127" y="169"/>
      <point x="98" y="150"/>
      <point x="73" y="131" type="curve" smooth="yes"/>
      <point x="35" y="104"/>
      <point x="22" y="72"/>
      <point x="56" y="69" type="curve" smooth="yes"/>
      <point x="82" y="66"/>
      <point x="94" y="65"/>
      <point x="122" y="65" type="curve" smooth="yes"/>
      <point x="164" y="65"/>
      <point x="210" y="65"/>
      <point x="252" y="77" type="curve" smooth="yes"/>
      <point x="317" y="96"/>
      <point x="342" y="10"/>
      <point x="278" y="-9" type="curve" smooth="yes"/>
      <point x="225" y="-25"/>
      <point x="174" y="-25"/>
      <point x="122" y="-25" type="curve" smooth="yes"/>
      <point x="90" y="-25"/>
      <point x="74" y="-24"/>
      <point x="48" y="-21" type="curve" smooth="yes"/>
      <point x="-61" y="-12"/>
      <point x="-100" y="118"/>
      <point x="19" y="203" type="curve" smooth="yes"/>
      <point x="46" y="224"/>
      <point x="71" y="239"/>
      <point x="106" y="264" type="curve" smooth="yes"/>
      <point x="152" y="297"/>
      <point x="312" y="409"/>
      <point x="360" y="442" type="curve" smooth="yes"/>
      <point x="392" y="464"/>
      <point x="408" y="475"/>
      <point x="445" y="501" type="curve" smooth="yes"/>
      <point x="601" y="611"/>
      <point x="648" y="410"/>
      <point x="509" y="395" type="curve" smooth="yes"/>
      <point x="482" y="393"/>
      <point x="471" y="392"/>
      <point x="446" y="392" type="curve" smooth="yes"/>
      <point x="394" y="392"/>
      <point x="317" y="397"/>
      <point x="276" y="409" type="curve" smooth="yes"/>
      <point x="211" y="426"/>
      <point x="235" y="513"/>
    </contour>
  </outline>
</glyph>
<glyph name="bracketleft" format="2">
  <advance width="304"/>
  <unicode hex="005B"/>
  <outline>
    <contour>
      <point x="481" y="462" type="curve" smooth="yes"/>
      <point x="368" y="519"/>
      <point x="385" y="447"/>
      <point x="324" y="360" type="curve" smooth="yes"/>
      <point x="224" y="218"/>
      <point x="182" y="160"/>
      <point x="66" y="-5" type="curve" smooth="yes"/>
      <point x="44" y="-36"/>
      <point x="64" y="-28"/>
      <point x="104" y="-49" type="curve" smooth="yes"/>
      <point x="164" y="-80"/>
      <point x="122" y="-160"/>
      <point x="62" y="-129" type="curve" smooth="yes"/>
      <point x="-135" y="-26"/>
      <point x="-118" y="-108"/>
      <point x="-8" y="47" type="curve" smooth="yes"/>
      <point x="92" y="189"/>
      <point x="134" y="247"/>
      <point x="250" y="412" type="curve" smooth="yes"/>
      <point x="350" y="554"/>
      <point x="338" y="636"/>
      <point x="521" y="542" type="curve" smooth="yes"/>
      <point x="582" y="511"/>
      <point x="541" y="431"/>
    </contour>
  </outline>
</glyph>
<glyph name="backslash" format="2">
  <advance width="346"/>
  <unicode hex="005C"/>
  <outline>
    <contour>
      <point x="75" y="-40" type="curve" smooth="yes"/>
      <point x="88" y="-28"/>
      <point x="99" y="-2"/>
      <point x="108" y="21" type="curve" smooth="yes"/>
      <point x="159" y="156"/>
      <point x="214" y="299"/>
      <point x="269" y="445" type="curve" smooth="yes"/>
      <point x="277" y="467"/>
      <point x="284" y="495"/>
      <point x="288" y="533" type="curve" smooth="yes"/>
      <point x="296" y="600"/>
      <point x="386" y="590"/>
      <point x="378" y="523" type="curve" smooth="yes"/>
      <point x="372" y="477"/>
      <point x="363" y="443"/>
      <point x="353" y="413" type="curve" smooth="yes"/>
      <point x="302" y="279"/>
      <point x="247" y="136"/>
      <point x="192" y="-9" type="curve" smooth="yes"/>
      <point x="177" y="-51"/>
      <point x="160" y="-84"/>
      <point x="137" y="-106" type="curve" smooth="yes"/>
      <point x="88" y="-152"/>
      <point x="26" y="-87"/>
    </contour>
  </outline>
</glyph>
<glyph name="bracketright" format="2">
  <advance width="304"/>
  <unicode hex="005D"/>
  <outline>
    <contour>
      <point x="-101" y="-44" type="curve" smooth="yes"/>
      <point x="31" y="-44" type="line"/>
      <point x="-6" y="-63" type="line"/>
      <point x="412" y="528" type="line"/>
      <point x="449" y="457" type="line"/>
      <point x="317" y="457" type="line" smooth="yes"/>
      <point x="250" y="457"/>
      <point x="250" y="547"/>
      <point x="317" y="547" type="curve" smooth="yes"/>
      <point x="449" y="547" type="line" smooth="yes"/>
      <point x="486" y="547"/>
      <point x="507" y="506"/>
      <point x="486" y="476" type="curve" smooth="yes"/>
      <point x="68" y="-115" type="line" smooth="yes"/>
      <point x="59" y="-127"/>
      <point x="46" y="-134"/>
      <point x="31" y="-134" type="curve" smooth="yes"/>
      <point x="-101" y="-134" type="line" smooth="yes"/>
      <point x="-168" y="-134"/>
      <point x="-168" y="-44"/>
    </contour>
  </outline>
</glyph>
<glyph name="underscore" format="2">
  <advance width="379"/>
  <unicode hex="005F"/>
  <outline>
    <contour>
      <point x="237" y="-109" type="curve" smooth="yes"/>
      <point x="82" y="-109"/>
      <point x="-41" y="-109"/>
      <point x="-144" y="-109" type="curve" smooth="yes"/>
      <point x="-211" y="-109"/>
      <point x="-211" y="-19"/>
      <point x="-144" y="-19" type="curve" smooth="yes"/>
      <point x="10" y="-19"/>
      <point x="133" y="-19"/>
      <point x="237" y="-19" type="curve" smooth="yes"/>
      <point x="305" y="-19"/>
      <point x="305" y="-109"/>
    </contour>
  </outline>
</glyph>
<glyph name="grave" format="2">
  <advance width="288"/>
  <unicode hex="0060"/>
  <outline>
    <contour>
      <point x="326" y="413" type="curve" smooth="yes"/>
      <point x="323" y="437"/>
      <point x="320" y="460"/>
      <point x="312" y="498" type="curve" smooth="yes"/>
      <point x="298" y="564"/>
      <point x="387" y="582"/>
      <point x="400" y="516" type="curve" smooth="yes"/>
      <point x="408" y="476"/>
      <point x="413" y="449"/>
      <point x="416" y="423" type="curve" smooth="yes"/>
      <point x="424" y="356"/>
      <point x="334" y="346"/>
    </contour>
  </outline>
</glyph>
<glyph name="a" format="2">
  <advance width="412"/>
  <unicode hex="0061"/>
  <outline>
    <contour>
      <point x="478" y="378" type="curve" smooth="yes"/>
      <point x="452" y="304"/>
      <point x="417" y="288"/>
      <point x="360" y="208" type="curve" smooth="yes"/>
      <point x="284" y="99"/>
      <point x="216" y="-14"/>
      <point x="123" y="-32" type="curve" smooth="yes"/>
      <point x="12" y="-53"/>
      <point x="-45" y="60"/>
      <point x="46" y="190" type="curve" smooth="yes"/>
      <point x="119" y="293"/>
      <point x="235" y="361"/>
      <point x="328" y="361" type="curve" smooth="yes"/>
      <point x="439" y="361"/>
      <point x="487" y="257"/>
      <point x="399" y="133" type="curve" smooth="yes"/>
      <point x="381" y="107"/>
      <point x="351" y="66"/>
      <point x="337" y="46" type="curve" smooth="yes"/>
      <point x="316" y="15"/>
      <point x="293" y="-10"/>
      <point x="264" y="-22" type="curve" smooth="yes"/>
      <point x="202" y="-49"/>
      <point x="166" y="34"/>
      <point x="228" y="60" type="curve" smooth="yes"/>
      <point x="240" y="65"/>
      <point x="254" y="84"/>
      <point x="265" y="100" type="curve" smooth="yes"/>
      <point x="279" y="118"/>
      <point x="307" y="159"/>
      <point x="325" y="185" type="curve" smooth="yes"/>
      <point x="359" y="233"/>
      <point x="371" y="271"/>
      <point x="328" y="271" type="curve" smooth="yes"/>
      <point x="261" y="271"/>
      <point x="172" y="212"/>
      <point x="120" y="138" type="curve" smooth="yes"/>
      <point x="94" y="102"/>
      <point x="75" y="51"/>
      <point x="105" y="56" type="curve" smooth="yes"/>
      <point x="162" y="67"/>
      <point x="240" y="193"/>
      <point x="286" y="260" type="curve" smooth="yes"/>
      <point x="324" y="313"/>
      <point x="376" y="360"/>
      <point x="394" y="408" type="curve" smooth="yes"/>
      <point x="417" y="472"/>
      <point x="501" y="441"/>
    </contour>
  </outline>
</glyph>
<glyph name="c" format="2">
  <advance width="335"/>
  <unicode hex="0063"/>
  <outline>
    <contour>
      <point x="197" y="31" type="curve" smooth="yes"/>
      <point x="161" y="31"/>
      <point x="116" y="30"/>
      <point x="88" y="31" type="curve" smooth="yes"/>
      <point x="-51" y="33"/>
      <point x="-70" y="121"/>
      <point x="105" y="121" type="curve" smooth="yes"/>
      <point x="218" y="121"/>
      <point x="330" y="121"/>
      <point x="391" y="121" type="curve" smooth="yes"/>
      <point x="424" y="121"/>
      <point x="447" y="121"/>
      <point x="452" y="121" type="curve" smooth="yes"/>
      <point x="520" y="121"/>
      <point x="520" y="31"/>
      <point x="452" y="31" type="curve" smooth="yes"/>
      <point x="445" y="31"/>
      <point x="413" y="31"/>
      <point x="391" y="31" type="curve" smooth="yes"/>
      <point x="301" y="31"/>
      <point x="181" y="31"/>
      <point x="105" y="31" type="curve" smooth="yes"/>
      <point x="98" y="31"/>
      <point x="85" y="121"/>
      <point x="92" y="121" type="curve" smooth="yes"/>
      <point x="118" y="120"/>
      <point x="159" y="121"/>
      <point x="197" y="121" type="curve" smooth="yes"/>
      <point x="265" y="121"/>
      <point x="265" y="31"/>
    </contour>
  </outline>
</glyph>
<glyph name="d" format="2">
  <advance width="412"/>
  <unicode hex="0064"/>
  <outline>
    <contour>
      <point x="617" y="472" type="curve" smooth="yes"/>
      <point x="604" y="440"/>
      <point x="587" y="413"/>
      <point x="561" y="383" type="curve" smooth="yes"/>
      <point x="479" y="292"/>
      <point x="436" y="324"/>
      <point x="361" y="217" type="curve" smooth="yes"/>
      <point x="282" y="107"/>
      <point x="213" y="-12"/>
      <point x="118" y="-29" type="curve" smooth="yes"/>
      <point x="7" y="-50"/>
      <point x="-49" y="64"/>
      <point x="42" y="193" type="curve" smooth="yes"/>
      <point x="116" y="295"/>
      <point x="231" y="363"/>
      <point x="324" y="363" type="curve" smooth="yes"/>
      <point x="435" y="363"/>
      <point x="482" y="261"/>
      <point x="395" y="135" type="curve" smooth="yes"/>
      <point x="376" y="109"/>
      <point x="348" y="69"/>
      <point x="334" y="49" type="curve" smooth="yes"/>
      <point x="313" y="22"/>
      <point x="295" y="-2"/>
      <point x="273" y="-20" type="curve" smooth="yes"/>
      <point x="221" y="-64"/>
      <point x="163" y="5"/>
      <point x="215" y="48" type="curve" smooth="yes"/>
      <point x="231" y="62"/>
      <point x="247" y="83"/>
      <point x="260" y="101" type="curve" smooth="yes"/>
      <point x="274" y="121"/>
      <point x="302" y="161"/>
      <point x="321" y="187" type="curve" smooth="yes"/>
      <point x="354" y="235"/>
      <point x="367" y="273"/>
      <point x="324" y="273" type="curve" smooth="yes"/>
      <point x="257" y="273"/>
      <point x="168" y="214"/>
      <point x="116" y="141" type="curve" smooth="yes"/>
      <point x="90" y="105"/>
      <point x="71" y="53"/>
      <point x="102" y="59" type="curve" smooth="yes"/>
      <point x="157" y="69"/>
      <point x="241" y="205"/>
      <point x="287" y="269" type="curve" smooth="yes"/>
      <point x="376" y="396"/>
      <point x="425" y="366"/>
      <point x="493" y="443" type="curve" smooth="yes"/>
      <point x="513" y="465"/>
      <point x="524" y="484"/>
      <point x="535" y="508" type="curve" smooth="yes"/>
      <point x="561" y="570"/>
      <point x="644" y="534"/>
    </contour>
  </outline>
</glyph>
<glyph name="e" format="2">
  <advance width="388"/>
  <unicode hex="0065"/>
  <outline>
    <contour>
      <point x="146" y="253" type="curve" smooth="yes"/>
      <point x="189" y="227"/>
      <point x="197" y="259"/>
      <point x="270" y="259" type="curve" smooth="yes"/>
      <point x="274" y="259"/>
      <point x="342" y="234"/>
      <point x="344" y="237" type="curve" smooth="yes"/>
      <point x="357" y="263"/>
      <point x="358" y="271"/>
      <point x="331" y="271" type="curve" smooth="yes"/>
      <point x="263" y="271"/>
      <point x="175" y="214"/>
      <point x="121" y="138" type="curve" smooth="yes"/>
      <point x="82" y="83"/>
      <point x="76" y="57"/>
      <point x="123" y="57" type="curve" smooth="yes"/>
      <point x="150" y="57"/>
      <point x="186" y="66"/>
      <point x="223" y="100" type="curve" smooth="yes"/>
      <point x="273" y="145"/>
      <point x="333" y="78"/>
      <point x="283" y="32" type="curve" smooth="yes"/>
      <point x="224" y="-20"/>
      <point x="166" y="-33"/>
      <point x="123" y="-33" type="curve" smooth="yes"/>
      <point x="9" y="-33"/>
      <point x="-47" y="58"/>
      <point x="47" y="190" type="curve" smooth="yes"/>
      <point x="121" y="295"/>
      <point x="237" y="361"/>
      <point x="331" y="361" type="curve" smooth="yes"/>
      <point x="427" y="361"/>
      <point x="471" y="288"/>
      <point x="424" y="195" type="curve" smooth="yes"/>
      <point x="382" y="115"/>
      <point x="375" y="169"/>
      <point x="270" y="169" type="curve" smooth="yes"/>
      <point x="229" y="169"/>
      <point x="176" y="130"/>
      <point x="100" y="175" type="curve" smooth="yes"/>
      <point x="42" y="210"/>
      <point x="88" y="287"/>
    </contour>
  </outline>
</glyph>
<glyph name="f" format="2">
  <advance width="258"/>
  <unicode hex="0066"/>
  <outline>
    <contour>
      <point x="475" y="469" type="curve" smooth="yes"/>
      <point x="452" y="460"/>
      <point x="379" y="433"/>
      <point x="340" y="378" type="curve" smooth="yes"/>
      <point x="270" y="279"/>
      <point x="186" y="160"/>
      <point x="146" y="103" type="curve" smooth="yes"/>
      <point x="114" y="58"/>
      <point x="82" y="16"/>
      <point x="50" y="-3" type="curve" smooth="yes"/>
      <point x="-8" y="-39"/>
      <point x="-55" y="38"/>
      <point x="2" y="73" type="curve" smooth="yes"/>
      <point x="22" y="85"/>
      <point x="53" y="127"/>
      <point x="72" y="155" type="curve" smooth="yes"/>
      <point x="112" y="212"/>
      <point x="196" y="331"/>
      <point x="266" y="430" type="curve" smooth="yes"/>
      <point x="321" y="507"/>
      <point x="412" y="542"/>
      <point x="445" y="553" type="curve" smooth="yes"/>
      <point x="508" y="576"/>
      <point x="539" y="491"/>
    </contour>
    <contour>
      <point x="333" y="294" type="curve" smooth="yes"/>
      <point x="301" y="294"/>
      <point x="272" y="302"/>
      <point x="244" y="318" type="curve" smooth="yes"/>
      <point x="234" y="324"/>
      <point x="223" y="329"/>
      <point x="216" y="323" type="curve" smooth="yes"/>
      <point x="198" y="306"/>
      <point x="183" y="294"/>
      <point x="154" y="294" type="curve" smooth="yes"/>
      <point x="87" y="294"/>
      <point x="87" y="384"/>
      <point x="154" y="384" type="curve" smooth="yes"/>
      <point x="155" y="384"/>
      <point x="156" y="390"/>
      <point x="158" y="391" type="curve" smooth="yes"/>
      <point x="193" y="421"/>
      <point x="237" y="425"/>
      <point x="288" y="396" type="curve" smooth="yes"/>
      <point x="302" y="388"/>
      <point x="317" y="384"/>
      <point x="333" y="384" type="curve" smooth="yes"/>
      <point x="401" y="384"/>
      <point x="401" y="294"/>
    </contour>
  </outline>
</glyph>
<glyph name="i" format="2">
  <advance width="163"/>
  <unicode hex="0069"/>
  <outline>
    <contour>
      <point x="-35" y="68" type="curve" smooth="yes"/>
      <point x="-15" y="84"/>
      <point x="4" y="108"/>
      <point x="22" y="134" type="curve" smooth="yes"/>
      <point x="51" y="174"/>
      <point x="79" y="214"/>
      <point x="106" y="252" type="curve" smooth="yes"/>
      <point x="126" y="280"/>
      <point x="144" y="309"/>
      <point x="161" y="347" type="curve" smooth="yes"/>
      <point x="188" y="409"/>
      <point x="270" y="373"/>
      <point x="243" y="311" type="curve" smooth="yes"/>
      <point x="224" y="267"/>
      <point x="202" y="232"/>
      <point x="180" y="200" type="curve" smooth="yes"/>
      <point x="151" y="160"/>
      <point x="123" y="120"/>
      <point x="96" y="82" type="curve" smooth="yes"/>
      <point x="72" y="48"/>
      <point x="48" y="19"/>
      <point x="21" y="-2" type="curve" smooth="yes"/>
      <point x="-32" y="-44"/>
      <point x="-88" y="26"/>
    </contour>
    <contour>
      <point x="280" y="493" type="curve" smooth="yes"/>
      <point x="280" y="493"/>
      <point x="272" y="491"/>
      <point x="273" y="493" type="curve" smooth="yes"/>
      <point x="292" y="557"/>
      <point x="378" y="532"/>
      <point x="359" y="467" type="curve" smooth="yes"/>
      <point x="348" y="431"/>
      <point x="328" y="414"/>
      <point x="308" y="407" type="curve" smooth="yes"/>
      <point x="244" y="386"/>
      <point x="216" y="471"/>
    </contour>
  </outline>
</glyph>
<glyph name="l" format="2">
  <advance width="163"/>
  <unicode hex="006C"/>
  <outline>
    <contour>
      <point x="-26" y="82" type="curve" smooth="yes"/>
      <point x="-8" y="89"/>
      <point x="15" y="122"/>
      <point x="29" y="143" type="curve" smooth="yes"/>
      <point x="97" y="239"/>
      <point x="161" y="330"/>
      <point x="223" y="418" type="curve" smooth="yes"/>
      <point x="241" y="443"/>
      <point x="263" y="473"/>
      <point x="278" y="512" type="curve" smooth="yes"/>
      <point x="302" y="575"/>
      <point x="386" y="543"/>
      <point x="362" y="480" type="curve" smooth="yes"/>
      <point x="343" y="431"/>
      <point x="319" y="397"/>
      <point x="297" y="366" type="curve" smooth="yes"/>
      <point x="229" y="270"/>
      <point x="165" y="179"/>
      <point x="103" y="91" type="curve" smooth="yes"/>
      <point x="73" y="48"/>
      <point x="47" y="14"/>
      <point x="8" y="-2" type="curve" smooth="yes"/>
      <point x="-54" y="-27"/>
      <point x="-89" y="56"/>
    </contour>
  </outline>
</glyph>
<glyph name="m" format="2">
  <advance width="586"/>
  <unicode hex="006D"/>
  <outline>
    <contour>
      <point x="240" y="324" type="curve" smooth="yes"/>
      <point x="225" y="268"/>
      <point x="202" y="235"/>
      <point x="180" y="204" type="curve" smooth="yes"/>
      <point x="167" y="185"/>
      <point x="110" y="104"/>
      <point x="75" y="55" type="curve" smooth="yes"/>
      <point x="-21" y="-82"/>
      <point x="-119" y="55"/>
      <point x="-23" y="194" type="curve" smooth="yes"/>
      <point x="1" y="228"/>
      <point x="23" y="259"/>
      <point x="51" y="298" type="curve" smooth="yes"/>
      <point x="125" y="401"/>
      <point x="246" y="386"/>
      <point x="340" y="362" type="curve" smooth="yes"/>
      <point x="423" y="340"/>
      <point x="459" y="292"/>
      <point x="380" y="179" type="curve" smooth="yes"/>
      <point x="361" y="153"/>
      <point x="335" y="117"/>
      <point x="316" y="89" type="curve" smooth="yes"/>
      <point x="189" y="-91"/>
      <point x="91" y="45"/>
      <point x="217" y="225" type="curve" smooth="yes"/>
      <point x="237" y="253"/>
      <point x="245" y="264"/>
      <point x="269" y="298" type="curve" smooth="yes"/>
      <point x="342" y="401"/>
      <point x="463" y="386"/>
      <point x="557" y="362" type="curve" smooth="yes"/>
      <point x="640" y="340"/>
      <point x="677" y="292"/>
      <point x="597" y="179" type="curve" smooth="yes"/>
      <point x="578" y="152"/>
      <point x="552" y="116"/>
      <point x="532" y="88" type="curve" smooth="yes"/>
      <point x="503" y="46"/>
      <point x="477" y="13"/>
      <point x="438" y="-2" type="curve" smooth="yes"/>
      <point x="375" y="-26"/>
      <point x="343" y="58"/>
      <point x="406" y="82" type="curve" smooth="yes"/>
      <point x="423" y="89"/>
      <point x="446" y="121"/>
      <point x="460" y="142" type="curve" smooth="yes"/>
      <point x="480" y="168"/>
      <point x="504" y="204"/>
      <point x="523" y="231" type="curve" smooth="yes"/>
      <point x="544" y="260"/>
      <point x="556" y="269"/>
      <point x="535" y="274" type="curve" smooth="yes"/>
      <point x="476" y="290"/>
      <point x="388" y="310"/>
      <point x="343" y="246" type="curve" smooth="yes"/>
      <point x="319" y="212"/>
      <point x="311" y="201"/>
      <point x="291" y="173" type="curve" smooth="yes"/>
      <point x="284" y="164"/>
      <point x="236" y="131"/>
      <point x="242" y="141" type="curve" smooth="yes"/>
      <point x="261" y="167"/>
      <point x="287" y="203"/>
      <point x="306" y="231" type="curve" smooth="yes"/>
      <point x="326" y="259"/>
      <point x="338" y="269"/>
      <point x="318" y="274" type="curve" smooth="yes"/>
      <point x="259" y="290"/>
      <point x="170" y="310"/>
      <point x="125" y="246" type="curve" smooth="yes"/>
      <point x="97" y="207"/>
      <point x="75" y="176"/>
      <point x="51" y="142" type="curve" smooth="yes"/>
      <point x="47" y="136"/>
      <point x="-3" y="101"/>
      <point x="1" y="107" type="curve" smooth="yes"/>
      <point x="36" y="156"/>
      <point x="93" y="237"/>
      <point x="106" y="256" type="curve" smooth="yes"/>
      <point x="124" y="281"/>
      <point x="141" y="305"/>
      <point x="154" y="348" type="curve" smooth="yes"/>
      <point x="172" y="413"/>
      <point x="259" y="389"/>
    </contour>
  </outline>
</glyph>
<glyph name="n" format="2">
  <advance width="402"/>
  <unicode hex="006E"/>
  <outline>
    <contour>
      <point x="228" y="81" type="curve" smooth="yes"/>
      <point x="245" y="86"/>
      <point x="267" y="119"/>
      <point x="280" y="137" type="curve" smooth="yes"/>
      <point x="300" y="166"/>
      <point x="320" y="195"/>
      <point x="339" y="222" type="curve" smooth="yes"/>
      <point x="368" y="262"/>
      <point x="373" y="260"/>
      <point x="335" y="274" type="curve" smooth="yes"/>
      <point x="262" y="302"/>
      <point x="172" y="304"/>
      <point x="120" y="230" type="curve" smooth="yes"/>
      <point x="92" y="190"/>
      <point x="80" y="173"/>
      <point x="56" y="139" type="curve" smooth="yes"/>
      <point x="51" y="133"/>
      <point x="3" y="100"/>
      <point x="7" y="106" type="curve" smooth="yes"/>
      <point x="41" y="155"/>
      <point x="98" y="235"/>
      <point x="112" y="253" type="curve" smooth="yes"/>
      <point x="128" y="278"/>
      <point x="146" y="302"/>
      <point x="158" y="345" type="curve" smooth="yes"/>
      <point x="175" y="410"/>
      <point x="262" y="387"/>
      <point x="244" y="321" type="curve" smooth="yes"/>
      <point x="230" y="266"/>
      <point x="208" y="234"/>
      <point x="184" y="201" type="curve" smooth="yes"/>
      <point x="172" y="183"/>
      <point x="115" y="103"/>
      <point x="81" y="54" type="curve" smooth="yes"/>
      <point x="-17" y="-83"/>
      <point x="-115" y="55"/>
      <point x="-18" y="191" type="curve" smooth="yes"/>
      <point x="6" y="225"/>
      <point x="18" y="242"/>
      <point x="46" y="282" type="curve" smooth="yes"/>
      <point x="124" y="392"/>
      <point x="257" y="400"/>
      <point x="367" y="358" type="curve" smooth="yes"/>
      <point x="468" y="320"/>
      <point x="489" y="276"/>
      <point x="413" y="170" type="curve" smooth="yes"/>
      <point x="394" y="143"/>
      <point x="374" y="114"/>
      <point x="354" y="87" type="curve" smooth="yes"/>
      <point x="324" y="43"/>
      <point x="297" y="9"/>
      <point x="258" y="-5" type="curve" smooth="yes"/>
      <point x="194" y="-27"/>
      <point x="165" y="59"/>
    </contour>
  </outline>
</glyph>
<glyph name="o" format="2">
  <advance width="409"/>
  <unicode hex="006F"/>
  <outline>
    <contour>
      <point x="72.89464179575798" y="-3.5065598921549324" type="curve" smooth="yes"/>
      <point x="26.292355981414012" y="-0.5557208553388121"/>
      <point x="-3.3553910762587034" y="25.465726249668933"/>
      <point x="1.0775175628554479" y="77.07438450396415" type="curve" smooth="yes"/>
      <point x="3.438133468760131" y="104.55706675067835"/>
      <point x="16.18652848269152" y="146.12682094326226"/>
      <point x="47.50713084798907" y="190.4208415899609" type="curve" smooth="yes"/>
      <point x="119.29167918053541" y="291.9395234106749"/>
      <point x="238.8927728127259" y="360.76093065034894"/>
      <point x="335.49926035179243" y="360.76093065034894" type="curve" smooth="yes"/>
      <point x="453.1893686047671" y="360.76093065034894"/>
      <point x="496.914586799874" y="261.0943881475069"/>
      <point x="410.19849663678235" y="138.45931736289458" type="curve" smooth="yes"/>
      <point x="382.04932572555305" y="98.65037809067601"/>
      <point x="347.61734527228083" y="61.02534464377889"/>
      <point x="307.1149963903474" y="35.752905053970515" type="curve" smooth="yes"/>
      <point x="259.4037020627254" y="5.982266142106247"/>
      <point x="217.4738723838541" y="-1.0619592740232873"/>
      <point x="162.6307467360383" y="-3.550254669344625" type="curve" smooth="yes"/>
      <point x="95.20011540706867" y="-6.609659607658187"/>
      <point x="91.12090882265056" y="83.29784883096801"/>
      <point x="158.5515401516202" y="86.35725376928157" type="curve" smooth="yes"/>
      <point x="197.03413175845532" y="88.1032530055438"/>
      <point x="225.99310933297227" y="91.21831095733397"/>
      <point x="259.4714027919175" y="112.10791791512881" type="curve" smooth="yes"/>
      <point x="289.39744284616523" y="130.7810087434615"/>
      <point x="315.91517811462285" y="161.0071422845132"/>
      <point x="336.71380435328695" y="190.4208415899609" type="curve" smooth="yes"/>
      <point x="370.80586028365127" y="238.63428945586432"/>
      <point x="381.7686175779418" y="270.76093065034894"/>
      <point x="335.49926035179243" y="270.76093065034894" type="curve" smooth="yes"/>
      <point x="265.3693228114943" y="270.76093065034894"/>
      <point x="173.1026701269741" y="212.15518393066534"/>
      <point x="120.99182313148441" y="138.45931736289458" type="curve" smooth="yes"/>
      <point x="102.55955005249301" y="112.39214678922045"/>
      <point x="92.13656811549438" y="85.5458699114497"/>
      <point x="90.74733822442256" y="69.37222490276207" type="curve" smooth="yes"/>
      <point x="90.58710797552078" y="67.5067977462874"/>
      <point x="76.89754890647978" y="86.42021891040515"/>
      <point x="78.58201760712912" y="86.31355899209188" type="curve" smooth="yes"/>
      <point x="145.94710677031424" y="82.04802713356351"/>
      <point x="140.25973095894307" y="-7.772091750683305"/>
    </contour>
  </outline>
</glyph>
<glyph name="p" format="2">
  <advance width="412"/>
  <unicode hex="0070"/>
  <outline>
    <contour>
      <point x="-110" y="-33" type="curve" smooth="yes"/>
      <point x="-93" y="-28"/>
      <point x="-72" y="4"/>
      <point x="-59" y="22" type="curve" smooth="yes"/>
      <point x="-20" y="78"/>
      <point x="21" y="135"/>
      <point x="62" y="194" type="curve" smooth="yes"/>
      <point x="134" y="296"/>
      <point x="249" y="363"/>
      <point x="342" y="363" type="curve" smooth="yes"/>
      <point x="455" y="363"/>
      <point x="498" y="265"/>
      <point x="410" y="140" type="curve" smooth="yes"/>
      <point x="335" y="35"/>
      <point x="203" y="-10"/>
      <point x="101" y="21" type="curve" smooth="yes"/>
      <point x="-20" y="58"/>
      <point x="-50" y="189"/>
      <point x="43" y="276" type="curve" smooth="yes"/>
      <point x="82" y="312"/>
      <point x="111" y="354"/>
      <point x="132" y="410" type="curve" smooth="yes"/>
      <point x="155" y="474"/>
      <point x="239" y="443"/>
      <point x="216" y="380" type="curve" smooth="yes"/>
      <point x="191" y="310"/>
      <point x="154" y="256"/>
      <point x="105" y="210" type="curve" smooth="yes"/>
      <point x="62" y="171"/>
      <point x="72" y="124"/>
      <point x="127" y="107" type="curve" smooth="yes"/>
      <point x="195" y="86"/>
      <point x="287" y="122"/>
      <point x="336" y="192" type="curve" smooth="yes"/>
      <point x="369" y="239"/>
      <point x="384" y="273"/>
      <point x="342" y="273" type="curve" smooth="yes"/>
      <point x="275" y="273"/>
      <point x="188" y="216"/>
      <point x="136" y="142" type="curve" smooth="yes"/>
      <point x="97" y="87"/>
      <point x="56" y="30"/>
      <point x="15" y="-28" type="curve" smooth="yes"/>
      <point x="-15" y="-72"/>
      <point x="-41" y="-105"/>
      <point x="-80" y="-119" type="curve" smooth="yes"/>
      <point x="-144" y="-141"/>
      <point x="-173" y="-55"/>
    </contour>
  </outline>
</glyph>
<glyph name="q" format="2">
  <advance width="412"/>
  <unicode hex="0071"/>
  <outline>
    <contour>
      <point x="105" y="-10" type="curve" smooth="yes"/>
      <point x="123" y="32"/>
      <point x="143" y="65"/>
      <point x="164" y="95" type="curve" smooth="yes"/>
      <point x="191" y="133"/>
      <point x="236" y="198"/>
      <point x="280" y="255" type="curve" smooth="yes"/>
      <point x="287" y="264"/>
      <point x="346" y="270"/>
      <point x="341" y="268" type="curve" smooth="yes"/>
      <point x="277" y="249"/>
      <point x="170" y="218"/>
      <point x="116" y="140" type="curve" smooth="yes"/>
      <point x="83" y="94"/>
      <point x="68" y="60"/>
      <point x="109" y="60" type="curve" smooth="yes"/>
      <point x="176" y="60"/>
      <point x="265" y="118"/>
      <point x="317" y="192" type="curve" smooth="yes"/>
      <point x="359" y="252"/>
      <point x="393" y="299"/>
      <point x="414" y="347" type="curve" smooth="yes"/>
      <point x="440" y="409"/>
      <point x="523" y="373"/>
      <point x="496" y="311" type="curve" smooth="yes"/>
      <point x="473" y="257"/>
      <point x="439" y="208"/>
      <point x="391" y="140" type="curve" smooth="yes"/>
      <point x="319" y="38"/>
      <point x="202" y="-30"/>
      <point x="109" y="-30" type="curve" smooth="yes"/>
      <point x="-3" y="-30"/>
      <point x="-47" y="68"/>
      <point x="42" y="192" type="curve" smooth="yes"/>
      <point x="112" y="292"/>
      <point x="233" y="329"/>
      <point x="313" y="354" type="curve" smooth="yes"/>
      <point x="423" y="389"/>
      <point x="482" y="366"/>
      <point x="352" y="201" type="curve" smooth="yes"/>
      <point x="308" y="144"/>
      <point x="263" y="79"/>
      <point x="238" y="45" type="curve" smooth="yes"/>
      <point x="221" y="19"/>
      <point x="203" y="-8"/>
      <point x="189" y="-44" type="curve" smooth="yes"/>
      <point x="163" y="-107"/>
      <point x="80" y="-72"/>
    </contour>
  </outline>
</glyph>
<glyph name="s" format="2">
  <advance width="326"/>
  <unicode hex="0073"/>
  <outline>
    <contour>
      <point x="355" y="265" type="curve" smooth="yes"/>
      <point x="336" y="266"/>
      <point x="311" y="273"/>
      <point x="289" y="273" type="curve" smooth="yes"/>
      <point x="250" y="273"/>
      <point x="204" y="254"/>
      <point x="181" y="220" type="curve" smooth="yes"/>
      <point x="178" y="216"/>
      <point x="196" y="212"/>
      <point x="198" y="211" type="curve" smooth="yes"/>
      <point x="257" y="197"/>
      <point x="318" y="157"/>
      <point x="260" y="73" type="curve" smooth="yes"/>
      <point x="218" y="15"/>
      <point x="153" y="-30"/>
      <point x="85" y="-30" type="curve" smooth="yes"/>
      <point x="39" y="-30"/>
      <point x="-8" y="-1"/>
      <point x="-44" y="45" type="curve" smooth="yes"/>
      <point x="-86" y="98"/>
      <point x="-15" y="154"/>
      <point x="26" y="101" type="curve" smooth="yes"/>
      <point x="41" y="82"/>
      <point x="66" y="60"/>
      <point x="85" y="60" type="curve" smooth="yes"/>
      <point x="123" y="60"/>
      <point x="164" y="93"/>
      <point x="186" y="123" type="curve" smooth="yes"/>
      <point x="189" y="127"/>
      <point x="178" y="124"/>
      <point x="174" y="125" type="curve" smooth="yes"/>
      <point x="114" y="142"/>
      <point x="52" y="194"/>
      <point x="107" y="272" type="curve" smooth="yes"/>
      <point x="148" y="330"/>
      <point x="220" y="363"/>
      <point x="289" y="363" type="curve" smooth="yes"/>
      <point x="321" y="363"/>
      <point x="347" y="356"/>
      <point x="361" y="355" type="curve" smooth="yes"/>
      <point x="428" y="351"/>
      <point x="423" y="261"/>
    </contour>
  </outline>
</glyph>
<glyph name="t" format="2">
  <advance width="238"/>
  <unicode hex="0074"/>
  <outline>
    <contour>
      <point x="6" y="81" type="curve" smooth="yes"/>
      <point x="22" y="88"/>
      <point x="35" y="102"/>
      <point x="57" y="134" type="curve" smooth="yes"/>
      <point x="111" y="211"/>
      <point x="146" y="259"/>
      <point x="206" y="344" type="curve" smooth="yes"/>
      <point x="230" y="377"/>
      <point x="246" y="405"/>
      <point x="262" y="436" type="curve" smooth="yes"/>
      <point x="291" y="496"/>
      <point x="372" y="457"/>
      <point x="342" y="396" type="curve" smooth="yes"/>
      <point x="326" y="361"/>
      <point x="306" y="331"/>
      <point x="280" y="292" type="curve" smooth="yes"/>
      <point x="221" y="209"/>
      <point x="186" y="161"/>
      <point x="131" y="82" type="curve" smooth="yes"/>
      <point x="93" y="28"/>
      <point x="71" y="11"/>
      <point x="44" y="-1" type="curve" smooth="yes"/>
      <point x="-18" y="-29"/>
      <point x="-55" y="53"/>
    </contour>
    <contour>
      <point x="310" y="298" type="curve" smooth="yes"/>
      <point x="289" y="298"/>
      <point x="270" y="305"/>
      <point x="246" y="317" type="curve" smooth="yes"/>
      <point x="238" y="321"/>
      <point x="222" y="328"/>
      <point x="217" y="324" type="curve" smooth="yes"/>
      <point x="201" y="309"/>
      <point x="180" y="298"/>
      <point x="153" y="298" type="curve" smooth="yes"/>
      <point x="86" y="298"/>
      <point x="86" y="388"/>
      <point x="153" y="388" type="curve" smooth="yes"/>
      <point x="154" y="388"/>
      <point x="156" y="390"/>
      <point x="157" y="390" type="curve" smooth="yes"/>
      <point x="191" y="421"/>
      <point x="236" y="423"/>
      <point x="286" y="397" type="curve" smooth="yes"/>
      <point x="292" y="394"/>
      <point x="305" y="388"/>
      <point x="310" y="388" type="curve" smooth="yes"/>
      <point x="378" y="388"/>
      <point x="378" y="298"/>
    </contour>
  </outline>
</glyph>
<glyph name="u" format="2">
  <advance width="402"/>
  <unicode hex="0075"/>
  <outline>
    <contour>
      <point x="234" y="310" type="curve" smooth="yes"/>
      <point x="195" y="229"/>
      <point x="152" y="174"/>
      <point x="108" y="111" type="curve" smooth="yes"/>
      <point x="89" y="84"/>
      <point x="71" y="60"/>
      <point x="95" y="60" type="curve" smooth="yes"/>
      <point x="163" y="60"/>
      <point x="253" y="116"/>
      <point x="295" y="175" type="curve" smooth="yes"/>
      <point x="314" y="202"/>
      <point x="350" y="254"/>
      <point x="369" y="281" type="curve" smooth="yes"/>
      <point x="374" y="287"/>
      <point x="422" y="319"/>
      <point x="418" y="313" type="curve" smooth="yes"/>
      <point x="391" y="275"/>
      <point x="345" y="210"/>
      <point x="308" y="158" type="curve" smooth="yes"/>
      <point x="286" y="126"/>
      <point x="263" y="94"/>
      <point x="239" y="74" type="curve" smooth="yes"/>
      <point x="188" y="30"/>
      <point x="129" y="99"/>
      <point x="181" y="142" type="curve" smooth="yes"/>
      <point x="197" y="156"/>
      <point x="218" y="187"/>
      <point x="234" y="210" type="curve" smooth="yes"/>
      <point x="273" y="264"/>
      <point x="319" y="329"/>
      <point x="344" y="365" type="curve" smooth="yes"/>
      <point x="439" y="500"/>
      <point x="538" y="364"/>
      <point x="443" y="229" type="curve" smooth="yes"/>
      <point x="424" y="202"/>
      <point x="388" y="152"/>
      <point x="369" y="123" type="curve" smooth="yes"/>
      <point x="309" y="38"/>
      <point x="191" y="-30"/>
      <point x="95" y="-30" type="curve" smooth="yes"/>
      <point x="-5" y="-30"/>
      <point x="-47" y="48"/>
      <point x="34" y="163" type="curve" smooth="yes"/>
      <point x="74" y="220"/>
      <point x="117" y="275"/>
      <point x="152" y="348" type="curve" smooth="yes"/>
      <point x="182" y="409"/>
      <point x="263" y="370"/>
    </contour>
  </outline>
</glyph>
<glyph name="v" format="2">
  <advance width="345"/>
  <unicode hex="0076"/>
  <outline>
    <contour>
      <point x="213" y="322" type="curve" smooth="yes"/>
      <point x="202" y="260"/>
      <point x="194" y="230"/>
      <point x="186" y="203" type="curve" smooth="yes"/>
      <point x="168" y="148"/>
      <point x="156" y="113"/>
      <point x="140" y="58" type="curve" smooth="yes"/>
      <point x="139" y="53"/>
      <point x="119" y="134"/>
      <point x="125" y="139" type="curve" smooth="yes"/>
      <point x="191" y="199"/>
      <point x="245" y="212"/>
      <point x="303" y="258" type="curve" smooth="yes"/>
      <point x="328" y="277"/>
      <point x="353" y="307"/>
      <point x="388" y="356" type="curve" smooth="yes"/>
      <point x="427" y="411"/>
      <point x="501" y="359"/>
      <point x="462" y="304" type="curve" smooth="yes"/>
      <point x="419" y="244"/>
      <point x="390" y="211"/>
      <point x="359" y="186" type="curve" smooth="yes"/>
      <point x="291" y="134"/>
      <point x="243" y="125"/>
      <point x="185" y="73" type="curve" smooth="yes"/>
      <point x="49" y="-51"/>
      <point x="16" y="-46"/>
      <point x="54" y="84" type="curve" smooth="yes"/>
      <point x="70" y="139"/>
      <point x="82" y="176"/>
      <point x="100" y="231" type="curve" smooth="yes"/>
      <point x="108" y="254"/>
      <point x="114" y="282"/>
      <point x="125" y="338" type="curve" smooth="yes"/>
      <point x="137" y="405"/>
      <point x="226" y="388"/>
    </contour>
  </outline>
</glyph>
<glyph name="w" format="2">
  <advance width="513"/>
  <unicode hex="0077"/>
  <outline>
    <contour>
      <point x="221" y="296" type="curve" smooth="yes"/>
      <point x="210" y="267"/>
      <point x="199" y="237"/>
      <point x="188" y="207" type="curve" smooth="yes"/>
      <point x="175" y="171"/>
      <point x="161" y="135"/>
      <point x="147" y="96" type="curve" smooth="yes"/>
      <point x="142" y="77"/>
      <point x="139" y="70"/>
      <point x="133" y="54" type="curve" smooth="yes"/>
      <point x="83" y="-91"/>
      <point x="-62" y="48"/>
      <point x="84" y="189" type="curve" smooth="yes"/>
      <point x="99" y="204"/>
      <point x="106" y="211"/>
      <point x="122" y="226" type="curve" smooth="yes"/>
      <point x="158" y="261"/>
      <point x="193" y="296"/>
      <point x="229" y="332" type="curve" smooth="yes"/>
      <point x="249" y="352"/>
      <point x="256" y="354"/>
      <point x="283" y="373" type="curve" smooth="yes"/>
      <point x="402" y="459"/>
      <point x="444" y="378"/>
      <point x="406" y="255" type="curve" smooth="yes"/>
      <point x="399" y="233"/>
      <point x="396" y="226"/>
      <point x="389" y="208" type="curve" smooth="yes"/>
      <point x="374" y="169"/>
      <point x="360" y="134"/>
      <point x="345" y="100" type="curve"/>
      <point x="340" y="86"/>
      <point x="340" y="79"/>
      <point x="331" y="55" type="curve" smooth="yes"/>
      <point x="286" y="-81"/>
      <point x="131" y="45"/>
      <point x="281" y="187" type="curve" smooth="yes"/>
      <point x="298" y="202"/>
      <point x="305" y="208"/>
      <point x="325" y="229" type="curve" smooth="yes"/>
      <point x="373" y="274"/>
      <point x="410" y="300"/>
      <point x="470" y="317" type="curve" smooth="yes"/>
      <point x="492" y="324"/>
      <point x="529" y="360"/>
      <point x="551" y="380" type="curve" smooth="yes"/>
      <point x="599" y="427"/>
      <point x="662" y="363"/>
      <point x="613" y="316" type="curve" smooth="yes"/>
      <point x="574" y="277"/>
      <point x="535" y="242"/>
      <point x="494" y="231" type="curve" smooth="yes"/>
      <point x="450" y="218"/>
      <point x="423" y="198"/>
      <point x="389" y="165" type="curve" smooth="yes"/>
      <point x="367" y="144"/>
      <point x="360" y="138"/>
      <point x="343" y="121" type="curve" smooth="yes"/>
      <point x="337" y="116"/>
      <point x="245" y="79"/>
      <point x="247" y="85" type="curve" smooth="yes"/>
      <point x="254" y="105"/>
      <point x="254" y="112"/>
      <point x="263" y="136" type="curve" smooth="yes"/>
      <point x="276" y="168"/>
      <point x="290" y="203"/>
      <point x="305" y="240" type="curve" smooth="yes"/>
      <point x="310" y="254"/>
      <point x="315" y="263"/>
      <point x="320" y="281" type="curve" smooth="yes"/>
      <point x="322" y="287"/>
      <point x="341" y="305"/>
      <point x="335" y="301" type="curve" smooth="yes"/>
      <point x="318" y="288"/>
      <point x="306" y="282"/>
      <point x="293" y="268" type="curve" smooth="yes"/>
      <point x="257" y="232"/>
      <point x="222" y="197"/>
      <point x="184" y="160" type="curve" smooth="yes"/>
      <point x="168" y="145"/>
      <point x="161" y="138"/>
      <point x="146" y="125" type="curve" smooth="yes"/>
      <point x="141" y="119"/>
      <point x="46" y="80"/>
      <point x="49" y="88" type="curve" smooth="yes"/>
      <point x="55" y="102"/>
      <point x="56" y="107"/>
      <point x="63" y="126" type="curve" smooth="yes"/>
      <point x="77" y="165"/>
      <point x="91" y="203"/>
      <point x="104" y="237" type="curve" smooth="yes"/>
      <point x="115" y="267"/>
      <point x="126" y="299"/>
      <point x="137" y="328" type="curve" smooth="yes"/>
      <point x="161" y="391"/>
      <point x="245" y="359"/>
    </contour>
  </outline>
</glyph>
<glyph name="x" format="2">
  <advance width="353"/>
  <unicode hex="0078"/>
  <outline>
    <contour>
      <point x="230" y="335" type="curve" smooth="yes"/>
      <point x="234" y="303"/>
      <point x="237" y="276"/>
      <point x="237" y="260" type="curve" smooth="yes"/>
      <point x="237" y="238"/>
      <point x="243" y="157"/>
      <point x="249" y="84" type="curve" smooth="yes"/>
      <point x="251" y="61"/>
      <point x="251" y="44"/>
      <point x="251" y="33" type="curve" smooth="yes"/>
      <point x="251" y="-35"/>
      <point x="161" y="-34"/>
      <point x="161" y="33" type="curve" smooth="yes"/>
      <point x="161" y="42"/>
      <point x="161" y="57"/>
      <point x="159" y="78" type="curve" smooth="yes"/>
      <point x="153" y="159"/>
      <point x="147" y="234"/>
      <point x="147" y="260" type="curve" smooth="yes"/>
      <point x="147" y="272"/>
      <point x="144" y="299"/>
      <point x="140" y="323" type="curve" smooth="yes"/>
      <point x="131" y="389"/>
      <point x="220" y="402"/>
    </contour>
    <contour>
      <point x="447" y="283" type="curve" smooth="yes"/>
      <point x="420" y="256"/>
      <point x="391" y="228"/>
      <point x="364" y="201" type="curve" smooth="yes"/>
      <point x="272" y="113"/>
      <point x="174" y="47"/>
      <point x="91" y="20" type="curve" smooth="yes"/>
      <point x="60" y="10"/>
      <point x="23" y="-9"/>
      <point x="-8" y="-22" type="curve" smooth="yes"/>
      <point x="-70" y="-49"/>
      <point x="-106" y="33"/>
      <point x="-44" y="60" type="curve" smooth="yes"/>
      <point x="-7" y="77"/>
      <point x="26" y="94"/>
      <point x="63" y="106" type="curve" smooth="yes"/>
      <point x="134" y="129"/>
      <point x="222" y="191"/>
      <point x="300" y="265" type="curve" smooth="yes"/>
      <point x="327" y="292"/>
      <point x="356" y="320"/>
      <point x="383" y="347" type="curve" smooth="yes"/>
      <point x="431" y="395"/>
      <point x="495" y="331"/>
    </contour>
    <contour>
      <point x="209" y="404" type="curve" smooth="yes"/>
      <point x="211" y="383"/>
      <point x="212" y="362"/>
      <point x="214" y="341" type="curve" smooth="yes"/>
      <point x="215" y="327"/>
      <point x="215" y="313"/>
      <point x="216" y="301" type="curve" smooth="yes"/>
      <point x="220" y="252"/>
      <point x="206" y="223"/>
      <point x="135" y="175" type="curve" smooth="yes"/>
      <point x="114" y="160"/>
      <point x="92" y="145"/>
      <point x="71" y="132" type="curve" smooth="yes"/>
      <point x="43" y="113"/>
      <point x="6" y="89"/>
      <point x="-26" y="67" type="curve" smooth="yes"/>
      <point x="-81" y="29"/>
      <point x="-132" y="103"/>
      <point x="-76" y="141" type="curve" smooth="yes"/>
      <point x="-44" y="163"/>
      <point x="-7" y="189"/>
      <point x="21" y="206" type="curve" smooth="yes"/>
      <point x="42" y="221"/>
      <point x="64" y="236"/>
      <point x="85" y="249" type="curve" smooth="yes"/>
      <point x="112" y="267"/>
      <point x="128" y="276"/>
      <point x="126" y="295" type="curve" smooth="yes"/>
      <point x="125" y="309"/>
      <point x="125" y="322"/>
      <point x="124" y="333" type="curve" smooth="yes"/>
      <point x="122" y="354"/>
      <point x="121" y="375"/>
      <point x="119" y="396" type="curve" smooth="yes"/>
      <point x="113" y="463"/>
      <point x="202" y="471"/>
    </contour>
  </outline>
</glyph>
<glyph name="y" format="2">
  <advance width="346"/>
  <unicode hex="0079"/>
  <outline>
    <contour>
      <point x="-101" y="19" type="curve" smooth="yes"/>
      <point x="-76" y="40"/>
      <point x="-48" y="64"/>
      <point x="-24" y="86" type="curve" smooth="yes"/>
      <point x="-9" y="99"/>
      <point x="6" y="111"/>
      <point x="18" y="122" type="curve" smooth="yes"/>
      <point x="61" y="159"/>
      <point x="67" y="160"/>
      <point x="93" y="190" type="curve" smooth="yes"/>
      <point x="99" y="198"/>
      <point x="125" y="297"/>
      <point x="131" y="323" type="curve" smooth="yes"/>
      <point x="147" y="388"/>
      <point x="235" y="367"/>
      <point x="219" y="301" type="curve" smooth="yes"/>
      <point x="198" y="218"/>
      <point x="181" y="155"/>
      <point x="161" y="132" type="curve" smooth="yes"/>
      <point x="130" y="95"/>
      <point x="129" y="98"/>
      <point x="78" y="56" type="curve" smooth="yes"/>
      <point x="66" y="45"/>
      <point x="51" y="31"/>
      <point x="36" y="18" type="curve" smooth="yes"/>
      <point x="10" y="-4"/>
      <point x="-18" y="-28"/>
      <point x="-43" y="-49" type="curve" smooth="yes"/>
      <point x="-95" y="-93"/>
      <point x="-153" y="-24"/>
    </contour>
    <contour>
      <point x="462" y="299" type="curve" smooth="yes"/>
      <point x="424" y="249"/>
      <point x="374" y="205"/>
      <point x="345" y="179" type="curve" smooth="yes"/>
      <point x="267" y="111"/>
      <point x="155" y="17"/>
      <point x="103" y="-30" type="curve" smooth="yes"/>
      <point x="88" y="-43"/>
      <point x="73" y="-55"/>
      <point x="59" y="-69" type="curve"/>
      <point x="32" y="-91"/>
      <point x="7" y="-113"/>
      <point x="-18" y="-134" type="curve" smooth="yes"/>
      <point x="-70" y="-178"/>
      <point x="-128" y="-109"/>
      <point x="-76" y="-66" type="curve" smooth="yes"/>
      <point x="-51" y="-45"/>
      <point x="-26" y="-23"/>
      <point x="-3" y="-3" type="curve"/>
      <point x="13" y="11"/>
      <point x="28" y="25"/>
      <point x="43" y="38" type="curve" smooth="yes"/>
      <point x="94" y="83"/>
      <point x="206" y="177"/>
      <point x="285" y="247" type="curve" smooth="yes"/>
      <point x="310" y="269"/>
      <point x="358" y="309"/>
      <point x="390" y="353" type="curve" smooth="yes"/>
      <point x="430" y="407"/>
      <point x="502" y="353"/>
    </contour>
  </outline>
</glyph>
<glyph name="braceleft" format="2">
  <advance width="330"/>
  <unicode hex="007B"/>
  <outline>
    <contour>
      <point x="507" y="456" type="curve" smooth="yes"/>
      <point x="489" y="464"/>
      <point x="467" y="465"/>
      <point x="448" y="460" type="curve" smooth="yes"/>
      <point x="415" y="453"/>
      <point x="384" y="432"/>
      <point x="363" y="403" type="curve" smooth="yes"/>
      <point x="339" y="369"/>
      <point x="317" y="281"/>
      <point x="254" y="262" type="curve" smooth="yes"/>
      <point x="219" y="250"/>
      <point x="174" y="246"/>
      <point x="112" y="246" type="curve" smooth="yes"/>
      <point x="108" y="246"/>
      <point x="133" y="251"/>
      <point x="137" y="251" type="curve" smooth="yes"/>
      <point x="232" y="251"/>
      <point x="249" y="184"/>
      <point x="205" y="120" type="curve" smooth="yes"/>
      <point x="166" y="67"/>
      <point x="81" y="4"/>
      <point x="49" y="-42" type="curve" smooth="yes"/>
      <point x="47" y="-45"/>
      <point x="26" y="-47"/>
      <point x="28" y="-48" type="curve" smooth="yes"/>
      <point x="41" y="-54"/>
      <point x="74" y="-49"/>
      <point x="100" y="-42" type="curve" smooth="yes"/>
      <point x="165" y="-25"/>
      <point x="188" y="-113"/>
      <point x="122" y="-130" type="curve" smooth="yes"/>
      <point x="60" y="-146"/>
      <point x="20" y="-143"/>
      <point x="-6" y="-132" type="curve" smooth="yes"/>
      <point x="-52" y="-113"/>
      <point x="-75" y="-60"/>
      <point x="-25" y="10" type="curve" smooth="yes"/>
      <point x="15" y="66"/>
      <point x="100" y="129"/>
      <point x="131" y="172" type="curve" smooth="yes"/>
      <point x="133" y="174"/>
      <point x="141" y="161"/>
      <point x="137" y="161" type="curve" smooth="yes"/>
      <point x="27" y="161"/>
      <point x="2" y="336"/>
      <point x="112" y="336" type="curve" smooth="yes"/>
      <point x="158" y="336"/>
      <point x="199" y="338"/>
      <point x="228" y="348" type="curve" smooth="yes"/>
      <point x="252" y="355"/>
      <point x="227" y="366"/>
      <point x="289" y="455" type="curve" smooth="yes"/>
      <point x="324" y="504"/>
      <point x="375" y="537"/>
      <point x="426" y="548" type="curve" smooth="yes"/>
      <point x="465" y="557"/>
      <point x="505" y="554"/>
      <point x="541" y="540" type="curve" smooth="yes"/>
      <point x="603" y="514"/>
      <point x="570" y="431"/>
    </contour>
  </outline>
</glyph>
<glyph name="braceright" format="2">
  <advance width="330"/>
  <unicode hex="007D"/>
  <outline>
    <contour>
      <point x="-76" y="-47" type="curve" smooth="yes"/>
      <point x="-56" y="-56"/>
      <point x="-34" y="-56"/>
      <point x="-12" y="-50" type="curve" smooth="yes"/>
      <point x="18" y="-41"/>
      <point x="47" y="-21"/>
      <point x="68" y="8" type="curve" smooth="yes"/>
      <point x="98" y="51"/>
      <point x="101" y="114"/>
      <point x="141" y="170" type="curve" smooth="yes"/>
      <point x="174" y="216"/>
      <point x="223" y="248"/>
      <point x="293" y="248" type="curve" smooth="yes"/>
      <point x="297" y="248"/>
      <point x="272" y="243"/>
      <point x="268" y="243" type="curve" smooth="yes"/>
      <point x="145" y="243"/>
      <point x="163" y="322"/>
      <point x="238" y="345" type="curve" smooth="yes"/>
      <point x="271" y="356"/>
      <point x="352" y="409"/>
      <point x="381" y="452" type="curve" smooth="yes"/>
      <point x="383" y="455"/>
      <point x="402" y="459"/>
      <point x="399" y="459" type="curve" smooth="yes"/>
      <point x="388" y="463"/>
      <point x="359" y="460"/>
      <point x="331" y="452" type="curve" smooth="yes"/>
      <point x="266" y="433"/>
      <point x="242" y="520"/>
      <point x="307" y="538" type="curve" smooth="yes"/>
      <point x="361" y="554"/>
      <point x="401" y="553"/>
      <point x="429" y="545" type="curve" smooth="yes"/>
      <point x="481" y="527"/>
      <point x="505" y="472"/>
      <point x="455" y="400" type="curve" smooth="yes"/>
      <point x="412" y="339"/>
      <point x="315" y="276"/>
      <point x="264" y="259" type="curve" smooth="yes"/>
      <point x="262" y="258"/>
      <point x="264" y="333"/>
      <point x="268" y="333" type="curve" smooth="yes"/>
      <point x="379" y="333"/>
      <point x="402" y="158"/>
      <point x="293" y="158" type="curve" smooth="yes"/>
      <point x="255" y="158"/>
      <point x="232" y="142"/>
      <point x="215" y="118" type="curve" smooth="yes"/>
      <point x="184" y="75"/>
      <point x="182" y="14"/>
      <point x="140" y="-46" type="curve" smooth="yes"/>
      <point x="107" y="-91"/>
      <point x="60" y="-123"/>
      <point x="12" y="-136" type="curve" smooth="yes"/>
      <point x="-32" y="-148"/>
      <point x="-74" y="-146"/>
      <point x="-112" y="-129" type="curve" smooth="yes"/>
      <point x="-174" y="-101"/>
      <point x="-137" y="-19"/>
    </contour>
  </outline>
</glyph>
<glyph name="asciitilde" format="2">
  <advance width="451"/>
  <unicode hex="007E"/>
  <outline>
    <contour>
      <point x="481" y="321" type="curve" smooth="yes"/>
      <point x="421" y="236"/>
      <point x="349" y="183"/>
      <point x="287" y="183" type="curve" smooth="yes"/>
      <point x="152" y="183"/>
      <point x="241" y="300"/>
      <point x="215" y="300" type="curve" smooth="yes"/>
      <point x="181" y="300"/>
      <point x="128" y="247"/>
      <point x="96" y="200" type="curve" smooth="yes"/>
      <point x="57" y="145"/>
      <point x="-17" y="197"/>
      <point x="22" y="252" type="curve" smooth="yes"/>
      <point x="82" y="337"/>
      <point x="152" y="390"/>
      <point x="215" y="390" type="curve" smooth="yes"/>
      <point x="350" y="390"/>
      <point x="261" y="273"/>
      <point x="287" y="273" type="curve" smooth="yes"/>
      <point x="321" y="273"/>
      <point x="374" y="326"/>
      <point x="407" y="373" type="curve" smooth="yes"/>
      <point x="446" y="428"/>
      <point x="520" y="376"/>
    </contour>
  </outline>
</glyph>
<glyph name="currency" format="2">
  <advance width="456"/>
  <unicode hex="00A4"/>
  <outline>
    <contour>
      <point x="189" y="241" type="curve" smooth="yes"/>
      <point x="245" y="241"/>
      <point x="316" y="286"/>
      <point x="356" y="342" type="curve" smooth="yes"/>
      <point x="378" y="372"/>
      <point x="388" y="390"/>
      <point x="358" y="390" type="curve" smooth="yes"/>
      <point x="302" y="390"/>
      <point x="235" y="347"/>
      <point x="195" y="290" type="curve" smooth="yes"/>
      <point x="174" y="261"/>
      <point x="161" y="241"/>
    </contour>
    <contour>
      <point x="206" y="389" type="curve" smooth="yes"/>
      <point x="185" y="460" type="line" smooth="yes"/>
      <point x="166" y="525"/>
      <point x="252" y="550"/>
      <point x="271" y="486" type="curve" smooth="yes"/>
      <point x="292" y="415" type="line" smooth="yes"/>
      <point x="311" y="350"/>
      <point x="225" y="325"/>
    </contour>
    <contour>
      <point x="189" y="151" type="curve" smooth="yes"/>
      <point x="86" y="151"/>
      <point x="47" y="238"/>
      <point x="121" y="342" type="curve" smooth="yes"/>
      <point x="181" y="427"/>
      <point x="276" y="480"/>
      <point x="358" y="480" type="curve" smooth="yes"/>
      <point x="462" y="480"/>
      <point x="504" y="395"/>
      <point x="430" y="290" type="curve" smooth="yes"/>
      <point x="370" y="206"/>
      <point x="272" y="151"/>
    </contour>
    <contour>
      <point x="567" y="434" type="curve" smooth="yes"/>
      <point x="445" y="363" type="line" smooth="yes"/>
      <point x="386" y="329"/>
      <point x="341" y="407"/>
      <point x="399" y="441" type="curve" smooth="yes"/>
      <point x="521" y="512" type="line" smooth="yes"/>
      <point x="580" y="546"/>
      <point x="625" y="468"/>
    </contour>
    <contour>
      <point x="-18" y="197" type="curve" smooth="yes"/>
      <point x="104" y="268" type="line" smooth="yes"/>
      <point x="163" y="302"/>
      <point x="208" y="224"/>
      <point x="150" y="190" type="curve" smooth="yes"/>
      <point x="28" y="119" type="line" smooth="yes"/>
      <point x="-31" y="85"/>
      <point x="-76" y="163"/>
    </contour>
    <contour>
      <point x="343" y="242" type="curve" smooth="yes"/>
      <point x="364" y="171" type="line" smooth="yes"/>
      <point x="383" y="106"/>
      <point x="297" y="81"/>
      <point x="278" y="145" type="curve" smooth="yes"/>
      <point x="257" y="216" type="line" smooth="yes"/>
      <point x="238" y="281"/>
      <point x="324" y="306"/>
    </contour>
  </outline>
</glyph>
<glyph name="brokenbar" format="2">
  <advance width="223"/>
  <unicode hex="00A6"/>
  <outline>
    <contour>
      <point x="139" y="210" type="curve" smooth="yes"/>
      <point x="-36" y="-38" type="line" smooth="yes"/>
      <point x="-75" y="-93"/>
      <point x="-149" y="-41"/>
      <point x="-110" y="14" type="curve" smooth="yes"/>
      <point x="65" y="262" type="line" smooth="yes"/>
      <point x="104" y="317"/>
      <point x="178" y="265"/>
    </contour>
    <contour>
      <point x="389" y="563" type="curve" smooth="yes"/>
      <point x="214" y="316" type="line" smooth="yes"/>
      <point x="175" y="261"/>
      <point x="101" y="313"/>
      <point x="140" y="368" type="curve" smooth="yes"/>
      <point x="315" y="615" type="line" smooth="yes"/>
      <point x="354" y="670"/>
      <point x="428" y="618"/>
    </contour>
  </outline>
</glyph>
<glyph name="dieresis" format="2">
  <advance width="409"/>
  <unicode hex="00A8"/>
  <outline>
    <contour>
      <point x="342" y="396" type="curve" smooth="yes"/>
      <point x="273" y="406"/>
      <point x="278" y="503"/>
      <point x="363" y="516" type="curve" smooth="yes"/>
      <point x="430" y="527"/>
      <point x="444" y="438"/>
      <point x="377" y="428" type="curve" smooth="yes"/>
      <point x="375" y="427"/>
      <point x="353" y="486"/>
      <point x="354" y="486" type="curve" smooth="yes"/>
      <point x="421" y="476"/>
      <point x="408" y="387"/>
    </contour>
    <contour>
      <point x="498" y="396" type="curve" smooth="yes"/>
      <point x="427" y="406"/>
      <point x="433" y="504"/>
      <point x="519" y="517" type="curve" smooth="yes"/>
      <point x="586" y="526"/>
      <point x="599" y="437"/>
      <point x="533" y="427" type="curve" smooth="yes"/>
      <point x="531" y="427"/>
      <point x="508" y="486"/>
      <point x="510" y="486" type="curve" smooth="yes"/>
      <point x="577" y="476"/>
      <point x="565" y="387"/>
    </contour>
  </outline>
</glyph>
<glyph name="guillemetleft" format="2">
  <advance width="451"/>
  <unicode hex="00AB"/>
  <outline>
    <contour>
      <point x="343" y="276" type="curve" smooth="yes"/>
      <point x="285" y="242"/>
      <point x="223" y="246"/>
      <point x="166" y="213" type="curve" smooth="yes"/>
      <point x="118" y="186"/>
      <point x="124" y="188"/>
      <point x="138" y="149" type="curve" smooth="yes"/>
      <point x="160" y="83"/>
      <point x="156" y="82"/>
      <point x="159" y="75" type="curve" smooth="yes"/>
      <point x="187" y="14"/>
      <point x="104" y="-23"/>
      <point x="77" y="39" type="curve" smooth="yes"/>
      <point x="72" y="50"/>
      <point x="67" y="77"/>
      <point x="52" y="121" type="curve" smooth="yes"/>
      <point x="26" y="198"/>
      <point x="26" y="237"/>
      <point x="120" y="291" type="curve" smooth="yes"/>
      <point x="194" y="334"/>
      <point x="253" y="328"/>
      <point x="299" y="354" type="curve" smooth="yes"/>
      <point x="357" y="388"/>
      <point x="402" y="310"/>
    </contour>
    <contour>
      <point x="527" y="276" type="curve" smooth="yes"/>
      <point x="469" y="242"/>
      <point x="407" y="246"/>
      <point x="350" y="213" type="curve" smooth="yes"/>
      <point x="302" y="186"/>
      <point x="308" y="189"/>
      <point x="322" y="149" type="curve" smooth="yes"/>
      <point x="344" y="78"/>
      <point x="340" y="82"/>
      <point x="343" y="75" type="curve" smooth="yes"/>
      <point x="371" y="14"/>
      <point x="288" y="-23"/>
      <point x="261" y="39" type="curve" smooth="yes"/>
      <point x="256" y="50"/>
      <point x="249" y="79"/>
      <point x="236" y="121" type="curve" smooth="yes"/>
      <point x="210" y="199"/>
      <point x="210" y="237"/>
      <point x="304" y="291" type="curve" smooth="yes"/>
      <point x="378" y="334"/>
      <point x="437" y="328"/>
      <point x="483" y="354" type="curve" smooth="yes"/>
      <point x="541" y="388"/>
      <point x="586" y="310"/>
    </contour>
  </outline>
</glyph>
<glyph name="hyphensoft" format="2">
  <advance width="240"/>
  <unicode hex="00AD"/>
  <outline>
    <contour>
      <point x="216" y="246" type="curve" smooth="yes"/>
      <point x="82" y="246" type="line" smooth="yes"/>
      <point x="14" y="246"/>
      <point x="15" y="336"/>
      <point x="82" y="336" type="curve" smooth="yes"/>
      <point x="216" y="336" type="line" smooth="yes"/>
      <point x="284" y="336"/>
      <point x="284" y="246"/>
    </contour>
  </outline>
</glyph>
<glyph name="registered" format="2">
  <advance width="456"/>
  <unicode hex="00AE"/>
  <outline>
    <contour>
      <point x="143" y="81" type="curve" smooth="yes"/>
      <point x="60" y="90"/>
      <point x="26" y="174"/>
      <point x="113" y="298" type="curve" smooth="yes"/>
      <point x="194" y="412"/>
      <point x="332" y="491"/>
      <point x="446" y="491" type="curve" smooth="yes"/>
      <point x="580" y="491"/>
      <point x="627" y="381"/>
      <point x="532" y="246" type="curve" smooth="yes"/>
      <point x="466" y="152"/>
      <point x="357" y="89"/>
      <point x="253" y="82" type="curve" smooth="yes"/>
      <point x="186" y="78"/>
      <point x="180" y="167"/>
      <point x="247" y="172" type="curve" smooth="yes"/>
      <point x="325" y="177"/>
      <point x="409" y="228"/>
      <point x="458" y="298" type="curve" smooth="yes"/>
      <point x="503" y="362"/>
      <point x="509" y="401"/>
      <point x="446" y="401" type="curve" smooth="yes"/>
      <point x="359" y="401"/>
      <point x="248" y="334"/>
      <point x="187" y="246" type="curve" smooth="yes"/>
      <point x="176" y="230"/>
      <point x="142" y="172"/>
      <point x="153" y="171" type="curve" smooth="yes"/>
      <point x="220" y="163"/>
      <point x="210" y="74"/>
    </contour>
    <contour>
      <point x="187" y="230" type="curve" smooth="yes"/>
      <point x="207" y="258"/>
      <point x="227" y="286"/>
      <point x="247" y="315" type="curve" smooth="yes"/>
      <point x="288" y="372"/>
      <point x="324" y="389"/>
      <point x="370" y="389" type="curve" smooth="yes"/>
      <point x="434" y="389"/>
      <point x="469" y="323"/>
      <point x="434" y="261" type="curve" smooth="yes"/>
      <point x="406" y="213"/>
      <point x="370" y="199"/>
      <point x="338" y="197" type="curve" smooth="yes"/>
      <point x="225" y="192"/>
      <point x="239" y="336"/>
      <point x="285" y="355" type="curve" smooth="yes"/>
      <point x="309" y="364"/>
      <point x="362" y="384"/>
      <point x="380" y="209" type="curve" smooth="yes"/>
      <point x="387" y="141"/>
      <point x="297" y="132"/>
      <point x="290" y="199" type="curve" smooth="yes"/>
      <point x="289" y="207"/>
      <point x="319" y="271"/>
      <point x="319" y="271" type="curve"/>
      <point x="318" y="271"/>
      <point x="331" y="287"/>
      <point x="334" y="287" type="curve" smooth="yes"/>
      <point x="343" y="287"/>
      <point x="348" y="292"/>
      <point x="356" y="305" type="curve" smooth="yes"/>
      <point x="357" y="307"/>
      <point x="372" y="299"/>
      <point x="370" y="299" type="curve" smooth="yes"/>
      <point x="349" y="299"/>
      <point x="339" y="289"/>
      <point x="321" y="263" type="curve" smooth="yes"/>
      <point x="301" y="234"/>
      <point x="281" y="206"/>
      <point x="261" y="178" type="curve" smooth="yes"/>
      <point x="221" y="123"/>
      <point x="148" y="175"/>
    </contour>
  </outline>
</glyph>
<glyph name="macron" format="2">
  <advance width="346"/>
  <unicode hex="00AF"/>
  <outline>
    <contour>
      <point x="506" y="438" type="curve" smooth="yes"/>
      <point x="464" y="397"/>
      <point x="342" y="391"/>
      <point x="275" y="432" type="curve" smooth="yes"/>
      <point x="217" y="467"/>
      <point x="264" y="544"/>
      <point x="321" y="508" type="curve" smooth="yes"/>
      <point x="345" y="494"/>
      <point x="429" y="488"/>
      <point x="444" y="502" type="curve" smooth="yes"/>
      <point x="492" y="549"/>
      <point x="555" y="485"/>
    </contour>
  </outline>
</glyph>
<glyph name="plusminus" format="2">
  <advance width="382"/>
  <unicode hex="00B1"/>
  <outline>
    <contour>
      <point x="388" y="345" type="curve" smooth="yes"/>
      <point x="330" y="308"/>
      <point x="279" y="233"/>
      <point x="241" y="133" type="curve" smooth="yes"/>
      <point x="217" y="70"/>
      <point x="133" y="102"/>
      <point x="157" y="165" type="curve" smooth="yes"/>
      <point x="205" y="289"/>
      <point x="268" y="376"/>
      <point x="340" y="421" type="curve" smooth="yes"/>
      <point x="397" y="457"/>
      <point x="445" y="381"/>
    </contour>
    <contour>
      <point x="428" y="217" type="curve" smooth="yes"/>
      <point x="341" y="178"/>
      <point x="237" y="176"/>
      <point x="126" y="216" type="curve" smooth="yes"/>
      <point x="62" y="238"/>
      <point x="92" y="323"/>
      <point x="156" y="300" type="curve" smooth="yes"/>
      <point x="243" y="270"/>
      <point x="323" y="268"/>
      <point x="392" y="299" type="curve" smooth="yes"/>
      <point x="453" y="327"/>
      <point x="490" y="245"/>
    </contour>
    <contour>
      <point x="278" y="5" type="curve" smooth="yes"/>
      <point x="191" y="-34"/>
      <point x="87" y="-36"/>
      <point x="-24" y="4" type="curve" smooth="yes"/>
      <point x="-88" y="26"/>
      <point x="-58" y="111"/>
      <point x="6" y="88" type="curve" smooth="yes"/>
      <point x="93" y="58"/>
      <point x="173" y="56"/>
      <point x="242" y="87" type="curve" smooth="yes"/>
      <point x="303" y="115"/>
      <point x="340" y="33"/>
    </contour>
  </outline>
</glyph>
<glyph name="twosuperior" format="2">
  <advance width="305"/>
  <unicode hex="00B2"/>
  <outline>
    <contour>
      <point x="302" y="183" type="curve" smooth="yes"/>
      <point x="276" y="175"/>
      <point x="250" y="172"/>
      <point x="223" y="172" type="curve" smooth="yes"/>
      <point x="102" y="172"/>
      <point x="50" y="297"/>
      <point x="191" y="370" type="curve" smooth="yes"/>
      <point x="289" y="420"/>
      <point x="352" y="421"/>
      <point x="379" y="431" type="curve" smooth="yes"/>
      <point x="383" y="433"/>
      <point x="311" y="391"/>
      <point x="304" y="388" type="curve" smooth="yes"/>
      <point x="241" y="361"/>
      <point x="206" y="444"/>
      <point x="268" y="470" type="curve" smooth="yes"/>
      <point x="440" y="543"/>
      <point x="511" y="384"/>
      <point x="411" y="347" type="curve" smooth="yes"/>
      <point x="380" y="335"/>
      <point x="315" y="332"/>
      <point x="233" y="290" type="curve" smooth="yes"/>
      <point x="197" y="272"/>
      <point x="193" y="262"/>
      <point x="223" y="262" type="curve" smooth="yes"/>
      <point x="240" y="262"/>
      <point x="258" y="263"/>
      <point x="274" y="269" type="curve" smooth="yes"/>
      <point x="338" y="290"/>
      <point x="366" y="205"/>
    </contour>
  </outline>
</glyph>
<glyph name="acute" format="2">
  <advance width="288"/>
  <unicode hex="00B4"/>
  <outline>
    <contour>
      <point x="454" y="455" type="curve" smooth="yes"/>
      <point x="412" y="428"/>
      <point x="365" y="408"/>
      <point x="317" y="395" type="curve" smooth="yes"/>
      <point x="252" y="379"/>
      <point x="229" y="466"/>
      <point x="295" y="483" type="curve" smooth="yes"/>
      <point x="333" y="492"/>
      <point x="370" y="508"/>
      <point x="404" y="531" type="curve" smooth="yes"/>
      <point x="461" y="568"/>
      <point x="510" y="493"/>
    </contour>
  </outline>
</glyph>
<glyph name="periodcentered" format="2">
  <advance width="184"/>
  <unicode hex="00B7"/>
  <outline>
    <contour>
      <point x="134" y="151" type="curve" smooth="yes"/>
      <point x="63" y="161"/>
      <point x="69" y="259"/>
      <point x="155" y="272" type="curve" smooth="yes"/>
      <point x="222" y="281"/>
      <point x="235" y="192"/>
      <point x="169" y="182" type="curve" smooth="yes"/>
      <point x="167" y="182"/>
      <point x="144" y="241"/>
      <point x="146" y="241" type="curve" smooth="yes"/>
      <point x="213" y="231"/>
      <point x="201" y="142"/>
    </contour>
  </outline>
</glyph>
<glyph name="ordmasculine" format="2">
  <advance width="348"/>
  <unicode hex="00BA"/>
  <outline>
    <contour>
      <point x="277" y="93" type="curve" smooth="yes"/>
      <point x="212" y="51"/>
      <point x="129" y="48"/>
      <point x="36" y="90" type="curve" smooth="yes"/>
      <point x="-25" y="118"/>
      <point x="13" y="200"/>
      <point x="74" y="172" type="curve" smooth="yes"/>
      <point x="133" y="145"/>
      <point x="186" y="141"/>
      <point x="229" y="169" type="curve" smooth="yes"/>
      <point x="285" y="205"/>
      <point x="334" y="130"/>
    </contour>
    <contour>
      <point x="280" y="321" type="curve" smooth="yes"/>
      <point x="316" y="328"/>
      <point x="359" y="343"/>
      <point x="384" y="372" type="curve" smooth="yes"/>
      <point x="394" y="385"/>
      <point x="406" y="402"/>
      <point x="392" y="402" type="curve" smooth="yes"/>
      <point x="348" y="402"/>
      <point x="288" y="356"/>
      <point x="255" y="315" type="curve" smooth="yes"/>
      <point x="252" y="312"/>
      <point x="217" y="318"/>
      <point x="218" y="318" type="curve" smooth="yes"/>
      <point x="279" y="289"/>
      <point x="241" y="207"/>
      <point x="180" y="236" type="curve" smooth="yes"/>
      <point x="142" y="254"/>
      <point x="121" y="293"/>
      <point x="185" y="371" type="curve" smooth="yes"/>
      <point x="238" y="438"/>
      <point x="320" y="492"/>
      <point x="392" y="492" type="curve" smooth="yes"/>
      <point x="486" y="492"/>
      <point x="524" y="400"/>
      <point x="452" y="314" type="curve" smooth="yes"/>
      <point x="413" y="268"/>
      <point x="354" y="244"/>
      <point x="296" y="233" type="curve" smooth="yes"/>
      <point x="230" y="220"/>
      <point x="213" y="309"/>
    </contour>
  </outline>
</glyph>
<glyph name="onehalf" format="2">
  <advance width="664"/>
  <unicode hex="00BD"/>
  <outline>
    <contour>
      <point x="252" y="471" type="curve" smooth="yes"/>
      <point x="394" y="497"/>
      <point x="396" y="430"/>
      <point x="343" y="355" type="curve" smooth="yes"/>
      <point x="300" y="296"/>
      <point x="260" y="239"/>
      <point x="222" y="185" type="curve" smooth="yes"/>
      <point x="182" y="130"/>
      <point x="109" y="182"/>
      <point x="148" y="237" type="curve" smooth="yes"/>
      <point x="188" y="293"/>
      <point x="228" y="350"/>
      <point x="269" y="407" type="curve" smooth="yes"/>
      <point x="272" y="410"/>
      <point x="275" y="384"/>
      <point x="268" y="383" type="curve" smooth="yes"/>
      <point x="202" y="371"/>
      <point x="186" y="459"/>
    </contour>
    <contour>
      <point x="675" y="407" type="curve" smooth="yes"/>
      <point x="109" y="-17" type="line" smooth="yes"/>
      <point x="55" y="-57"/>
      <point x="1" y="15"/>
      <point x="55" y="55" type="curve" smooth="yes"/>
      <point x="621" y="479" type="line" smooth="yes"/>
      <point x="675" y="519"/>
      <point x="729" y="447"/>
    </contour>
    <contour>
      <point x="515" y="-19" type="curve" smooth="yes"/>
      <point x="488" y="-19"/>
      <point x="466" y="-19"/>
      <point x="447" y="-19" type="curve" smooth="yes"/>
      <point x="320" y="-19"/>
      <point x="285" y="47"/>
      <point x="434" y="121" type="curve" smooth="yes"/>
      <point x="503" y="157"/>
      <point x="567" y="191"/>
      <point x="585" y="216" type="curve" smooth="yes"/>
      <point x="588" y="220"/>
      <point x="534" y="199"/>
      <point x="527" y="197" type="curve" smooth="yes"/>
      <point x="465" y="170"/>
      <point x="430" y="253"/>
      <point x="493" y="279" type="curve" smooth="yes"/>
      <point x="638" y="341"/>
      <point x="725" y="258"/>
      <point x="659" y="164" type="curve" smooth="yes"/>
      <point x="631" y="126"/>
      <point x="580" y="96"/>
      <point x="474" y="41" type="curve" smooth="yes"/>
      <point x="467" y="37"/>
      <point x="441" y="71"/>
      <point x="447" y="71" type="curve" smooth="yes"/>
      <point x="475" y="71"/>
      <point x="497" y="71"/>
      <point x="515" y="71" type="curve" smooth="yes"/>
      <point x="583" y="71"/>
      <point x="583" y="-19"/>
    </contour>
  </outline>
</glyph>
<glyph name="threequarters" format="2">
  <advance width="678"/>
  <unicode hex="00BE"/>
  <outline>
    <contour>
      <point x="718" y="407" type="curve" smooth="yes"/>
      <point x="152" y="-17" type="line" smooth="yes"/>
      <point x="98" y="-57"/>
      <point x="44" y="15"/>
      <point x="98" y="55" type="curve" smooth="yes"/>
      <point x="664" y="479" type="line" smooth="yes"/>
      <point x="718" y="519"/>
      <point x="772" y="447"/>
    </contour>
    <contour>
      <point x="584" y="40" type="curve" smooth="yes"/>
      <point x="533" y="40"/>
      <point x="490" y="40"/>
      <point x="455" y="40" type="curve" smooth="yes"/>
      <point x="374" y="40"/>
      <point x="338" y="104"/>
      <point x="430" y="176" type="curve" smooth="yes"/>
      <point x="461" y="201"/>
      <point x="473" y="211"/>
      <point x="516" y="245" type="curve" smooth="yes"/>
      <point x="632" y="335"/>
      <point x="721" y="279"/>
      <point x="649" y="177" type="curve" smooth="yes"/>
      <point x="617" y="131"/>
      <point x="565" y="58"/>
      <point x="519" y="-7" type="curve" smooth="yes"/>
      <point x="480" y="-62"/>
      <point x="406" y="-10"/>
      <point x="445" y="45" type="curve" smooth="yes"/>
      <point x="491" y="110"/>
      <point x="543" y="183"/>
      <point x="575" y="229" type="curve" smooth="yes"/>
      <point x="579" y="234"/>
      <point x="577" y="178"/>
      <point x="572" y="175" type="curve" smooth="yes"/>
      <point x="529" y="141"/>
      <point x="517" y="131"/>
      <point x="486" y="106" type="curve" smooth="yes"/>
      <point x="482" y="103"/>
      <point x="452" y="130"/>
      <point x="455" y="130" type="curve" smooth="yes"/>
      <point x="507" y="130"/>
      <point x="550" y="130"/>
      <point x="584" y="130" type="curve" smooth="yes"/>
      <point x="652" y="130"/>
      <point x="652" y="40"/>
    </contour>
    <contour>
      <point x="159" y="266" type="curve" smooth="yes"/>
      <point x="194" y="249"/>
      <point x="260" y="263"/>
      <point x="285" y="299" type="curve" smooth="yes"/>
      <point x="287" y="301"/>
      <point x="286" y="288"/>
      <point x="282" y="288" type="curve" smooth="yes"/>
      <point x="197" y="294"/>
      <point x="172" y="352"/>
      <point x="304" y="420" type="curve" smooth="yes"/>
      <point x="310" y="423"/>
      <point x="392" y="395"/>
      <point x="389" y="395" type="curve" smooth="yes"/>
      <point x="343" y="395"/>
      <point x="314" y="395"/>
      <point x="292" y="395" type="curve" smooth="yes"/>
      <point x="225" y="395"/>
      <point x="225" y="485"/>
      <point x="292" y="485" type="curve" smooth="yes"/>
      <point x="325" y="485"/>
      <point x="358" y="485"/>
      <point x="389" y="485" type="curve" smooth="yes"/>
      <point x="476" y="485"/>
      <point x="501" y="422"/>
      <point x="346" y="340" type="curve" smooth="yes"/>
      <point x="340" y="337"/>
      <point x="285" y="378"/>
      <point x="288" y="378" type="curve" smooth="yes"/>
      <point x="382" y="373"/>
      <point x="398" y="304"/>
      <point x="359" y="247" type="curve" smooth="yes"/>
      <point x="306" y="173"/>
      <point x="190" y="149"/>
      <point x="119" y="186" type="curve" smooth="yes"/>
      <point x="58" y="217"/>
      <point x="99" y="297"/>
    </contour>
  </outline>
</glyph>
<glyph name="questiondown" format="2">
  <advance width="361"/>
  <unicode hex="00BF"/>
  <outline>
    <contour>
      <point x="331" y="379" type="curve" smooth="yes"/>
      <point x="261" y="389"/>
      <point x="268" y="490"/>
      <point x="354" y="500" type="curve" smooth="yes"/>
      <point x="421" y="507"/>
      <point x="431" y="418"/>
      <point x="364" y="410" type="curve" smooth="yes"/>
      <point x="362" y="410"/>
      <point x="342" y="469"/>
      <point x="343" y="469" type="curve" smooth="yes"/>
      <point x="410" y="459"/>
      <point x="397" y="370"/>
    </contour>
    <contour>
      <point x="179" y="8" type="curve" smooth="yes"/>
      <point x="-40" y="-63"/>
      <point x="-142" y="34"/>
      <point x="-63" y="145" type="curve" smooth="yes"/>
      <point x="-13" y="215"/>
      <point x="82" y="260"/>
      <point x="191" y="283" type="curve"/>
      <point x="163" y="265" type="line"/>
      <point x="203" y="321" type="line" smooth="yes"/>
      <point x="243" y="376"/>
      <point x="316" y="324"/>
      <point x="277" y="269" type="curve" smooth="yes"/>
      <point x="237" y="213" type="line" smooth="yes"/>
      <point x="230" y="204"/>
      <point x="220" y="197"/>
      <point x="209" y="195" type="curve" smooth="yes"/>
      <point x="129" y="178"/>
      <point x="47" y="145"/>
      <point x="11" y="93" type="curve" smooth="yes"/>
      <point x="-13" y="59"/>
      <point x="85" y="72"/>
      <point x="151" y="94" type="curve" smooth="yes"/>
      <point x="215" y="115"/>
      <point x="243" y="29"/>
    </contour>
  </outline>
</glyph>
<glyph name="AE" format="2">
  <advance width="596"/>
  <unicode hex="00C6"/>
  <outline>
    <contour>
      <point x="90" y="260" type="curve" smooth="yes"/>
      <point x="134" y="268"/>
      <point x="203" y="275"/>
      <point x="240" y="275" type="curve" smooth="yes"/>
      <point x="258" y="275"/>
      <point x="294" y="299"/>
      <point x="305" y="306" type="curve" smooth="yes"/>
      <point x="340" y="329"/>
      <point x="396" y="331"/>
      <point x="448" y="308" type="curve" smooth="yes"/>
      <point x="471" y="298"/>
      <point x="532" y="285"/>
      <point x="552" y="298" type="curve" smooth="yes"/>
      <point x="609" y="334"/>
      <point x="657" y="258"/>
      <point x="600" y="222" type="curve" smooth="yes"/>
      <point x="551" y="191"/>
      <point x="468" y="202"/>
      <point x="412" y="226" type="curve" smooth="yes"/>
      <point x="396" y="233"/>
      <point x="365" y="238"/>
      <point x="353" y="230" type="curve" smooth="yes"/>
      <point x="327" y="213"/>
      <point x="285" y="185"/>
      <point x="240" y="185" type="curve" smooth="yes"/>
      <point x="207" y="185"/>
      <point x="144" y="178"/>
      <point x="106" y="172" type="curve" smooth="yes"/>
      <point x="39" y="160"/>
      <point x="24" y="249"/>
    </contour>
    <contour>
      <point x="-55" y="94" type="curve" smooth="yes"/>
      <point x="-10" y="108"/>
      <point x="31" y="132"/>
      <point x="71" y="164" type="curve" smooth="yes"/>
      <point x="164" y="243"/>
      <point x="258" y="323"/>
      <point x="352" y="402" type="curve" smooth="yes"/>
      <point x="416" y="456"/>
      <point x="476" y="485"/>
      <point x="549" y="485" type="curve" smooth="yes"/>
      <point x="603" y="485"/>
      <point x="646" y="485"/>
      <point x="679" y="485" type="curve" smooth="yes"/>
      <point x="685" y="485"/>
      <point x="660" y="480"/>
      <point x="654" y="480" type="curve" smooth="yes"/>
      <point x="616" y="480"/>
      <point x="580" y="480"/>
      <point x="551" y="480" type="curve" smooth="yes"/>
      <point x="531" y="480"/>
      <point x="515" y="464"/>
      <point x="495" y="435" type="curve" smooth="yes"/>
      <point x="456" y="381"/>
      <point x="368" y="125"/>
      <point x="316" y="51" type="curve" smooth="yes"/>
      <point x="313" y="47"/>
      <point x="302" y="68"/>
      <point x="307" y="68" type="curve" smooth="yes"/>
      <point x="343" y="68"/>
      <point x="386" y="67"/>
      <point x="417" y="84" type="curve" smooth="yes"/>
      <point x="476" y="116"/>
      <point x="519" y="36"/>
      <point x="459" y="4" type="curve" smooth="yes"/>
      <point x="412" y="-21"/>
      <point x="362" y="-22"/>
      <point x="307" y="-22" type="curve" smooth="yes"/>
      <point x="204" y="-22"/>
      <point x="182" y="20"/>
      <point x="242" y="103" type="curve" smooth="yes"/>
      <point x="286" y="165"/>
      <point x="375" y="422"/>
      <point x="421" y="487" type="curve" smooth="yes"/>
      <point x="467" y="552"/>
      <point x="507" y="570"/>
      <point x="551" y="570" type="curve" smooth="yes"/>
      <point x="595" y="570"/>
      <point x="629" y="570"/>
      <point x="654" y="570" type="curve" smooth="yes"/>
      <point x="793" y="570"/>
      <point x="818" y="395"/>
      <point x="679" y="395" type="curve" smooth="yes"/>
      <point x="630" y="395"/>
      <point x="585" y="395"/>
      <point x="549" y="395" type="curve" smooth="yes"/>
      <point x="497" y="395"/>
      <point x="456" y="372"/>
      <point x="410" y="334" type="curve" smooth="yes"/>
      <point x="316" y="255"/>
      <point x="222" y="175"/>
      <point x="127" y="94" type="curve" smooth="yes"/>
      <point x="79" y="54"/>
      <point x="28" y="26"/>
      <point x="-27" y="8" type="curve" smooth="yes"/>
      <point x="-92" y="-12"/>
      <point x="-119" y="73"/>
    </contour>
  </outline>
</glyph>
<glyph name="multiply" format="2">
  <advance width="365"/>
  <unicode hex="00D7"/>
  <outline>
    <contour>
      <point x="246" y="323" type="curve" smooth="yes"/>
      <point x="255" y="292"/>
      <point x="275" y="222"/>
      <point x="305" y="120" type="curve" smooth="yes"/>
      <point x="324" y="55"/>
      <point x="238" y="30"/>
      <point x="219" y="94" type="curve" smooth="yes"/>
      <point x="189" y="196"/>
      <point x="169" y="266"/>
      <point x="160" y="297" type="curve" smooth="yes"/>
      <point x="141" y="362"/>
      <point x="227" y="387"/>
    </contour>
    <contour>
      <point x="438" y="278" type="curve" smooth="yes"/>
      <point x="327" y="170"/>
      <point x="202" y="97"/>
      <point x="70" y="63" type="curve" smooth="yes"/>
      <point x="5" y="47"/>
      <point x="-18" y="134"/>
      <point x="48" y="151" type="curve" smooth="yes"/>
      <point x="166" y="181"/>
      <point x="277" y="246"/>
      <point x="374" y="342" type="curve" smooth="yes"/>
      <point x="423" y="389"/>
      <point x="486" y="325"/>
    </contour>
  </outline>
</glyph>
<glyph name="germandbls" format="2">
  <advance width="389"/>
  <unicode hex="00DF"/>
  <outline>
    <contour>
      <point x="97" y="90" type="curve" smooth="yes"/>
      <point x="176" y="33"/>
      <point x="266" y="67"/>
      <point x="290" y="155" type="curve" smooth="yes"/>
      <point x="305" y="212"/>
      <point x="307" y="270"/>
      <point x="288" y="294" type="curve" smooth="yes"/>
      <point x="287" y="295"/>
      <point x="281" y="302"/>
      <point x="280" y="301" type="curve" smooth="yes"/>
      <point x="275" y="300"/>
      <point x="287" y="324"/>
      <point x="290" y="324" type="curve" smooth="yes"/>
      <point x="308" y="323"/>
      <point x="331" y="331"/>
      <point x="350" y="341" type="curve" smooth="yes"/>
      <point x="376" y="355"/>
      <point x="405" y="376"/>
      <point x="422" y="400" type="curve" smooth="yes"/>
      <point x="436" y="419"/>
      <point x="448" y="436"/>
      <point x="430" y="436" type="curve" smooth="yes"/>
      <point x="387" y="436"/>
      <point x="313" y="362"/>
      <point x="270" y="335" type="curve" smooth="yes"/>
      <point x="182" y="279"/>
      <point x="103" y="150"/>
      <point x="37" y="1" type="curve" smooth="yes"/>
      <point x="10" y="-61"/>
      <point x="-72" y="-25"/>
      <point x="-45" y="37" type="curve" smooth="yes"/>
      <point x="31" y="210"/>
      <point x="120" y="345"/>
      <point x="222" y="411" type="curve" smooth="yes"/>
      <point x="312" y="468"/>
      <point x="341" y="526"/>
      <point x="430" y="526" type="curve" smooth="yes"/>
      <point x="524" y="526"/>
      <point x="565" y="445"/>
      <point x="496" y="348" type="curve" smooth="yes"/>
      <point x="471" y="312"/>
      <point x="432" y="283"/>
      <point x="392" y="261" type="curve" smooth="yes"/>
      <point x="354" y="241"/>
      <point x="317" y="232"/>
      <point x="286" y="234" type="curve" smooth="yes"/>
      <point x="185" y="239"/>
      <point x="181" y="368"/>
      <point x="252" y="387" type="curve"/>
      <point x="293" y="400"/>
      <point x="332" y="382"/>
      <point x="358" y="350" type="curve" smooth="yes"/>
      <point x="392" y="309"/>
      <point x="404" y="234"/>
      <point x="376" y="131" type="curve" smooth="yes"/>
      <point x="336" y="-15"/>
      <point x="176" y="-77"/>
      <point x="45" y="18" type="curve" smooth="yes"/>
      <point x="-10" y="57"/>
      <point x="43" y="130"/>
    </contour>
  </outline>
</glyph>
<glyph name="ae" format="2">
  <advance width="664"/>
  <unicode hex="00E6"/>
  <outline>
    <contour>
      <point x="472" y="375" type="curve" smooth="yes"/>
      <point x="450" y="342"/>
      <point x="427" y="309"/>
      <point x="365" y="222" type="curve" smooth="yes"/>
      <point x="292" y="118"/>
      <point x="209" y="4"/>
      <point x="121" y="-21" type="curve" smooth="yes"/>
      <point x="12" y="-53"/>
      <point x="-51" y="61"/>
      <point x="43" y="193" type="curve" smooth="yes"/>
      <point x="115" y="295"/>
      <point x="232" y="363"/>
      <point x="325" y="363" type="curve" smooth="yes"/>
      <point x="436" y="363"/>
      <point x="483" y="269"/>
      <point x="395" y="144" type="curve" smooth="yes"/>
      <point x="356" y="90"/>
      <point x="347" y="60"/>
      <point x="393" y="60" type="curve" smooth="yes"/>
      <point x="424" y="60"/>
      <point x="467" y="71"/>
      <point x="515" y="89" type="curve" smooth="yes"/>
      <point x="578" y="113"/>
      <point x="610" y="29"/>
      <point x="547" y="5" type="curve" smooth="yes"/>
      <point x="485" y="-19"/>
      <point x="434" y="-30"/>
      <point x="393" y="-30" type="curve" smooth="yes"/>
      <point x="280" y="-30"/>
      <point x="226" y="62"/>
      <point x="321" y="196" type="curve" smooth="yes"/>
      <point x="354" y="243"/>
      <point x="367" y="273"/>
      <point x="325" y="273" type="curve" smooth="yes"/>
      <point x="258" y="273"/>
      <point x="169" y="215"/>
      <point x="117" y="141" type="curve" smooth="yes"/>
      <point x="96" y="112"/>
      <point x="73" y="58"/>
      <point x="97" y="65" type="curve" smooth="yes"/>
      <point x="156" y="82"/>
      <point x="241" y="203"/>
      <point x="291" y="274" type="curve" smooth="yes"/>
      <point x="353" y="361"/>
      <point x="376" y="394"/>
      <point x="398" y="425" type="curve" smooth="yes"/>
      <point x="436" y="481"/>
      <point x="510" y="430"/>
    </contour>
    <contour>
      <point x="423" y="231" type="curve" smooth="yes"/>
      <point x="481" y="211"/>
      <point x="506" y="212"/>
      <point x="558" y="212" type="curve" smooth="yes"/>
      <point x="590" y="212"/>
      <point x="612" y="227"/>
      <point x="620" y="252" type="curve" smooth="yes"/>
      <point x="627" y="274"/>
      <point x="618" y="275"/>
      <point x="591" y="281" type="curve" smooth="yes"/>
      <point x="519" y="298"/>
      <point x="419" y="298"/>
      <point x="362" y="218" type="curve" smooth="yes"/>
      <point x="301" y="131"/>
      <point x="284" y="108"/>
      <point x="262" y="77" type="curve" smooth="yes"/>
      <point x="222" y="23"/>
      <point x="150" y="76"/>
      <point x="190" y="131" type="curve" smooth="yes"/>
      <point x="212" y="160"/>
      <point x="227" y="183"/>
      <point x="288" y="270" type="curve" smooth="yes"/>
      <point x="371" y="386"/>
      <point x="509" y="393"/>
      <point x="611" y="369" type="curve" smooth="yes"/>
      <point x="698" y="348"/>
      <point x="729" y="297"/>
      <point x="706" y="222" type="curve" smooth="yes"/>
      <point x="686" y="165"/>
      <point x="633" y="122"/>
      <point x="558" y="122" type="curve" smooth="yes"/>
      <point x="496" y="122"/>
      <point x="463" y="123"/>
      <point x="395" y="145" type="curve" smooth="yes"/>
      <point x="331" y="167"/>
      <point x="359" y="252"/>
    </contour>
  </outline>
</glyph>
<glyph name="eth" format="2">
  <advance width="389"/>
  <unicode hex="00F0"/>
  <outline>
    <contour>
      <point x="426" y="583" type="curve" smooth="yes"/>
      <point x="477" y="494"/>
      <point x="484" y="390"/>
      <point x="375" y="236" type="curve" smooth="yes"/>
      <point x="305" y="136"/>
      <point x="184" y="53"/>
      <point x="83" y="53" type="curve" smooth="yes"/>
      <point x="-28" y="53"/>
      <point x="-70" y="145"/>
      <point x="16" y="267" type="curve" smooth="yes"/>
      <point x="87" y="367"/>
      <point x="201" y="429"/>
      <point x="282" y="429" type="curve" smooth="yes"/>
      <point x="393" y="429"/>
      <point x="451" y="324"/>
      <point x="340" y="194" type="curve" smooth="yes"/>
      <point x="297" y="142"/>
      <point x="228" y="201"/>
      <point x="272" y="252" type="curve" smooth="yes"/>
      <point x="315" y="303"/>
      <point x="325" y="339"/>
      <point x="282" y="339" type="curve" smooth="yes"/>
      <point x="225" y="339"/>
      <point x="139" y="285"/>
      <point x="90" y="215" type="curve" smooth="yes"/>
      <point x="59" y="172"/>
      <point x="44" y="143"/>
      <point x="83" y="143" type="curve" smooth="yes"/>
      <point x="155" y="143"/>
      <point x="251" y="216"/>
      <point x="301" y="288" type="curve" smooth="yes"/>
      <point x="383" y="403"/>
      <point x="386" y="472"/>
      <point x="348" y="539" type="curve" smooth="yes"/>
      <point x="314" y="597"/>
      <point x="392" y="642"/>
    </contour>
    <contour>
      <point x="534" y="498" type="curve" smooth="yes"/>
      <point x="292" y="428" type="line" smooth="yes"/>
      <point x="227" y="409"/>
      <point x="202" y="495"/>
      <point x="266" y="514" type="curve" smooth="yes"/>
      <point x="508" y="584" type="line" smooth="yes"/>
      <point x="573" y="603"/>
      <point x="598" y="517"/>
    </contour>
  </outline>
</glyph>
<glyph name="divide" format="2">
  <advance width="382"/>
  <unicode hex="00F7"/>
  <outline>
    <contour>
      <point x="121" y="251" type="curve" smooth="yes"/>
      <point x="208" y="220"/>
      <point x="288" y="218"/>
      <point x="356" y="250" type="curve" smooth="yes"/>
      <point x="417" y="278"/>
      <point x="455" y="196"/>
      <point x="394" y="168" type="curve" smooth="yes"/>
      <point x="306" y="128"/>
      <point x="202" y="126"/>
      <point x="91" y="167" type="curve" smooth="yes"/>
      <point x="27" y="190"/>
      <point x="58" y="274"/>
    </contour>
    <contour>
      <point x="314" y="272" type="curve" smooth="yes"/>
      <point x="244" y="284"/>
      <point x="253" y="382"/>
      <point x="339" y="392" type="curve" smooth="yes"/>
      <point x="406" y="399"/>
      <point x="416" y="310"/>
      <point x="349" y="302" type="curve" smooth="yes"/>
      <point x="347" y="302"/>
      <point x="328" y="361"/>
      <point x="330" y="360" type="curve" smooth="yes"/>
      <point x="396" y="348"/>
      <point x="380" y="260"/>
    </contour>
    <contour>
      <point x="141" y="27" type="curve" smooth="yes"/>
      <point x="72" y="39"/>
      <point x="80" y="135"/>
      <point x="164" y="148" type="curve" smooth="yes"/>
      <point x="231" y="157"/>
      <point x="244" y="68"/>
      <point x="178" y="58" type="curve" smooth="yes"/>
      <point x="176" y="58"/>
      <point x="155" y="116"/>
      <point x="157" y="115" type="curve" smooth="yes"/>
      <point x="223" y="103"/>
      <point x="207" y="15"/>
    </contour>
  </outline>
</glyph>
<glyph name="thorn" format="2">
  <advance width="412"/>
  <unicode hex="00FE"/>
  <outline>
    <contour>
      <point x="-110" y="-33" type="curve" smooth="yes"/>
      <point x="-93" y="-28"/>
      <point x="-72" y="4"/>
      <point x="-59" y="22" type="curve" smooth="yes"/>
      <point x="-20" y="78"/>
      <point x="21" y="135"/>
      <point x="62" y="194" type="curve" smooth="yes"/>
      <point x="134" y="296"/>
      <point x="249" y="363"/>
      <point x="342" y="363" type="curve" smooth="yes"/>
      <point x="455" y="363"/>
      <point x="498" y="265"/>
      <point x="410" y="140" type="curve" smooth="yes"/>
      <point x="335" y="35"/>
      <point x="203" y="-10"/>
      <point x="101" y="21" type="curve" smooth="yes"/>
      <point x="-20" y="58"/>
      <point x="-50" y="189"/>
      <point x="43" y="276" type="curve" smooth="yes"/>
      <point x="84" y="314"/>
      <point x="212" y="388"/>
      <point x="280" y="511" type="curve" smooth="yes"/>
      <point x="312" y="570"/>
      <point x="391" y="526"/>
      <point x="358" y="467" type="curve" smooth="yes"/>
      <point x="279" y="323"/>
      <point x="152" y="254"/>
      <point x="105" y="210" type="curve" smooth="yes"/>
      <point x="62" y="171"/>
      <point x="72" y="124"/>
      <point x="127" y="107" type="curve" smooth="yes"/>
      <point x="195" y="86"/>
      <point x="287" y="122"/>
      <point x="336" y="192" type="curve" smooth="yes"/>
      <point x="369" y="239"/>
      <point x="384" y="273"/>
      <point x="342" y="273" type="curve" smooth="yes"/>
      <point x="275" y="273"/>
      <point x="188" y="216"/>
      <point x="136" y="142" type="curve" smooth="yes"/>
      <point x="97" y="87"/>
      <point x="56" y="30"/>
      <point x="15" y="-28" type="curve" smooth="yes"/>
      <point x="-15" y="-72"/>
      <point x="-41" y="-105"/>
      <point x="-80" y="-119" type="curve" smooth="yes"/>
      <point x="-144" y="-141"/>
      <point x="-173" y="-55"/>
    </contour>
  </outline>
</glyph>
<glyph name="OE" format="2">
  <advance width="659"/>
  <unicode hex="0152"/>
  <outline>
    <contour>
      <point x="428" y="366" type="curve" smooth="yes"/>
      <point x="625" y="366" type="line" smooth="yes"/>
      <point x="693" y="366"/>
      <point x="693" y="276"/>
      <point x="625" y="276" type="curve" smooth="yes"/>
      <point x="428" y="276" type="line" smooth="yes"/>
      <point x="361" y="276"/>
      <point x="361" y="366"/>
    </contour>
    <contour>
      <point x="486" y="60" type="curve" smooth="yes"/>
      <point x="150" y="60" type="line" smooth="yes"/>
      <point x="2" y="60"/>
      <point x="-40" y="182"/>
      <point x="71" y="339" type="curve" smooth="yes"/>
      <point x="167" y="475"/>
      <point x="317" y="567"/>
      <point x="445" y="567" type="curve" smooth="yes"/>
      <point x="781" y="567" type="line" smooth="yes"/>
      <point x="849" y="567"/>
      <point x="849" y="477"/>
      <point x="781" y="477" type="curve" smooth="yes"/>
      <point x="445" y="477" type="line" smooth="yes"/>
      <point x="343" y="477"/>
      <point x="221" y="395"/>
      <point x="145" y="287" type="curve" smooth="yes"/>
      <point x="87" y="206"/>
      <point x="74" y="150"/>
      <point x="150" y="150" type="curve" smooth="yes"/>
      <point x="486" y="150" type="line" smooth="yes"/>
      <point x="554" y="150"/>
      <point x="554" y="60"/>
    </contour>
    <contour>
      <point x="238" y="131" type="curve" smooth="yes"/>
      <point x="533" y="548" type="line" smooth="yes"/>
      <point x="572" y="603"/>
      <point x="646" y="551"/>
      <point x="607" y="496" type="curve" smooth="yes"/>
      <point x="312" y="79" type="line" smooth="yes"/>
      <point x="273" y="24"/>
      <point x="199" y="76"/>
    </contour>
  </outline>
</glyph>
<glyph name="circumflex" format="2">
  <advance width="398"/>
  <unicode hex="02C6"/>
  <outline>
    <contour>
      <point x="297" y="476" type="curve" smooth="yes"/>
      <point x="338" y="484"/>
      <point x="352" y="491"/>
      <point x="377" y="505" type="curve" smooth="yes"/>
      <point x="457" y="548"/>
      <point x="482" y="526"/>
      <point x="502" y="487" type="curve"/>
      <point x="508" y="473"/>
      <point x="512" y="463"/>
      <point x="516" y="457" type="curve" smooth="yes"/>
      <point x="554" y="401"/>
      <point x="479" y="351"/>
      <point x="442" y="407" type="curve" smooth="yes"/>
      <point x="434" y="418"/>
      <point x="430" y="428"/>
      <point x="422" y="445" type="curve"/>
      <point x="421" y="447"/>
      <point x="424" y="428"/>
      <point x="421" y="427" type="curve" smooth="yes"/>
      <point x="388" y="409"/>
      <point x="366" y="398"/>
      <point x="315" y="388" type="curve" smooth="yes"/>
      <point x="248" y="375"/>
      <point x="231" y="463"/>
    </contour>
  </outline>
</glyph>
<glyph name="ring" format="2">
  <advance width="296"/>
  <unicode hex="02DA"/>
  <outline>
    <contour>
      <point x="265" y="380" type="curve" smooth="yes"/>
      <point x="248" y="401"/>
      <point x="242" y="436"/>
      <point x="274" y="483" type="curve" smooth="yes"/>
      <point x="308" y="530"/>
      <point x="361" y="558"/>
      <point x="412" y="558" type="curve" smooth="yes"/>
      <point x="497" y="558"/>
      <point x="519" y="482"/>
      <point x="460" y="436" type="curve" smooth="yes"/>
      <point x="437" y="418"/>
      <point x="405" y="405"/>
      <point x="370" y="401" type="curve" smooth="yes"/>
      <point x="303" y="393"/>
      <point x="293" y="483"/>
      <point x="360" y="491" type="curve" smooth="yes"/>
      <point x="375" y="493"/>
      <point x="393" y="498"/>
      <point x="404" y="508" type="curve" smooth="yes"/>
      <point x="406" y="509"/>
      <point x="415" y="468"/>
      <point x="412" y="468" type="curve" smooth="yes"/>
      <point x="389" y="468"/>
      <point x="362" y="452"/>
      <point x="348" y="433" type="curve" smooth="yes"/>
      <point x="347" y="431"/>
      <point x="335" y="437"/>
      <point x="335" y="436" type="curve" smooth="yes"/>
      <point x="377" y="383"/>
      <point x="307" y="327"/>
    </contour>
  </outline>
</glyph>
<glyph name="tilde" format="2">
  <advance width="399"/>
  <unicode hex="02DC"/>
  <outline>
    <contour>
      <point x="592" y="498" type="curve" smooth="yes"/>
      <point x="559" y="411"/>
      <point x="497" y="372"/>
      <point x="447" y="372" type="curve" smooth="yes"/>
      <point x="318" y="372"/>
      <point x="415" y="448"/>
      <point x="397" y="448" type="curve" smooth="yes"/>
      <point x="378" y="448"/>
      <point x="325" y="410"/>
      <point x="306" y="399" type="curve" smooth="yes"/>
      <point x="247" y="365"/>
      <point x="202" y="443"/>
      <point x="260" y="477" type="curve" smooth="yes"/>
      <point x="311" y="506"/>
      <point x="346" y="538"/>
      <point x="397" y="538" type="curve" smooth="yes"/>
      <point x="526" y="538"/>
      <point x="429" y="462"/>
      <point x="447" y="462" type="curve" smooth="yes"/>
      <point x="467" y="462"/>
      <point x="494" y="494"/>
      <point x="508" y="530" type="curve" smooth="yes"/>
      <point x="532" y="593"/>
      <point x="616" y="561"/>
    </contour>
  </outline>
</glyph>
<glyph name="endash" format="2">
  <advance width="393"/>
  <unicode hex="2013"/>
  <outline>
    <contour>
      <point x="386" y="192" type="curve" smooth="yes"/>
      <point x="351" y="169"/>
      <point x="308" y="164"/>
      <point x="247" y="164" type="curve" smooth="yes"/>
      <point x="190" y="164"/>
      <point x="144" y="168"/>
      <point x="99" y="189" type="curve" smooth="yes"/>
      <point x="38" y="217"/>
      <point x="76" y="299"/>
      <point x="137" y="271" type="curve" smooth="yes"/>
      <point x="169" y="256"/>
      <point x="206" y="254"/>
      <point x="247" y="254" type="curve" smooth="yes"/>
      <point x="281" y="254"/>
      <point x="318" y="255"/>
      <point x="338" y="268" type="curve" smooth="yes"/>
      <point x="394" y="304"/>
      <point x="443" y="229"/>
    </contour>
  </outline>
</glyph>
<glyph name="quoteleft" format="2">
  <advance width="194"/>
  <unicode hex="2018"/>
  <outline>
    <contour>
      <point x="358" y="411" type="curve" smooth="yes"/>
      <point x="354" y="408"/>
      <point x="264" y="328"/>
      <point x="265" y="325" type="curve" smooth="yes"/>
      <point x="290" y="263"/>
      <point x="206" y="230"/>
      <point x="181" y="293" type="curve" smooth="yes"/>
      <point x="163" y="338"/>
      <point x="198" y="402"/>
      <point x="304" y="483" type="curve" smooth="yes"/>
      <point x="357" y="524"/>
      <point x="412" y="452"/>
    </contour>
  </outline>
</glyph>
<glyph name="quoteright" format="2">
  <advance width="197"/>
  <unicode hex="2019"/>
  <outline>
    <contour>
      <point x="172" y="341" type="curve" smooth="yes"/>
      <point x="177" y="345"/>
      <point x="266" y="425"/>
      <point x="265" y="427" type="curve" smooth="yes"/>
      <point x="240" y="490"/>
      <point x="323" y="523"/>
      <point x="349" y="461" type="curve" smooth="yes"/>
      <point x="367" y="417"/>
      <point x="333" y="352"/>
      <point x="228" y="271" type="curve" smooth="yes"/>
      <point x="175" y="229"/>
      <point x="119" y="300"/>
    </contour>
  </outline>
</glyph>
<glyph name="quotesinglbase" format="2">
  <advance width="194"/>
  <unicode hex="201A"/>
  <outline>
    <contour>
      <point x="-107" y="-54" type="curve" smooth="yes"/>
      <point x="-102" y="-50"/>
      <point x="-13" y="30"/>
      <point x="-14" y="32" type="curve" smooth="yes"/>
      <point x="-38" y="96"/>
      <point x="47" y="127"/>
      <point x="70" y="64" type="curve" smooth="yes"/>
      <point x="86" y="20"/>
      <point x="52" y="-45"/>
      <point x="-53" y="-126" type="curve" smooth="yes"/>
      <point x="-106" y="-167"/>
      <point x="-161" y="-95"/>
    </contour>
  </outline>
</glyph>
<glyph name="quotedblleft" format="2">
  <advance width="336"/>
  <unicode hex="201C"/>
  <outline>
    <contour>
      <point x="358" y="411" type="curve" smooth="yes"/>
      <point x="353" y="407"/>
      <point x="265" y="328"/>
      <point x="266" y="325" type="curve" smooth="yes"/>
      <point x="291" y="263"/>
      <point x="207" y="230"/>
      <point x="182" y="293" type="curve" smooth="yes"/>
      <point x="164" y="338"/>
      <point x="199" y="402"/>
      <point x="304" y="483" type="curve" smooth="yes"/>
      <point x="357" y="524"/>
      <point x="412" y="452"/>
    </contour>
    <contour>
      <point x="500" y="412" type="curve" smooth="yes"/>
      <point x="495" y="408"/>
      <point x="406" y="328"/>
      <point x="407" y="325" type="curve" smooth="yes"/>
      <point x="432" y="263"/>
      <point x="348" y="230"/>
      <point x="323" y="293" type="curve" smooth="yes"/>
      <point x="305" y="338"/>
      <point x="341" y="401"/>
      <point x="444" y="482" type="curve" smooth="yes"/>
      <point x="497" y="524"/>
      <point x="553" y="453"/>
    </contour>
  </outline>
</glyph>
<glyph name="quotedblright" format="2">
  <advance width="336"/>
  <unicode hex="201D"/>
  <outline>
    <contour>
      <point x="173" y="342" type="curve" smooth="yes"/>
      <point x="178" y="346"/>
      <point x="267" y="426"/>
      <point x="266" y="428" type="curve" smooth="yes"/>
      <point x="242" y="492"/>
      <point x="327" y="523"/>
      <point x="350" y="460" type="curve" smooth="yes"/>
      <point x="366" y="416"/>
      <point x="332" y="351"/>
      <point x="227" y="270" type="curve" smooth="yes"/>
      <point x="174" y="229"/>
      <point x="119" y="301"/>
    </contour>
    <contour>
      <point x="314" y="341" type="curve" smooth="yes"/>
      <point x="319" y="345"/>
      <point x="408" y="425"/>
      <point x="407" y="427" type="curve" smooth="yes"/>
      <point x="382" y="490"/>
      <point x="465" y="523"/>
      <point x="491" y="461" type="curve" smooth="yes"/>
      <point x="509" y="417"/>
      <point x="475" y="352"/>
      <point x="370" y="271" type="curve" smooth="yes"/>
      <point x="317" y="229"/>
      <point x="261" y="300"/>
    </contour>
  </outline>
</glyph>
<glyph name="bullet" format="2">
  <advance width="390"/>
  <unicode hex="2022"/>
  <outline>
    <contour>
      <point x="226" y="288" type="curve" smooth="yes"/>
      <point x="225" y="290"/>
      <point x="239" y="230"/>
      <point x="237" y="226" type="curve" smooth="yes"/>
      <point x="216" y="182"/>
      <point x="271" y="197"/>
      <point x="300" y="236" type="curve" smooth="yes"/>
      <point x="303" y="240"/>
      <point x="314" y="255"/>
      <point x="310" y="255" type="curve" smooth="yes"/>
      <point x="271" y="255"/>
      <point x="211" y="216"/>
      <point x="185" y="179" type="curve" smooth="yes"/>
      <point x="183" y="176"/>
      <point x="141" y="186"/>
      <point x="142" y="185" type="curve" smooth="yes"/>
      <point x="209" y="174"/>
      <point x="194" y="86"/>
      <point x="128" y="97" type="curve" smooth="yes"/>
      <point x="87" y="103"/>
      <point x="52" y="147"/>
      <point x="111" y="231" type="curve" smooth="yes"/>
      <point x="155" y="294"/>
      <point x="243" y="345"/>
      <point x="310" y="345" type="curve" smooth="yes"/>
      <point x="396" y="345"/>
      <point x="434" y="262"/>
      <point x="372" y="182" type="curve" smooth="yes"/>
      <point x="274" y="51"/>
      <point x="85" y="115"/>
      <point x="155" y="264" type="curve" smooth="yes"/>
      <point x="210" y="383"/>
      <point x="305" y="360"/>
      <point x="314" y="302" type="curve" smooth="yes"/>
      <point x="325" y="235"/>
      <point x="236" y="221"/>
    </contour>
  </outline>
</glyph>
<glyph name="four.superior" format="2">
  <advance width="306"/>
  <unicode hex="2074"/>
  <outline>
    <contour>
      <point x="330" y="302" type="curve" smooth="yes"/>
      <point x="283" y="302"/>
      <point x="235" y="316"/>
      <point x="197" y="316" type="curve" smooth="yes"/>
      <point x="111" y="316"/>
      <point x="83" y="347"/>
      <point x="180" y="425" type="curve" smooth="yes"/>
      <point x="207" y="446"/>
      <point x="218" y="463"/>
      <point x="243" y="492" type="curve" smooth="yes"/>
      <point x="282" y="541"/>
      <point x="328" y="547"/>
      <point x="367" y="532" type="curve" smooth="yes"/>
      <point x="406" y="516"/>
      <point x="473" y="449"/>
      <point x="426" y="382" type="curve" smooth="yes"/>
      <point x="408" y="357"/>
      <point x="398" y="343"/>
      <point x="388" y="329" type="curve" smooth="yes"/>
      <point x="358" y="286"/>
      <point x="320" y="233"/>
      <point x="286" y="185" type="curve" smooth="yes"/>
      <point x="247" y="130"/>
      <point x="173" y="182"/>
      <point x="212" y="237" type="curve" smooth="yes"/>
      <point x="246" y="285"/>
      <point x="284" y="338"/>
      <point x="314" y="381" type="curve" smooth="yes"/>
      <point x="324" y="395"/>
      <point x="334" y="409"/>
      <point x="352" y="434" type="curve" smooth="yes"/>
      <point x="354" y="437"/>
      <point x="336" y="448"/>
      <point x="335" y="448" type="curve" smooth="yes"/>
      <point x="327" y="451"/>
      <point x="321" y="445"/>
      <point x="311" y="434" type="curve" smooth="yes"/>
      <point x="280" y="397"/>
      <point x="270" y="381"/>
      <point x="236" y="355" type="curve" smooth="yes"/>
      <point x="232" y="352"/>
      <point x="194" y="406"/>
      <point x="197" y="406" type="curve" smooth="yes"/>
      <point x="245" y="406"/>
      <point x="293" y="392"/>
      <point x="330" y="392" type="curve" smooth="yes"/>
      <point x="398" y="392"/>
      <point x="398" y="302"/>
    </contour>
  </outline>
</glyph>
<glyph name="minus" format="2">
  <advance width="336"/>
  <unicode hex="2212"/>
  <outline>
    <contour>
      <point x="351" y="170" type="curve" smooth="yes"/>
      <point x="277" y="128"/>
      <point x="187" y="125"/>
      <point x="88" y="168" type="curve" smooth="yes"/>
      <point x="26" y="194"/>
      <point x="62" y="277"/>
      <point x="124" y="250" type="curve" smooth="yes"/>
      <point x="193" y="221"/>
      <point x="255" y="218"/>
      <point x="307" y="248" type="curve" smooth="yes"/>
      <point x="365" y="282"/>
      <point x="410" y="203"/>
    </contour>
  </outline>
</glyph>
<glyph name="divisionslash" format="2">
  <advance width="366"/>
  <unicode hex="2215"/>
  <outline>
    <contour>
      <point x="588" y="476" type="curve" smooth="yes"/>
      <point x="559" y="430"/>
      <point x="527" y="397"/>
      <point x="491" y="368" type="curve" smooth="yes"/>
      <point x="355" y="258"/>
      <point x="232" y="158"/>
      <point x="122" y="68" type="curve" smooth="yes"/>
      <point x="63" y="19"/>
      <point x="7" y="-25"/>
      <point x="-60" y="-51" type="curve" smooth="yes"/>
      <point x="-122" y="-76"/>
      <point x="-155" y="8"/>
      <point x="-92" y="33" type="curve" smooth="yes"/>
      <point x="-37" y="55"/>
      <point x="15" y="97"/>
      <point x="66" y="138" type="curve" smooth="yes"/>
      <point x="188" y="238"/>
      <point x="313" y="339"/>
      <point x="435" y="438" type="curve" smooth="yes"/>
      <point x="463" y="461"/>
      <point x="489" y="486"/>
      <point x="512" y="524" type="curve" smooth="yes"/>
      <point x="547" y="581"/>
      <point x="624" y="534"/>
    </contour>
  </outline>
</glyph>
<glyph name="circumflex.cap" format="2">
  <advance width="398"/>
  <outline>
    <contour>
      <point x="381" y="587" type="curve" smooth="yes"/>
      <point x="520" y="662" type="line" smooth="yes"/>
      <point x="543" y="674"/>
      <point x="572" y="664"/>
      <point x="582" y="640" type="curve" smooth="yes"/>
      <point x="615" y="565" type="line" smooth="yes"/>
      <point x="642" y="503"/>
      <point x="560" y="467"/>
      <point x="533" y="529" type="curve" smooth="yes"/>
      <point x="500" y="604" type="line"/>
      <point x="562" y="582" type="line"/>
      <point x="423" y="507" type="line" smooth="yes"/>
      <point x="364" y="475"/>
      <point x="321" y="555"/>
    </contour>
  </outline>
</glyph>
<glyph name="dieresis.cap" format="2">
  <advance width="409"/>
  <outline>
    <contour>
      <point x="411" y="608" type="curve" smooth="yes"/>
      <point x="342" y="621"/>
      <point x="351" y="718"/>
      <point x="436" y="728" type="curve" smooth="yes"/>
      <point x="503" y="735"/>
      <point x="513" y="646"/>
      <point x="446" y="638" type="curve" smooth="yes"/>
      <point x="444" y="638"/>
      <point x="426" y="697"/>
      <point x="427" y="696" type="curve" smooth="yes"/>
      <point x="494" y="684"/>
      <point x="477" y="595"/>
    </contour>
    <contour>
      <point x="567" y="608" type="curve" smooth="yes"/>
      <point x="497" y="620"/>
      <point x="506" y="718"/>
      <point x="592" y="728" type="curve" smooth="yes"/>
      <point x="659" y="735"/>
      <point x="669" y="646"/>
      <point x="602" y="638" type="curve" smooth="yes"/>
      <point x="600" y="638"/>
      <point x="581" y="697"/>
      <point x="583" y="696" type="curve" smooth="yes"/>
      <point x="649" y="684"/>
      <point x="633" y="596"/>
    </contour>
  </outline>
</glyph>
<glyph name="ring.cap" format="2">
  <advance width="296"/>
  <outline>
    <contour>
      <point x="422" y="573" type="curve" smooth="yes"/>
      <point x="447" y="573"/>
      <point x="475" y="590"/>
      <point x="491" y="613" type="curve" smooth="yes"/>
      <point x="493" y="616"/>
      <point x="507" y="598"/>
      <point x="504" y="598" type="curve" smooth="yes"/>
      <point x="480" y="598"/>
      <point x="455" y="582"/>
      <point x="439" y="561" type="curve" smooth="yes"/>
      <point x="438" y="558"/>
      <point x="419" y="573"/>
    </contour>
    <contour>
      <point x="422" y="483" type="curve" smooth="yes"/>
      <point x="349" y="483"/>
      <point x="317" y="545"/>
      <point x="367" y="613" type="curve" smooth="yes"/>
      <point x="399" y="660"/>
      <point x="452" y="688"/>
      <point x="504" y="688" type="curve" smooth="yes"/>
      <point x="577" y="688"/>
      <point x="611" y="627"/>
      <point x="565" y="561" type="curve" smooth="yes"/>
      <point x="531" y="512"/>
      <point x="475" y="483"/>
    </contour>
  </outline>
</glyph>
<glyph name="t.alt" format="2">
  <advance width="238"/>
  <outline>
    <contour>
      <point x="310" y="298" type="curve" smooth="yes"/>
      <point x="289" y="298"/>
      <point x="270" y="305"/>
      <point x="246" y="317" type="curve" smooth="yes"/>
      <point x="238" y="321"/>
      <point x="222" y="328"/>
      <point x="217" y="324" type="curve" smooth="yes"/>
      <point x="201" y="309"/>
      <point x="180" y="298"/>
      <point x="153" y="298" type="curve" smooth="yes"/>
      <point x="86" y="298"/>
      <point x="86" y="388"/>
      <point x="153" y="388" type="curve" smooth="yes"/>
      <point x="154" y="388"/>
      <point x="156" y="390"/>
      <point x="157" y="390" type="curve" smooth="yes"/>
      <point x="191" y="421"/>
      <point x="236" y="423"/>
      <point x="286" y="397" type="curve" smooth="yes"/>
      <point x="292" y="394"/>
      <point x="305" y="388"/>
      <point x="310" y="388" type="curve" smooth="yes"/>
      <point x="378" y="388"/>
      <point x="378" y="298"/>
    </contour>
    <contour>
      <point x="167" y="-12" type="curve" smooth="yes"/>
      <point x="47" y="-56"/>
      <point x="-29" y="11"/>
      <point x="44" y="115" type="curve" smooth="yes"/>
      <point x="111" y="211"/>
      <point x="146" y="259"/>
      <point x="206" y="344" type="curve" smooth="yes"/>
      <point x="230" y="377"/>
      <point x="246" y="405"/>
      <point x="262" y="436" type="curve" smooth="yes"/>
      <point x="291" y="496"/>
      <point x="372" y="457"/>
      <point x="342" y="396" type="curve" smooth="yes"/>
      <point x="326" y="361"/>
      <point x="306" y="331"/>
      <point x="280" y="292" type="curve" smooth="yes"/>
      <point x="221" y="209"/>
      <point x="186" y="161"/>
      <point x="118" y="63" type="curve" smooth="yes"/>
      <point x="114" y="58"/>
      <point x="130" y="70"/>
      <point x="135" y="72" type="curve" smooth="yes"/>
      <point x="199" y="96"/>
      <point x="230" y="11"/>
    </contour>
  </outline>
</glyph>
